<?xml version="1.0" encoding="UTF-8" ?>
<!DOCTYPE svg PUBLIC "-//W3C//DTD SVG 1.1//EN" "http://www.w3.org/Graphics/SVG/1.1/DTD/svg11.dtd">
<svg width="800pt" height="600pt" viewBox="0 0 800 600" version="1.1" xmlns="http://www.w3.org/2000/svg">
<g id="#f8f8f8ff">
</g>
<g id="#202020ff">
<path fill="#202020" opacity="1.00" d=" M 314.01 146.09 C 334.40 142.88 355.33 148.01 373.39 157.54 C 390.31 166.17 404.48 179.01 419.66 190.23 C 422.79 192.62 425.94 194.98 429.06 197.39 C 467.35 197.43 505.63 197.36 543.91 197.42 C 547.31 197.13 549.65 201.03 548.25 204.02 C 543.46 221.67 536.48 238.71 527.76 254.78 C 518.51 271.75 507.02 287.67 492.64 300.67 C 479.08 313.03 462.68 322.46 444.86 327.06 C 424.97 332.10 403.54 331.68 384.08 325.00 C 363.37 317.97 345.89 303.59 332.50 286.56 C 325.13 277.21 318.79 267.07 313.28 256.53 C 309.27 248.97 306.09 240.92 300.96 234.00 C 293.98 224.17 283.91 216.03 271.94 213.43 C 266.71 212.15 261.31 212.38 256.00 212.77 C 253.31 213.25 250.94 210.67 251.23 208.07 C 251.43 196.74 256.36 185.98 262.90 176.91 C 274.99 160.43 293.79 149.07 314.01 146.09 M 290.15 164.17 C 276.09 172.91 263.85 186.67 260.87 203.36 C 270.79 203.11 280.72 205.66 289.25 210.73 C 300.99 218.31 310.03 229.49 316.03 242.04 C 323.51 258.03 332.57 273.44 344.30 286.70 C 355.03 299.00 368.37 309.23 383.62 315.25 C 401.79 322.37 422.15 323.33 441.08 318.82 C 456.14 315.27 470.12 307.80 482.00 297.97 C 496.17 286.32 507.50 271.58 516.77 255.84 C 525.84 240.27 533.03 223.62 538.31 206.40 C 505.87 206.41 473.43 206.36 440.98 206.43 C 451.78 214.30 462.55 222.34 474.37 228.62 C 479.08 231.20 484.54 232.74 489.91 231.49 C 492.23 230.97 495.40 230.74 496.55 233.36 C 497.70 236.81 495.61 240.24 494.21 243.29 C 489.51 252.09 482.46 259.40 474.89 265.79 C 460.99 277.19 444.00 285.32 425.97 287.03 C 407.91 288.89 389.33 283.08 375.18 271.81 C 364.87 263.49 357.88 250.51 358.68 237.06 C 359.26 225.50 365.61 214.61 374.96 207.91 C 386.24 199.50 400.74 197.22 414.49 197.51 C 407.50 192.15 400.52 186.78 393.55 181.38 C 377.83 168.95 359.75 158.67 339.79 155.20 C 322.93 152.28 304.68 154.83 290.15 164.17 M 381.81 213.78 C 373.90 218.88 367.94 227.51 367.45 237.07 C 366.75 246.26 370.84 255.27 377.16 261.77 C 384.35 269.07 393.87 273.77 403.64 276.55 C 419.27 280.69 436.39 278.32 450.64 270.83 C 464.44 264.09 476.86 254.02 485.31 241.10 C 473.67 240.21 463.99 232.97 454.42 227.00 C 445.13 220.17 435.71 213.46 426.40 206.65 C 422.00 206.01 417.50 206.59 413.06 206.39 C 402.27 206.04 391.00 207.82 381.81 213.78 Z" />
<path fill="#202020" opacity="1.00" d=" M 315.28 168.23 C 322.87 165.25 331.48 173.15 329.10 180.97 C 327.57 188.88 316.42 191.73 311.08 185.88 C 305.59 180.70 307.98 170.33 315.28 168.23 Z" />
<path fill="#202020" opacity="1.00" d=" M 241.56 369.82 C 249.60 368.47 258.30 369.49 265.33 373.80 C 266.93 375.71 264.75 378.04 263.61 379.64 C 262.64 381.37 260.52 380.10 259.18 379.68 C 252.97 377.11 245.53 376.47 239.41 379.61 C 235.23 381.72 232.90 386.38 232.80 390.95 C 232.68 396.98 232.76 403.02 232.76 409.05 C 232.73 413.25 234.35 417.62 237.79 420.20 C 243.48 424.42 251.41 424.04 257.80 421.72 C 259.90 421.12 261.78 419.37 264.03 419.63 C 265.73 421.29 268.06 423.43 267.36 426.06 C 260.11 431.21 250.61 432.52 241.95 431.13 C 235.07 430.07 228.35 426.09 225.30 419.65 C 222.15 413.57 223.34 406.56 223.12 400.00 C 223.29 393.74 222.25 387.05 225.25 381.27 C 228.24 374.93 234.80 370.96 241.56 369.82 Z" />
<path fill="#202020" opacity="1.00" d=" M 296.63 369.85 C 304.81 368.75 314.05 368.67 320.96 373.87 C 326.56 377.98 328.40 385.34 328.27 391.97 C 328.17 403.68 328.41 415.41 328.15 427.12 C 327.93 427.42 327.48 428.02 327.26 428.32 C 320.11 430.68 312.51 431.51 305.01 431.66 C 297.54 431.68 289.44 430.42 283.61 425.37 C 279.17 421.31 278.63 414.75 279.53 409.16 C 280.38 404.36 284.13 400.61 288.48 398.72 C 297.10 394.76 306.87 395.75 316.01 396.72 C 318.21 397.23 318.80 394.57 318.57 392.96 C 318.64 387.96 317.66 381.90 312.82 379.29 C 307.30 376.51 300.74 377.20 294.90 378.46 C 292.17 378.93 289.69 380.89 286.89 380.61 C 285.53 378.79 282.23 375.77 284.85 373.70 C 288.43 371.58 292.56 370.57 296.63 369.85 M 296.37 403.56 C 293.61 404.35 291.00 406.10 289.74 408.75 C 287.88 412.93 288.87 418.59 292.93 421.11 C 298.52 424.68 305.54 424.05 311.83 423.37 C 314.06 422.91 316.65 422.92 318.42 421.32 C 318.97 417.21 318.52 413.05 318.68 408.93 C 318.56 407.04 319.28 403.98 316.61 403.65 C 309.96 402.59 302.97 401.88 296.37 403.56 Z" />
<path fill="#202020" opacity="1.00" d=" M 362.53 369.79 C 371.62 368.77 381.84 368.66 389.52 374.40 C 395.60 378.84 397.55 386.75 397.58 393.92 C 397.57 405.26 397.70 416.61 397.52 427.94 C 397.67 430.30 394.68 430.31 393.02 430.25 C 391.24 430.12 388.26 430.71 387.90 428.27 C 387.66 416.51 387.98 404.74 387.76 392.98 C 387.61 388.22 386.11 382.94 381.87 380.26 C 375.92 376.50 368.44 377.36 361.83 378.33 C 360.19 378.68 357.40 378.83 357.37 381.09 C 357.04 397.05 357.60 413.05 357.10 429.01 C 355.37 431.05 352.30 430.01 349.97 430.16 C 347.11 430.26 347.58 426.94 347.55 425.02 C 347.79 408.04 347.18 391.01 347.85 374.07 C 352.25 371.42 357.53 370.64 362.53 369.79 Z" />
<path fill="#202020" opacity="1.00" d=" M 417.88 374.08 C 424.80 369.94 433.20 369.01 441.12 369.35 C 448.25 369.66 455.97 372.77 459.33 379.46 C 462.94 386.42 461.57 394.46 461.83 401.98 C 461.61 410.75 462.29 419.57 461.47 428.31 C 448.61 431.62 434.20 433.94 421.66 428.32 C 411.69 424.23 409.72 409.41 417.03 402.05 C 422.96 396.76 431.36 395.67 439.00 395.87 C 443.05 395.80 447.04 396.83 451.08 396.64 C 452.88 394.90 452.09 392.20 452.09 389.99 C 451.90 385.31 449.70 380.16 444.94 378.56 C 437.92 376.32 430.16 377.45 423.44 380.21 C 420.05 382.24 416.77 376.90 417.88 374.08 M 431.22 403.23 C 427.60 404.03 423.90 406.28 422.91 410.08 C 421.39 414.63 423.54 420.11 428.07 421.97 C 435.24 425.05 443.58 424.07 450.94 422.16 C 451.25 421.86 451.87 421.27 452.18 420.98 C 452.57 415.98 452.42 410.95 452.29 405.95 C 452.39 404.62 451.11 403.62 449.89 403.57 C 443.74 402.64 437.37 402.05 431.22 403.23 Z" />
<path fill="#202020" opacity="1.00" d=" M 481.58 373.72 C 489.93 369.25 499.79 368.81 509.05 369.56 C 510.69 369.58 512.26 370.06 513.75 370.74 C 513.74 372.54 513.79 374.34 513.64 376.15 C 513.14 377.74 511.35 377.60 510.05 377.54 C 504.37 377.32 498.48 377.07 493.04 379.03 C 491.73 379.32 490.82 380.51 490.97 381.87 C 490.83 397.27 491.08 412.67 490.86 428.07 C 490.86 430.56 487.68 430.22 485.99 430.26 C 484.28 430.24 481.07 430.44 481.31 427.94 C 481.17 411.30 481.33 394.66 481.23 378.02 C 481.26 376.58 481.17 375.12 481.58 373.72 Z" />
<path fill="#202020" opacity="1.00" d=" M 527.54 374.00 C 527.19 372.41 528.15 370.57 529.98 370.80 C 532.30 371.02 535.49 369.82 537.10 372.03 C 537.54 383.59 537.00 395.19 537.36 406.76 C 537.55 411.58 540.51 416.09 544.92 418.08 C 551.41 420.96 559.25 420.41 565.57 417.30 C 567.21 416.66 567.04 414.51 567.14 413.07 C 567.13 404.38 567.12 395.70 567.12 387.02 C 567.06 381.87 566.56 376.61 567.50 371.53 C 569.75 370.14 572.63 370.85 575.15 370.89 C 577.15 371.28 576.61 373.53 576.75 375.02 C 576.68 393.68 576.77 412.35 576.70 431.02 C 576.50 438.11 574.31 445.85 568.38 450.28 C 561.43 455.29 552.28 455.38 544.12 454.31 C 539.24 453.38 534.09 451.94 530.31 448.58 C 529.48 445.81 532.04 443.31 534.02 441.75 C 537.78 442.78 541.03 445.29 544.94 445.97 C 551.52 447.52 559.87 447.15 564.31 441.31 C 567.13 436.91 568.20 430.98 566.32 426.03 C 559.92 427.12 553.47 429.22 546.92 427.93 C 537.40 426.56 528.36 418.99 527.71 408.96 C 527.30 397.32 527.64 385.65 527.54 374.00 Z" />
</g>
<g id="#ffc32cff">
<path fill="#ffc32c" opacity="1.00" d=" M 290.15 164.17 C 304.68 154.83 322.93 152.28 339.79 155.20 C 359.75 158.67 377.83 168.95 393.55 181.38 C 400.52 186.78 407.50 192.15 414.49 197.51 C 400.74 197.22 386.24 199.50 374.96 207.91 C 365.61 214.61 359.26 225.50 358.68 237.06 C 357.88 250.51 364.87 263.49 375.18 271.81 C 389.33 283.08 407.91 288.89 425.97 287.03 C 444.00 285.32 460.99 277.19 474.89 265.79 C 482.46 259.40 489.51 252.09 494.21 243.29 C 495.61 240.24 497.70 236.81 496.55 233.36 C 495.40 230.74 492.23 230.97 489.91 231.49 C 484.54 232.74 479.08 231.20 474.37 228.62 C 462.55 222.34 451.78 214.30 440.98 206.43 C 473.43 206.36 505.87 206.41 538.31 206.40 C 533.03 223.62 525.84 240.27 516.77 255.84 C 507.50 271.58 496.17 286.32 482.00 297.97 C 470.12 307.80 456.14 315.27 441.08 318.82 C 422.15 323.33 401.79 322.37 383.62 315.25 C 368.37 309.23 355.03 299.00 344.30 286.70 C 332.57 273.44 323.51 258.03 316.03 242.04 C 310.03 229.49 300.99 218.31 289.25 210.73 C 278.85 202.27 275.56 186.57 281.62 174.63 C 283.61 170.54 286.63 167.02 290.15 164.17 M 315.28 168.23 C 307.98 170.33 305.59 180.70 311.08 185.88 C 316.42 191.73 327.57 188.88 329.10 180.97 C 331.48 173.15 322.87 165.25 315.28 168.23 Z" />
<path fill="#ffc32c" opacity="1.00" d=" M 296.37 403.56 C 302.97 401.88 309.96 402.59 316.61 403.65 C 319.28 403.98 318.56 407.04 318.68 408.93 C 318.52 413.05 318.97 417.21 318.42 421.32 C 316.65 422.92 314.06 422.91 311.83 423.37 C 305.54 424.05 298.52 424.68 292.93 421.11 C 288.87 418.59 287.88 412.93 289.74 408.75 C 291.00 406.10 293.61 404.35 296.37 403.56 Z" />
<path fill="#ffc32c" opacity="1.00" d=" M 431.22 403.23 C 437.37 402.05 443.74 402.64 449.89 403.57 C 451.11 403.62 452.39 404.62 452.29 405.95 C 452.42 410.95 452.57 415.98 452.18 420.98 C 451.87 421.27 451.25 421.86 450.94 422.16 C 443.58 424.07 435.24 425.05 428.07 421.97 C 423.54 420.11 421.39 414.63 422.91 410.08 C 423.90 406.28 427.60 404.03 431.22 403.23 Z" />
</g>
<g id="#ff4500ff">
<path fill="#ff4500" opacity="1.00" d=" M 381.81 213.78 C 391.00 207.82 402.27 206.04 413.06 206.39 C 417.50 206.59 422.00 206.01 426.40 206.65 C 435.71 213.46 445.13 220.17 454.42 227.00 C 460.92 233.02 464.24 242.19 463.02 250.97 C 462.12 259.03 457.36 266.37 450.64 270.83 C 436.39 278.32 419.27 280.69 403.64 276.55 C 393.87 273.77 384.35 269.07 377.16 261.77 C 370.84 255.27 366.75 246.26 367.45 237.07 C 367.94 227.51 373.90 218.88 381.81 213.78 Z" />
</g>
</svg>
