<svg id="Layer_1" data-name="Layer 1" xmlns="http://www.w3.org/2000/svg" xmlns:xlink="http://www.w3.org/1999/xlink" viewBox="0 0 1763.83 582.2"><defs><style>.cls-1{fill:url(#linear-gradient);}.cls-2{fill:url(#linear-gradient-2);}.cls-3{fill:url(#linear-gradient-3);}.cls-4{fill:url(#linear-gradient-4);}.cls-5{fill:url(#linear-gradient-5);}</style><linearGradient id="linear-gradient" x1="865.73" y1="718.6" x2="865.73" y2="556.73" gradientUnits="userSpaceOnUse"><stop offset="0" stop-color="#9ad7ff"/><stop offset="0.98" stop-color="#edffff"/></linearGradient><linearGradient id="linear-gradient-2" x1="424.92" y1="478.56" x2="424.92" y2="251.03" xlink:href="#linear-gradient"/><linearGradient id="linear-gradient-3" x1="1332.85" y1="833.04" x2="1332.85" y2="748.65" xlink:href="#linear-gradient"/><linearGradient id="linear-gradient-4" x1="1388.45" y1="600.23" x2="1388.45" y2="515.84" xlink:href="#linear-gradient"/><linearGradient id="linear-gradient-5" x1="1567.64" y1="440.62" x2="1567.64" y2="278.75" xlink:href="#linear-gradient"/></defs><title>clouds_1</title><path class="cls-1" d="M1121.75,615a24,24,0,0,0-14-6.19,21.92,21.92,0,0,0-15.19-5.88,22.54,22.54,0,0,0-16.47,7.44,7.17,7.17,0,0,0-7-6.47,6.81,6.81,0,0,0-3.85,1.37c-2-10.35-10.7-18.11-21.1-18.11a20.62,20.62,0,0,0-7.49,1.5,22.26,22.26,0,0,0,2.57-10.28c0-11.92-9.13-21.58-20.41-21.58a19.83,19.83,0,0,0-14.53,6.44,13,13,0,0,0-5-3.23c.36-2.34.19-5-1.23-7l-1.9-2.54c-1.67-2.23-3.36-4-6.15-4.73-.28-.07-.6-.09-.89-.14a10.2,10.2,0,0,0-2.78-8.7L984.49,535a9.34,9.34,0,0,0-2.88-2,34.78,34.78,0,0,0-3.77-3.81,8.26,8.26,0,0,0-.34-2.36c-1.66-5.12-7.18-9-12.67-7.19l-4.39,1.42-.12,0a32,32,0,0,0-4.18-.3c-.42,0-.82.06-1.24.08a9.66,9.66,0,0,0-6.37-2.19,9.38,9.38,0,0,0-9.45,7,34.93,34.93,0,0,0-9.3,8.36,11.29,11.29,0,0,0-1.58-.15c-8.27,0-11.39,8-9.33,14a9.65,9.65,0,0,0-7.51,4,25,25,0,0,0-19.5-9.63c-13.56,0-24.65,11.12-25.6,25.2a10.34,10.34,0,0,0-3.5-.61,10.13,10.13,0,0,0-4.7,1.1,8.08,8.08,0,0,0-3.71-1.3,6,6,0,0,0-1.64-1.27l-1.74-.88a7.72,7.72,0,0,0-5.61-.74c-.16.05-.31.13-.46.18a5.7,5.7,0,0,0-1.38-.5,9.9,9.9,0,0,0-4.56-.06,7.08,7.08,0,0,0-.9-1.16l-.87-.87a7,7,0,0,0-1.67-1.19,7.17,7.17,0,0,0-8.4-3.74c-.25.08-.49.2-.74.3l-.6-1.41a7.26,7.26,0,0,0-2.61-2.61,9.05,9.05,0,0,0-3.79-1.6,16.71,16.71,0,0,0-2.62-.25,23,23,0,0,0-27.72.62c-.19,0-.37-.06-.58-.06a7.6,7.6,0,0,0-2.93.64,7.3,7.3,0,0,0-7,.82,7.3,7.3,0,0,1-.77.44,7.41,7.41,0,0,0-3.45,3c0,.06-.05.13-.09.2a7.45,7.45,0,0,0-5,5.17c-.17.16-.36.31-.52.48-.28,0-.55-.13-.83-.16a8,8,0,0,0-3.21-2l-4.3-1.46a7.41,7.41,0,0,0-5.62.73c-.23.14-.44.32-.67.49a5.88,5.88,0,0,0-3.22,1,44.26,44.26,0,0,1-6.62,3.79,7.24,7.24,0,0,0-3.27,4.11,6.12,6.12,0,0,0-4.56,3.33,19.41,19.41,0,0,0-1.88,7.41,7.43,7.43,0,0,0-2.54.71,8.65,8.65,0,0,0-3.24.06l-4.9,1a6.93,6.93,0,0,0-5,5.13,8.32,8.32,0,0,0-1.43,1.69l-.6.34a7.33,7.33,0,0,0-5.21.53,7.52,7.52,0,0,0-3.86,1,7.64,7.64,0,0,0-2.32,2.22,5.7,5.7,0,0,0-.92-.07,25.2,25.2,0,0,0-8.26,3.37,7.79,7.79,0,0,0-2,3.73,5.59,5.59,0,0,0-.9-.3l-1.94-.26a7.27,7.27,0,0,0-3.67,1l-3.92,1.76a7.09,7.09,0,0,0-3.15,3.78l-.21,0a7.66,7.66,0,0,0-6.33-1.61,7,7,0,0,0-5.2.91,4.58,4.58,0,0,0-.84-.53c-1.61-.86-3.84-1.45-5.61-.73a12.48,12.48,0,0,1-2,.59,13.41,13.41,0,0,1-1.79,0,6.35,6.35,0,0,0-3.58,1,9.59,9.59,0,0,0-4.51.81c-4.32,1.87-8.35,2.79-12.09,5.65,0,0-.11-1.46-.17-1.46h-1.21c-1.94,0-3.83,2-5.2,3.38-.06,0-.12.52-.18.5a10.94,10.94,0,0,0-7.67.83,7.3,7.3,0,0,0-4.09,0c-.81.2-1.62.48-2.43.69a2.46,2.46,0,0,0-.72.47,7.39,7.39,0,0,1-.88-.27,7,7,0,0,0-5-.08c-1.28.24-2.49,1.19-3.49,1.19h516.38C1123.27,616.49,1122.57,615.72,1121.75,615Z" transform="translate(-62 -197.6)"/><path class="cls-2" d="M784.79,332.91a33.7,33.7,0,0,0-19.61-8.7,30.84,30.84,0,0,0-21.36-8.27,31.72,31.72,0,0,0-23.15,10.46c-.7-5.16-4.72-9.1-9.8-9.1a9.64,9.64,0,0,0-5.42,1.93c-2.85-14.55-15-25.46-29.66-25.46a29.23,29.23,0,0,0-10.52,2.11,31.21,31.21,0,0,0,3.62-14.45c0-16.75-12.85-30.33-28.7-30.33a27.88,27.88,0,0,0-20.42,9,18.37,18.37,0,0,0-7.08-4.54c.51-3.28.27-7.1-1.73-9.76l-2.68-3.57c-2.34-3.13-4.72-5.57-8.64-6.65-.39-.11-.84-.13-1.25-.21a14.36,14.36,0,0,0-3.9-12.22l-2.63-2.72a13.12,13.12,0,0,0-4.05-2.78,49.59,49.59,0,0,0-5.3-5.35A11.94,11.94,0,0,0,582,209c-2.33-7.19-10.09-12.61-17.8-10.11l-6.19,2-.15.07a45.87,45.87,0,0,0-5.89-.41c-.59,0-1.15.08-1.73.1a13.62,13.62,0,0,0-9-3.08A13.2,13.2,0,0,0,528,207.49,49,49,0,0,0,515,219.26a15.89,15.89,0,0,0-2.23-.22c-11.63,0-16,11.28-13.11,19.75a13.53,13.53,0,0,0-10.56,5.66,35.19,35.19,0,0,0-27.41-13.54c-19.06,0-34.65,15.64-36,35.42a15.14,15.14,0,0,0-4.93-.85,14.29,14.29,0,0,0-6.6,1.54,11.39,11.39,0,0,0-5.21-1.81,8.27,8.27,0,0,0-2.32-1.79l-2.43-1.24a10.87,10.87,0,0,0-7.9-1c-.21.06-.43.18-.64.26a7.4,7.4,0,0,0-1.94-.71,13.89,13.89,0,0,0-6.41-.09A9.24,9.24,0,0,0,386,259l-1.22-1.23a9.29,9.29,0,0,0-2.35-1.67,10.25,10.25,0,0,0-3.9-4.23,10.48,10.48,0,0,0-7.9-1c-.35.12-.69.28-1,.42l-.84-2a10.27,10.27,0,0,0-3.67-3.68,12.54,12.54,0,0,0-5.33-2.24,22,22,0,0,0-3.68-.35,32.28,32.28,0,0,0-39,.87,6.92,6.92,0,0,0-.81-.09,10.78,10.78,0,0,0-4.12.9,10.26,10.26,0,0,0-9.82,1.15,10.28,10.28,0,0,1-1.07.62,10.44,10.44,0,0,0-4.85,4.18c-.05.09-.08.2-.13.28a10.49,10.49,0,0,0-7,7.27c-.25.23-.51.44-.74.69a9.33,9.33,0,0,0-1.17-.24,11.19,11.19,0,0,0-4.51-2.82l-6.05-2.05a10.38,10.38,0,0,0-7.89,1,9.81,9.81,0,0,0-.94.69,8.14,8.14,0,0,0-4.53,1.45,62,62,0,0,1-9.3,5.31c-2.09,1-3.89,3.59-4.59,5.78a8.59,8.59,0,0,0-6.41,4.68,27,27,0,0,0-2.65,10.43,10.22,10.22,0,0,0-3.57,1,12.27,12.27,0,0,0-4.55.09l-6.89,1.39a9.77,9.77,0,0,0-7.1,7.2,11.74,11.74,0,0,0-2,2.37l-.85.49a10.2,10.2,0,0,0-7.32.75,10.31,10.31,0,0,0-5.42,1.33,10.75,10.75,0,0,0-3.27,3.12,7.92,7.92,0,0,0-1.29-.1,11.32,11.32,0,0,0-5.89,1.79,11.33,11.33,0,0,0-5.71,2.94,10.92,10.92,0,0,0-2.82,5.25,7,7,0,0,0-1.27-.42l-2.72-.37a10.21,10.21,0,0,0-5.17,1.4l-5.5,2.47c-1.94.87-3.64,3.24-4.44,5.31l-.28,0a10.81,10.81,0,0,0-8.9-2.26,9.89,9.89,0,0,0-7.32,1.27,7.73,7.73,0,0,0-1.17-.74c-2.27-1.2-5.4-2-7.89-1a18.2,18.2,0,0,1-2.73.83,17.85,17.85,0,0,1-2.53-.06,8.89,8.89,0,0,0-5,1.35,13.36,13.36,0,0,0-6.33,1.14c-6.08,2.62-11.74,3.92-17,7.94-.08,0-.15-2.05-.23-2.05h-1.71c-2.72,0-5.38,2.83-7.31,4.75-.09,0-.16.73-.25.7-3.54-1.1-7.44-.35-10.79,1.17a10.32,10.32,0,0,0-5.75,0c-1.13.29-2.27.68-3.41,1a3.35,3.35,0,0,0-1,.67c-.41-.12-.82-.22-1.24-.38a9.81,9.81,0,0,0-7-.12c-1.8.33-3.5,1.67-4.91,1.67H787.85C786.93,335,785.94,334,784.79,332.91Z" transform="translate(-62 -197.6)"/><path class="cls-3" d="M1466.32,779a12.47,12.47,0,0,0-7.28-3.23,11.41,11.41,0,0,0-7.92-3.07,11.74,11.74,0,0,0-8.58,3.88,3.74,3.74,0,0,0-3.64-3.37,3.6,3.6,0,0,0-2,.71,11.4,11.4,0,0,0-11-9.44,10.85,10.85,0,0,0-3.9.78,11.56,11.56,0,0,0,1.34-5.36c0-6.21-4.76-11.24-10.64-11.24a10.32,10.32,0,0,0-7.57,3.35,6.89,6.89,0,0,0-2.63-1.68,4.89,4.89,0,0,0-.64-3.62l-1-1.33a5.88,5.88,0,0,0-3.21-2.46c-.15,0-.31-.05-.46-.08a5.35,5.35,0,0,0-1.45-4.53l-1-1a4.72,4.72,0,0,0-1.5-1,19.39,19.39,0,0,0-2-2,4.46,4.46,0,0,0-.18-1.23c-.86-2.66-3.74-4.67-6.6-3.75l-2.3.75-.06,0a17.35,17.35,0,0,0-2.18-.15c-.22,0-.43,0-.64,0a5,5,0,0,0-3.32-1.15,4.89,4.89,0,0,0-4.93,3.67,18.35,18.35,0,0,0-4.85,4.37,5.41,5.41,0,0,0-.82-.09c-4.31,0-5.94,4.19-4.87,7.33a5,5,0,0,0-3.91,2.1,13.05,13.05,0,0,0-10.17-5c-7.07,0-12.85,5.8-13.34,13.14a5.52,5.52,0,0,0-1.83-.32,5.34,5.34,0,0,0-2.45.57,4.18,4.18,0,0,0-1.93-.67,3.2,3.2,0,0,0-.86-.67l-.9-.46a4,4,0,0,0-2.93-.38l-.24.09a2.94,2.94,0,0,0-.72-.26,5.13,5.13,0,0,0-2.37,0,3.42,3.42,0,0,0-.48-.6l-.45-.46a3.62,3.62,0,0,0-.87-.62,3.69,3.69,0,0,0-1.45-1.56,3.89,3.89,0,0,0-2.93-.39c-.13,0-.25.11-.38.16-.11-.24-.21-.49-.31-.73a3.91,3.91,0,0,0-1.37-1.37,4.67,4.67,0,0,0-2-.83,7.94,7.94,0,0,0-1.37-.13,12,12,0,0,0-14.45.32,2.77,2.77,0,0,0-.3,0,3.89,3.89,0,0,0-1.53.34,3.79,3.79,0,0,0-3.64.42,3.18,3.18,0,0,1-.4.23,3.93,3.93,0,0,0-1.8,1.55s0,.07,0,.11a3.88,3.88,0,0,0-2.59,2.69l-.28.26a3,3,0,0,0-.43-.09,4.15,4.15,0,0,0-1.67-1.05l-2.25-.76a3.87,3.87,0,0,0-2.92.38,2.88,2.88,0,0,0-.35.26,3,3,0,0,0-1.68.54,24,24,0,0,1-3.45,2,3.81,3.81,0,0,0-1.71,2.14,3.19,3.19,0,0,0-2.37,1.74,9.88,9.88,0,0,0-1,3.86,3.88,3.88,0,0,0-1.33.37,4.59,4.59,0,0,0-1.69,0l-2.55.52a3.85,3.85,0,0,0-2.27,1.74,3.34,3.34,0,0,0-.36.93,4,4,0,0,0-.75.88c-.1.06-.21.11-.31.18a17.6,17.6,0,0,0-4.73.77,3.91,3.91,0,0,0-1.21,1.16,2.59,2.59,0,0,0-.48,0,4.28,4.28,0,0,0-2.19.66,4.2,4.2,0,0,0-2.11,1.1,4,4,0,0,0-1,1.94,3.71,3.71,0,0,0-.47-.16l-1-.13a3.74,3.74,0,0,0-1.92.52l-2,.91a3.77,3.77,0,0,0-1.64,2l-.11,0a4,4,0,0,0-3.3-.84,3.67,3.67,0,0,0-2.71.47,3.23,3.23,0,0,0-.44-.27,3.62,3.62,0,0,0-2.92-.38,7.07,7.07,0,0,1-1,.31,5.78,5.78,0,0,1-.93,0,3.38,3.38,0,0,0-1.87.5,5,5,0,0,0-2.35.43c-2.25,1-4.35,1.45-6.3,2.94,0,0-.06-.76-.09-.76h-.63c-1,0-2,1.05-2.71,1.76,0,0-.06.27-.1.26a5.69,5.69,0,0,0-4,.44,3.86,3.86,0,0,0-2.13,0l-1.26.36a1.38,1.38,0,0,0-.38.25c-.15,0-.3-.08-.46-.14a3.61,3.61,0,0,0-2.59-.05c-.66.13-1.3.63-1.82.63h269.2C1467.11,779.81,1466.74,779.41,1466.32,779Z" transform="translate(-62 -197.6)"/><path class="cls-4" d="M1521.92,546.21a12.5,12.5,0,0,0-7.28-3.23,11.41,11.41,0,0,0-7.92-3.07,11.76,11.76,0,0,0-8.59,3.88,3.74,3.74,0,0,0-3.63-3.37,3.57,3.57,0,0,0-2,.71,11.41,11.41,0,0,0-11-9.44,10.85,10.85,0,0,0-3.9.78,11.56,11.56,0,0,0,1.34-5.36c0-6.21-4.76-11.24-10.64-11.24a10.34,10.34,0,0,0-7.58,3.35,6.86,6.86,0,0,0-2.62-1.68,4.94,4.94,0,0,0-.64-3.62c-.33-.44-.67-.88-1-1.33a5.86,5.86,0,0,0-3.2-2.46c-.15,0-.31-.05-.47-.08a5.32,5.32,0,0,0-1.44-4.53c-.33-.34-.66-.67-1-1a5,5,0,0,0-1.5-1,18.51,18.51,0,0,0-2-2,4.46,4.46,0,0,0-.17-1.23c-.87-2.66-3.75-4.67-6.61-3.75l-2.29.75-.06,0a17.48,17.48,0,0,0-2.18-.15c-.22,0-.43,0-.64,0a5,5,0,0,0-3.33-1.15,4.88,4.88,0,0,0-4.92,3.67,18.35,18.35,0,0,0-4.85,4.37,5.41,5.41,0,0,0-.83-.09c-4.31,0-5.93,4.19-4.86,7.33a5,5,0,0,0-3.91,2.1,13.07,13.07,0,0,0-10.17-5c-7.07,0-12.85,5.8-13.35,13.14a5.42,5.42,0,0,0-1.82-.32,5.34,5.34,0,0,0-2.45.57,4.18,4.18,0,0,0-1.93-.67,3.37,3.37,0,0,0-.86-.67l-.91-.46a4,4,0,0,0-2.92-.38c-.08,0-.16.07-.24.09a3.1,3.1,0,0,0-.72-.26,5.17,5.17,0,0,0-2.38,0,3,3,0,0,0-.47-.6l-.45-.46a4.06,4.06,0,0,0-.87-.62,3.84,3.84,0,0,0-1.45-1.57,4,4,0,0,0-2.93-.38c-.13,0-.26.11-.39.16-.1-.24-.2-.49-.31-.73a3.8,3.8,0,0,0-1.36-1.37,4.76,4.76,0,0,0-2-.83,7.83,7.83,0,0,0-1.36-.13,12,12,0,0,0-14.45.32l-.3,0a3.85,3.85,0,0,0-1.53.34,3.78,3.78,0,0,0-3.64.42,3.18,3.18,0,0,1-.4.23,3.88,3.88,0,0,0-1.8,1.55,1.17,1.17,0,0,0,0,.11,3.88,3.88,0,0,0-2.59,2.69c-.09.09-.19.17-.27.26a3.29,3.29,0,0,0-.43-.09,4.25,4.25,0,0,0-1.68-1l-2.24-.76a3.9,3.9,0,0,0-2.93.38,4,4,0,0,0-.35.26,3,3,0,0,0-1.68.54,23.48,23.48,0,0,1-3.45,2,3.79,3.79,0,0,0-1.7,2.14,3.21,3.21,0,0,0-2.38,1.74,10.06,10.06,0,0,0-1,3.86,3.89,3.89,0,0,0-1.32.37,4.59,4.59,0,0,0-1.69,0l-2.56.52a3.88,3.88,0,0,0-2.27,1.74,3.67,3.67,0,0,0-.36.93,3.93,3.93,0,0,0-.74.88l-.32.18a17.62,17.62,0,0,0-4.72.77,3.94,3.94,0,0,0-1.22,1.16,2.52,2.52,0,0,0-.48,0,12.65,12.65,0,0,0-4.3,1.76,4,4,0,0,0-1,1.94,3.71,3.71,0,0,0-.47-.16l-1-.13a3.69,3.69,0,0,0-1.92.52l-2,.91a3.73,3.73,0,0,0-1.64,2l-.11,0a4,4,0,0,0-3.3-.84,3.69,3.69,0,0,0-2.72.47,3.12,3.12,0,0,0-.43-.27,3.64,3.64,0,0,0-2.93-.38,7.34,7.34,0,0,1-1,.31,6,6,0,0,1-.94,0,3.33,3.33,0,0,0-1.86.5,5,5,0,0,0-2.35.43c-2.25,1-4.35,1.45-6.3,2.94,0,0-.06-.76-.09-.76h-.63c-1,0-2,1-2.72,1.76,0,0-.06.27-.09.26a5.68,5.68,0,0,0-4,.44,3.86,3.86,0,0,0-2.13,0c-.42.11-.84.25-1.27.36a1.34,1.34,0,0,0-.37.25c-.15,0-.31-.08-.46-.14a3.61,3.61,0,0,0-2.59,0c-.67.13-1.3.63-1.82.63h269.2C1522.71,547,1522.34,546.6,1521.92,546.21Z" transform="translate(-62 -197.6)"/><path class="cls-5" d="M1823.66,337a24,24,0,0,0-14-6.18,21.9,21.9,0,0,0-15.19-5.89,22.54,22.54,0,0,0-16.47,7.45,7.17,7.17,0,0,0-7-6.48,6.85,6.85,0,0,0-3.86,1.37c-2-10.34-10.7-18.11-21.1-18.11a20.82,20.82,0,0,0-7.48,1.5,22.23,22.23,0,0,0,2.57-10.28c0-11.92-9.14-21.57-20.42-21.57a19.85,19.85,0,0,0-14.52,6.43,13,13,0,0,0-5-3.22c.36-2.34.19-5.05-1.23-6.95l-1.91-2.54c-1.67-2.23-3.36-4-6.15-4.73-.28-.08-.59-.09-.89-.15a10.2,10.2,0,0,0-2.77-8.69L1686.4,257a9.42,9.42,0,0,0-2.89-2,35.6,35.6,0,0,0-3.77-3.8,7.88,7.88,0,0,0-.34-2.36c-1.65-5.12-7.17-9-12.66-7.2l-4.4,1.43-.11.05a32.28,32.28,0,0,0-4.19-.3c-.42,0-.82.06-1.23.08a9.63,9.63,0,0,0-6.37-2.19,9.39,9.39,0,0,0-9.46,7,34.94,34.94,0,0,0-9.29,8.37,11.41,11.41,0,0,0-1.59-.16c-8.27,0-11.38,8-9.33,14.06a9.63,9.63,0,0,0-7.51,4,25,25,0,0,0-19.49-9.64c-13.56,0-24.65,11.13-25.61,25.2a10.59,10.59,0,0,0-3.5-.61,10.21,10.21,0,0,0-4.69,1.1,8.22,8.22,0,0,0-3.71-1.29,6.15,6.15,0,0,0-1.65-1.27l-1.73-.88a7.75,7.75,0,0,0-5.62-.74c-.15,0-.3.13-.46.18a5.06,5.06,0,0,0-1.38-.5,9.89,9.89,0,0,0-4.56-.07,6.89,6.89,0,0,0-.9-1.15l-.87-.87a6.59,6.59,0,0,0-1.67-1.19,7.2,7.2,0,0,0-2.78-3,7.43,7.43,0,0,0-5.61-.73c-.25.08-.5.2-.75.3-.19-.47-.39-.94-.59-1.41a7.41,7.41,0,0,0-2.61-2.61,9,9,0,0,0-3.79-1.6,16.94,16.94,0,0,0-2.62-.25,23,23,0,0,0-27.72.62,5.42,5.42,0,0,0-.58-.06,7.56,7.56,0,0,0-2.93.64,7.32,7.32,0,0,0-7,.81,7.23,7.23,0,0,1-.76.45,7.39,7.39,0,0,0-3.45,3,1.76,1.76,0,0,0-.09.2,7.46,7.46,0,0,0-5,5.18c-.18.16-.36.31-.52.48a5.93,5.93,0,0,0-.84-.16,7.89,7.89,0,0,0-3.21-2l-4.3-1.46a7.38,7.38,0,0,0-5.61.73,7.63,7.63,0,0,0-.67.49,5.88,5.88,0,0,0-3.23,1,44.1,44.1,0,0,1-6.61,3.78,7.26,7.26,0,0,0-3.27,4.11,6.14,6.14,0,0,0-4.56,3.34,19.23,19.23,0,0,0-1.88,7.41,7.51,7.51,0,0,0-2.54.7,8.65,8.65,0,0,0-3.24.07l-4.91,1a7.41,7.41,0,0,0-4.35,3.35,7.5,7.5,0,0,0-.69,1.77,8.27,8.27,0,0,0-1.43,1.69l-.61.35a7.28,7.28,0,0,0-5.21.53,7.36,7.36,0,0,0-3.85,1,7.78,7.78,0,0,0-2.33,2.22,5.52,5.52,0,0,0-.92-.08,8.23,8.23,0,0,0-4.19,1.28,8,8,0,0,0-4.06,2.1,7.7,7.7,0,0,0-2,3.73,4.76,4.76,0,0,0-.9-.3l-1.94-.26a7.2,7.2,0,0,0-3.68,1l-3.91,1.76a7.15,7.15,0,0,0-3.16,3.78l-.2,0a7.68,7.68,0,0,0-6.33-1.61,7,7,0,0,0-5.21.9,6.49,6.49,0,0,0-.83-.53c-1.62-.85-3.84-1.44-5.62-.72a13.15,13.15,0,0,1-1.94.59,13.56,13.56,0,0,1-1.8,0,6.35,6.35,0,0,0-3.58,1,9.67,9.67,0,0,0-4.5.8c-4.32,1.88-8.35,2.8-12.09,5.66-.06,0-.11-1.46-.17-1.46h-1.22c-1.93,0-3.82,2-5.2,3.38-.06,0-.11.52-.18.5a11,11,0,0,0-7.67.83,7.39,7.39,0,0,0-4.09,0c-.81.21-1.61.49-2.42.7a2.23,2.23,0,0,0-.72.47,6.87,6.87,0,0,1-.88-.27,7,7,0,0,0-5-.09c-1.28.24-2.49,1.2-3.5,1.2h516.39C1825.17,338.51,1824.47,337.74,1823.66,337Z" transform="translate(-62 -197.6)"/></svg>