<?xml version="1.0" encoding="UTF-8" ?>
<!DOCTYPE svg PUBLIC "-//W3C//DTD SVG 1.1//EN" "http://www.w3.org/Graphics/SVG/1.1/DTD/svg11.dtd">
<svg width="626pt" height="442pt" viewBox="0 0 626 442" version="1.1" xmlns="http://www.w3.org/2000/svg">
<g id="#dddbbeff">
</g>
<g id="#dcd9b3ff">
</g>
<g id="#356006ff">
<path fill="#356006" opacity="1.00" d=" M 401.88 53.57 C 405.20 48.35 410.66 44.12 417.07 44.02 C 412.35 46.74 407.34 50.82 407.65 56.86 C 435.53 56.80 463.41 57.03 491.28 56.75 C 490.25 55.73 489.18 54.73 488.15 53.73 C 489.68 54.04 491.19 54.47 492.69 54.94 C 493.30 53.58 493.94 52.23 494.59 50.89 C 494.67 52.35 494.76 53.80 494.86 55.25 C 495.78 54.10 496.70 52.95 497.63 51.80 C 497.38 53.47 497.15 55.14 496.92 56.82 C 504.39 56.87 511.86 56.87 519.33 56.85 C 519.33 57.59 519.32 59.07 519.32 59.80 C 388.88 59.65 258.44 59.82 128.01 59.72 C 124.60 59.80 121.17 59.80 117.79 59.30 C 117.73 58.69 117.61 57.47 117.55 56.86 C 123.48 56.83 129.42 56.94 135.35 56.76 C 134.46 55.77 133.56 54.78 132.66 53.81 C 134.03 54.16 135.41 54.55 136.78 54.92 C 137.48 53.44 138.33 52.03 139.37 50.76 C 139.19 52.27 139.01 53.77 138.85 55.28 C 140.09 53.77 141.32 52.23 142.73 50.87 C 141.83 52.75 141.16 54.72 140.82 56.77 C 167.30 56.96 193.79 56.88 220.27 56.81 C 218.32 54.12 214.84 53.97 211.86 53.40 C 215.31 52.15 219.01 52.37 222.44 53.55 C 224.61 50.03 227.82 47.26 231.77 45.94 C 229.64 48.06 227.66 50.36 226.38 53.10 C 229.85 52.72 233.61 52.83 236.54 54.98 C 233.57 55.01 230.45 54.90 227.88 56.66 C 266.79 57.12 305.71 56.80 344.63 56.82 C 343.77 55.81 342.88 54.85 342.01 53.86 C 343.33 54.21 344.66 54.57 345.99 54.93 C 346.75 53.61 347.51 52.30 348.32 51.01 C 348.26 52.09 348.12 54.26 348.05 55.34 C 349.34 53.85 350.55 52.30 351.86 50.82 C 351.20 52.71 350.54 54.60 349.92 56.51 C 351.90 56.84 353.91 56.89 355.93 56.91 C 370.67 56.75 385.42 57.07 400.16 56.73 C 397.85 54.54 394.75 53.86 391.71 53.41 C 395.01 52.06 398.58 52.42 401.88 53.57 Z" />
</g>
<g id="#356000ff">
<path fill="#356000" opacity="1.00" d=" M 75.55 53.61 C 77.70 50.05 80.98 47.35 84.90 45.93 C 82.80 48.04 80.84 50.32 79.58 53.05 C 82.90 52.90 86.58 52.71 89.36 54.88 C 86.47 55.00 83.49 55.11 80.88 56.53 C 84.91 57.30 89.14 56.21 93.06 57.40 C 93.02 58.08 92.94 59.42 92.90 60.09 L 92.86 60.09 C 76.64 59.21 60.37 60.24 44.14 59.52 C 43.66 66.46 43.95 73.42 43.97 80.37 C 43.31 80.34 42.01 80.28 41.36 80.25 C 41.37 72.50 41.40 64.75 41.32 57.00 C 52.04 56.57 62.78 57.10 73.50 56.75 C 71.40 54.13 67.97 53.90 64.91 53.40 C 68.39 52.25 72.13 52.23 75.55 53.61 Z" />
</g>
<g id="#c3c1a6ff">
<path fill="#c3c1a6" opacity="1.00" d=" M 93.06 57.40 C 94.32 57.64 94.62 58.51 93.94 60.01 C 93.17 66.57 93.79 73.21 94.25 79.74 C 96.06 80.22 97.98 79.76 99.78 80.28 C 100.18 81.47 100.18 82.66 99.78 83.85 C 96.87 84.11 93.94 84.02 91.02 83.95 C 72.36 83.36 53.67 83.65 35.00 83.99 C 34.94 82.63 34.88 81.27 34.82 79.91 C 37.00 80.00 39.18 80.12 41.36 80.25 C 42.01 80.28 43.31 80.34 43.97 80.37 L 45.19 80.39 C 47.38 80.42 49.57 80.39 51.76 80.37 C 65.53 80.22 79.30 80.59 93.07 80.26 C 92.97 75.50 93.15 70.75 92.83 66.00 C 92.95 64.28 92.99 62.56 92.82 60.85 L 92.90 60.09 C 92.94 59.42 93.02 58.08 93.06 57.40 Z" />
</g>
<g id="#c3c1acff">
<path fill="#c3c1ac" opacity="1.00" d=" M 537.13 79.94 C 536.82 72.24 537.09 64.52 537.51 56.83 C 537.53 57.57 537.58 59.04 537.60 59.78 L 537.63 61.05 C 537.66 62.62 537.71 64.19 537.80 65.76 C 538.11 70.64 538.10 75.54 537.68 80.42 C 551.52 80.42 565.36 80.32 579.21 80.40 C 579.70 80.41 580.67 80.42 581.16 80.42 L 580.80 80.83 C 580.25 81.43 579.71 82.03 579.18 82.62 C 582.23 82.79 585.28 83.10 588.32 83.50 C 586.22 83.76 584.13 83.94 582.03 83.87 C 565.35 83.27 548.66 84.01 531.99 83.86 C 529.94 84.06 531.02 81.29 530.83 80.15 C 532.93 80.08 535.02 80.01 537.13 79.94 Z" />
<path fill="#c3c1ac" opacity="1.00" d=" M 47.08 339.86 C 48.65 339.84 50.22 339.81 51.79 339.80 C 63.22 339.92 74.66 339.79 86.10 339.90 C 85.35 340.95 84.61 342.01 83.87 343.08 C 71.61 343.21 59.34 343.20 47.09 343.18 C 47.09 342.35 47.08 340.69 47.08 339.86 Z" />
<path fill="#c3c1ac" opacity="1.00" d=" M 543.88 339.88 C 555.61 339.82 567.35 339.88 579.09 339.81 C 580.92 339.84 582.75 339.88 584.59 339.95 C 583.32 341.02 582.01 342.04 580.59 342.91 C 575.10 343.60 569.54 342.94 564.02 343.12 C 557.22 342.89 550.40 343.61 543.62 342.86 C 544.14 342.60 545.16 342.09 545.67 341.83 C 545.07 341.17 544.47 340.52 543.88 339.88 Z" />
</g>
<g id="#356200ff">
<path fill="#356200" opacity="1.00" d=" M 537.51 56.83 C 554.79 56.88 572.08 56.90 589.36 56.80 C 589.44 64.64 589.32 72.48 589.38 80.32 C 588.79 80.35 587.60 80.42 587.00 80.45 C 586.86 73.60 587.01 66.75 586.92 59.89 C 570.49 59.38 554.04 59.68 537.60 59.78 C 537.58 59.04 537.53 57.57 537.51 56.83 Z" />
</g>
<g id="#223b02ff">
<path fill="#223b02" opacity="1.00" d=" M 44.14 59.52 C 60.37 60.24 76.64 59.21 92.86 60.09 L 92.90 60.09 L 92.82 60.85 L 92.18 60.84 C 76.54 61.34 60.88 60.80 45.24 61.13 C 45.22 67.55 45.29 73.97 45.19 80.39 L 43.97 80.37 C 43.95 73.42 43.66 66.46 44.14 59.52 Z" />
</g>
<g id="#233b01ff">
<path fill="#233b01" opacity="1.00" d=" M 117.79 59.30 C 121.17 59.80 124.60 59.80 128.01 59.72 C 258.44 59.82 388.88 59.65 519.32 59.80 L 519.34 61.03 C 385.45 61.13 251.57 61.00 117.69 61.10 C 117.71 60.65 117.76 59.75 117.79 59.30 Z" />
</g>
<g id="#233d02ff">
<path fill="#233d02" opacity="1.00" d=" M 537.60 59.78 C 554.04 59.68 570.49 59.38 586.92 59.89 C 587.01 66.75 586.86 73.60 587.00 80.45 L 585.64 80.45 C 585.53 74.03 585.57 67.61 585.63 61.19 C 569.64 60.90 553.63 61.12 537.63 61.05 L 537.60 59.78 Z" />
</g>
<g id="#6a8900ff">
<path fill="#6a8900" opacity="1.00" d=" M 45.24 61.13 C 60.88 60.80 76.54 61.34 92.18 60.84 L 92.82 60.85 C 92.99 62.56 92.95 64.28 92.83 66.00 C 79.15 65.50 65.45 65.63 51.77 65.84 C 51.56 70.68 51.56 75.53 51.76 80.37 C 49.57 80.39 47.38 80.42 45.19 80.39 C 45.29 73.97 45.22 67.55 45.24 61.13 Z" />
</g>
<g id="#6c8900ff">
<path fill="#6c8900" opacity="1.00" d=" M 117.69 61.10 C 251.57 61.00 385.45 61.13 519.34 61.03 C 519.33 62.63 519.32 64.23 519.32 65.82 C 486.88 65.46 454.43 65.81 421.99 65.70 C 320.55 65.78 219.11 65.53 117.68 65.81 C 117.68 64.24 117.69 62.67 117.69 61.10 Z" />
</g>
<g id="#6b8900ff">
<path fill="#6b8900" opacity="1.00" d=" M 537.63 61.05 C 553.63 61.12 569.64 60.90 585.63 61.19 C 585.57 67.61 585.53 74.03 585.64 80.45 C 584.14 80.44 582.65 80.44 581.16 80.42 C 580.67 80.42 579.70 80.41 579.21 80.40 C 579.33 75.55 579.35 70.70 579.22 65.85 C 565.42 65.47 551.60 65.75 537.80 65.76 C 537.71 64.19 537.66 62.62 537.63 61.05 Z" />
</g>
<g id="#7d9f00ff">
<path fill="#7d9f00" opacity="1.00" d=" M 51.77 65.84 C 65.45 65.63 79.15 65.50 92.83 66.00 C 93.15 70.75 92.97 75.50 93.07 80.26 C 79.30 80.59 65.53 80.22 51.76 80.37 C 51.56 75.53 51.56 70.68 51.77 65.84 Z" />
</g>
<g id="#7c9f00ff">
<path fill="#7c9f00" opacity="1.00" d=" M 117.68 65.81 C 219.11 65.53 320.55 65.78 421.99 65.70 C 454.43 65.81 486.88 65.46 519.32 65.82 C 519.31 70.68 519.42 75.54 519.20 80.40 C 492.94 80.47 466.67 80.22 440.42 80.51 C 336.95 80.18 233.48 80.48 130.01 80.45 C 126.02 80.45 122.03 80.54 118.04 80.35 C 117.16 75.64 117.94 70.63 117.68 65.81 Z" />
<path fill="#7c9f00" opacity="1.00" d=" M 537.80 65.76 C 551.60 65.75 565.42 65.47 579.22 65.85 C 579.35 70.70 579.33 75.55 579.21 80.40 C 565.36 80.32 551.52 80.42 537.68 80.42 C 538.10 75.54 538.11 70.64 537.80 65.76 Z" />
</g>
<g id="#dedcc4ff">
<path fill="#dedcc4" opacity="1.00" d=" M 155.51 239.99 C 155.86 239.99 156.57 240.00 156.92 240.00 C 158.80 241.05 160.64 242.20 162.66 243.00 C 162.68 245.24 162.69 247.48 162.70 249.72 C 160.28 249.71 157.85 249.68 155.43 249.67 C 155.50 246.44 155.51 243.22 155.51 239.99 Z" />
</g>
<g id="#c3c2acff">
<path fill="#c3c2ac" opacity="1.00" d=" M 112.51 80.19 C 114.35 80.23 116.20 80.27 118.04 80.35 C 122.03 80.54 126.02 80.45 130.01 80.45 C 233.48 80.48 336.95 80.18 440.42 80.51 C 436.28 81.15 432.12 81.60 428.00 82.28 C 429.41 82.76 430.82 83.23 432.26 83.64 C 422.85 83.98 413.43 83.67 404.02 83.73 C 347.03 83.67 290.04 83.58 233.06 83.76 C 193.10 83.56 153.15 84.38 113.19 83.91 C 112.96 82.67 112.73 81.43 112.51 80.19 Z" />
</g>
<g id="#c1bf99ff">
<path fill="#c1bf99" opacity="1.00" d=" M 440.42 80.51 C 466.67 80.22 492.94 80.47 519.20 80.40 C 520.69 80.43 522.19 80.31 523.69 80.23 C 523.78 81.46 523.88 82.70 523.98 83.93 C 493.42 83.70 462.84 83.76 432.26 83.64 C 430.82 83.23 429.41 82.76 428.00 82.28 C 432.12 81.60 436.28 81.15 440.42 80.51 Z" />
</g>
<g id="#c2bd96ff">
<path fill="#c2bd96" opacity="1.00" d=" M 580.80 80.83 C 585.84 80.84 590.86 80.30 595.90 80.09 C 595.87 81.34 595.85 82.59 595.84 83.85 C 593.32 83.82 590.81 83.80 588.32 83.50 C 585.28 83.10 582.23 82.79 579.18 82.62 C 579.71 82.03 580.25 81.43 580.80 80.83 Z" />
</g>
<g id="#474748ff">
<path fill="#474748" opacity="1.00" d=" M 184.37 114.35 C 186.93 109.29 192.89 107.15 198.21 106.55 C 204.84 105.98 212.56 107.43 216.75 113.07 C 218.60 115.31 218.09 118.27 217.41 120.84 C 206.45 120.87 195.49 120.78 184.53 120.82 C 183.93 118.72 183.17 116.41 184.37 114.35 M 192.99 109.93 L 192.62 109.75 C 190.40 111.65 189.33 114.42 189.96 117.32 L 190.69 117.19 C 192.53 119.27 195.48 118.86 197.99 118.97 C 202.38 118.85 206.79 119.17 211.17 118.69 C 212.74 118.65 213.78 117.33 214.96 116.49 C 214.92 113.38 213.35 110.81 210.85 109.07 C 205.23 106.65 198.12 106.07 192.99 109.93 Z" />
</g>
<g id="#c4c4c6ff">
<path fill="#c4c4c6" opacity="1.00" d=" M 192.99 109.93 C 198.12 106.07 205.23 106.65 210.85 109.07 C 209.01 112.23 205.22 111.10 202.26 110.85 C 199.16 110.31 195.76 111.95 192.99 109.93 Z" />
</g>
<g id="#b3b3b3ff">
<path fill="#b3b3b3" opacity="1.00" d=" M 210.85 109.07 C 213.35 110.81 214.92 113.38 214.96 116.49 C 206.86 116.11 198.69 115.30 190.69 117.19 L 189.96 117.32 C 189.33 114.42 190.40 111.65 192.62 109.75 L 192.99 109.93 C 195.76 111.95 199.16 110.31 202.26 110.85 C 205.22 111.10 209.01 112.23 210.85 109.07 Z" />
</g>
<g id="#474747ff">
<path fill="#474747" opacity="1.00" d=" M 447.39 114.39 C 451.45 109.48 458.59 109.63 464.28 110.84 C 468.65 111.80 472.52 116.35 470.27 120.88 C 462.45 120.84 454.63 120.81 446.82 120.87 C 446.30 118.73 445.64 116.20 447.39 114.39 M 451.31 113.72 L 450.71 113.71 C 450.58 115.43 450.14 118.03 452.41 118.56 C 457.08 119.07 461.88 119.09 466.55 118.54 C 468.87 118.33 468.40 115.78 468.33 114.15 L 467.97 114.17 C 466.72 112.60 465.08 111.22 463.02 111.00 C 459.00 110.48 454.19 110.31 451.31 113.72 Z" />
</g>
<g id="#454641ff">
<path fill="#454641" opacity="1.00" d=" M 60.56 112.38 C 65.92 110.41 73.05 110.40 77.17 114.87 C 78.90 116.53 78.35 118.90 77.58 120.86 C 70.67 120.93 63.76 120.90 56.85 120.85 C 54.87 117.46 57.39 113.82 60.56 112.38 M 60.16 115.34 L 59.98 115.31 C 60.00 116.01 60.03 117.40 60.04 118.10 C 63.84 119.64 68.02 119.21 72.02 119.14 C 74.01 119.09 76.86 118.59 76.43 115.95 C 73.42 110.19 63.65 109.95 60.16 115.34 Z" />
</g>
<g id="#c4c4c4ff">
<path fill="#c4c4c4" opacity="1.00" d=" M 451.31 113.72 C 454.19 110.31 459.00 110.48 463.02 111.00 C 465.08 111.22 466.72 112.60 467.97 114.17 C 462.41 114.58 456.86 113.73 451.31 113.72 Z" />
</g>
<g id="#bcbcbcff">
<path fill="#bcbcbc" opacity="1.00" d=" M 60.16 115.34 C 63.65 109.95 73.42 110.19 76.43 115.95 C 71.00 115.73 65.51 116.59 60.16 115.34 Z" />
</g>
<g id="#444444ff">
<path fill="#444444" opacity="1.00" d=" M 427.41 115.47 C 431.02 112.19 436.28 112.75 440.76 113.15 C 442.97 115.21 445.02 117.61 444.42 120.87 C 438.29 120.85 432.17 120.88 426.05 120.82 C 426.22 118.99 425.77 116.77 427.41 115.47 M 429.28 116.43 L 429.10 116.42 C 429.13 117.03 429.20 118.24 429.23 118.85 C 433.06 119.92 437.10 119.71 441.01 119.36 C 442.25 119.37 442.57 117.92 443.26 117.18 L 442.70 117.12 C 441.93 115.85 441.15 114.59 440.36 113.33 C 436.52 113.10 431.53 112.46 429.28 116.43 Z" />
</g>
<g id="#adadadff">
<path fill="#adadad" opacity="1.00" d=" M 451.31 113.72 C 456.86 113.73 462.41 114.58 467.97 114.17 L 468.33 114.15 C 468.40 115.78 468.87 118.33 466.55 118.54 C 461.88 119.09 457.08 119.07 452.41 118.56 C 450.14 118.03 450.58 115.43 450.71 113.71 L 451.31 113.72 Z" />
</g>
<g id="#bdbdbdff">
<path fill="#bdbdbd" opacity="1.00" d=" M 429.28 116.43 C 431.53 112.46 436.52 113.10 440.36 113.33 C 441.15 114.59 441.93 115.85 442.70 117.12 C 438.25 116.47 433.75 116.79 429.28 116.43 Z" />
</g>
<g id="#a8a8a8ff">
<path fill="#a8a8a8" opacity="1.00" d=" M 59.98 115.31 L 60.16 115.34 C 65.51 116.59 71.00 115.73 76.43 115.95 C 76.86 118.59 74.01 119.09 72.02 119.14 C 68.02 119.21 63.84 119.64 60.04 118.10 C 60.03 117.40 60.00 116.01 59.98 115.31 Z" />
</g>
<g id="#a2a2a2ff">
<path fill="#a2a2a2" opacity="1.00" d=" M 190.69 117.19 C 198.69 115.30 206.86 116.11 214.96 116.49 C 213.78 117.33 212.74 118.65 211.17 118.69 C 206.79 119.17 202.38 118.85 197.99 118.97 C 195.48 118.86 192.53 119.27 190.69 117.19 Z" />
</g>
<g id="#a7a6a7ff">
<path fill="#a7a6a7" opacity="1.00" d=" M 429.10 116.42 L 429.28 116.43 C 433.75 116.79 438.25 116.47 442.70 117.12 L 443.26 117.18 C 442.57 117.92 442.25 119.37 441.01 119.36 C 437.10 119.71 433.06 119.92 429.23 118.85 C 429.20 118.24 429.13 117.03 429.10 116.42 Z" />
</g>
<g id="#814b1bff">
<path fill="#814b1b" opacity="1.00" d=" M 41.33 121.03 C 46.49 120.55 51.67 120.83 56.85 120.85 C 63.76 120.90 70.67 120.93 77.58 120.86 C 82.77 120.73 87.97 120.78 93.16 120.78 C 93.17 121.53 93.17 123.03 93.17 123.78 C 76.79 123.55 60.40 123.63 44.02 123.74 C 43.88 130.59 43.84 137.45 43.93 144.31 C 43.28 144.29 41.99 144.24 41.35 144.22 C 41.37 136.49 41.42 128.76 41.33 121.03 Z" />
<path fill="#814b1b" opacity="1.00" d=" M 151.69 305.10 C 152.64 305.07 154.53 305.02 155.47 304.99 C 155.51 308.76 155.52 312.54 155.46 316.32 C 154.53 316.32 152.66 316.32 151.72 316.32 C 151.68 312.58 151.69 308.84 151.69 305.10 Z" />
</g>
<g id="#c2be98ff">
<path fill="#c2be98" opacity="1.00" d=" M 117.22 143.89 C 117.68 136.18 117.05 128.46 117.57 120.76 C 117.61 121.51 117.69 122.99 117.73 123.73 L 117.77 125.02 C 117.81 126.71 117.81 128.41 117.81 130.10 C 117.81 134.81 117.85 139.53 117.95 144.24 C 141.19 144.58 164.45 144.05 187.68 144.48 C 194.26 145.78 200.97 144.95 207.62 145.27 C 207.75 145.86 208.01 147.04 208.15 147.63 C 176.50 147.54 144.85 147.78 113.20 147.65 C 113.17 146.57 113.15 145.49 113.12 144.41 C 114.49 144.23 115.85 144.06 117.22 143.89 Z" />
<path fill="#c2be98" opacity="1.00" d=" M 440.40 273.38 C 466.72 273.08 493.04 273.39 519.36 273.23 C 520.85 273.22 522.34 273.25 523.84 273.28 C 523.81 274.42 523.79 275.55 523.77 276.69 C 496.17 276.55 468.57 276.67 440.97 276.59 C 436.89 276.54 432.78 276.93 428.73 276.28 C 432.53 276.01 436.34 275.78 440.14 275.41 C 432.08 274.31 423.93 275.40 415.87 274.47 C 424.03 273.54 432.32 275.10 440.40 273.38 Z" />
</g>
<g id="#804b19ff">
<path fill="#804b19" opacity="1.00" d=" M 117.57 120.76 C 139.89 120.85 162.21 120.74 184.53 120.82 C 195.49 120.78 206.45 120.87 217.41 120.84 C 286.96 120.75 356.50 120.80 426.05 120.82 C 432.17 120.88 438.29 120.85 444.42 120.87 C 445.02 120.87 446.22 120.87 446.82 120.87 C 454.63 120.81 462.45 120.84 470.27 120.88 C 486.64 120.58 503.02 121.08 519.39 120.61 C 519.38 121.40 519.34 122.97 519.32 123.75 C 434.55 123.54 349.78 123.71 265.01 123.66 C 215.91 123.69 166.82 123.57 117.73 123.73 C 117.69 122.99 117.61 121.51 117.57 120.76 Z" />
</g>
<g id="#804a1cff">
<path fill="#804a1c" opacity="1.00" d=" M 537.67 120.80 C 554.90 120.80 572.12 120.74 589.35 120.81 C 589.41 128.65 589.41 136.50 589.36 144.34 C 588.78 144.24 587.62 144.03 587.04 143.92 C 586.66 137.23 586.92 130.52 586.81 123.81 C 570.41 123.41 553.99 123.74 537.58 123.69 C 537.61 122.97 537.65 121.52 537.67 120.80 Z" />
</g>
<g id="#4e1f08ff">
<path fill="#4e1f08" opacity="1.00" d=" M 44.02 123.74 C 60.40 123.63 76.79 123.55 93.17 123.78 L 93.17 125.03 C 77.18 125.11 61.18 124.90 45.19 125.10 C 45.28 131.51 45.29 137.92 45.21 144.32 L 43.93 144.31 C 43.84 137.45 43.88 130.59 44.02 123.74 Z" />
</g>
<g id="#4d210bff">
<path fill="#4d210b" opacity="1.00" d=" M 117.73 123.73 C 166.82 123.57 215.91 123.69 265.01 123.66 C 349.78 123.71 434.55 123.54 519.32 123.75 L 519.26 125.08 C 385.43 124.93 251.60 125.04 117.77 125.02 L 117.73 123.73 Z" />
</g>
<g id="#502207ff">
<path fill="#502207" opacity="1.00" d=" M 537.58 123.69 C 553.99 123.74 570.41 123.41 586.81 123.81 C 586.92 130.52 586.66 137.23 587.04 143.92 L 585.73 143.66 C 585.35 137.50 585.60 131.32 585.63 125.14 C 569.62 124.81 553.60 125.11 537.59 125.05 L 537.58 123.69 Z" />
</g>
<g id="#9a6233ff">
<path fill="#9a6233" opacity="1.00" d=" M 45.19 125.10 C 61.18 124.90 77.18 125.11 93.17 125.03 C 93.18 126.65 93.18 128.27 93.18 129.89 C 79.38 129.75 65.58 129.77 51.79 129.86 C 51.56 134.65 51.58 139.46 51.80 144.26 C 49.60 144.28 47.40 144.33 45.21 144.32 C 45.29 137.92 45.28 131.51 45.19 125.10 Z" />
<path fill="#9a6233" opacity="1.00" d=" M 117.77 125.02 C 251.60 125.04 385.43 124.93 519.26 125.08 C 519.32 126.75 519.41 128.42 519.60 130.08 C 441.07 129.76 362.54 130.05 284.02 129.94 C 235.00 129.93 185.99 129.94 136.98 129.96 C 130.78 129.93 124.58 129.81 118.39 130.26 L 117.81 130.10 C 117.81 128.41 117.81 126.71 117.77 125.02 Z" />
<path fill="#9a6233" opacity="1.00" d=" M 537.59 125.05 C 553.60 125.11 569.62 124.81 585.63 125.14 C 585.60 131.32 585.35 137.50 585.73 143.66 L 587.04 143.92 C 587.62 144.03 588.78 144.24 589.36 144.34 C 585.91 144.51 582.47 144.34 579.03 144.26 C 579.33 139.49 579.36 134.71 579.09 129.94 C 571.07 129.60 563.04 129.86 555.02 129.82 C 549.24 129.85 543.44 129.49 537.69 130.20 C 537.60 128.48 537.63 126.77 537.59 125.05 Z" />
</g>
<g id="#b67d50ff">
<path fill="#b67d50" opacity="1.00" d=" M 51.79 129.86 C 65.58 129.77 79.38 129.75 93.18 129.89 C 93.17 134.64 93.17 139.39 93.18 144.14 C 79.39 144.53 65.59 144.16 51.80 144.26 C 51.58 139.46 51.56 134.65 51.79 129.86 Z" />
<path fill="#b67d50" opacity="1.00" d=" M 117.81 130.10 L 118.39 130.26 C 122.07 131.76 126.09 131.35 129.97 131.34 C 254.29 131.35 378.61 131.36 502.94 131.34 C 508.30 131.27 513.72 131.72 519.05 130.86 C 519.26 135.42 519.44 140.00 518.95 144.55 C 437.96 144.34 356.97 144.22 275.98 144.30 C 246.55 144.37 217.11 144.16 187.68 144.48 C 164.45 144.05 141.19 144.58 117.95 144.24 C 117.85 139.53 117.81 134.81 117.81 130.10 Z" />
<path fill="#b67d50" opacity="1.00" d=" M 537.69 130.20 C 543.44 129.49 549.24 129.85 555.02 129.82 C 563.04 129.86 571.07 129.60 579.09 129.94 C 579.36 134.71 579.33 139.49 579.03 144.26 C 565.24 144.21 551.45 144.34 537.66 144.32 C 538.05 139.62 538.19 134.89 537.69 130.20 Z" />
</g>
<g id="#ca9263ff">
<path fill="#ca9263" opacity="1.00" d=" M 118.39 130.26 C 124.58 129.81 130.78 129.93 136.98 129.96 C 185.99 129.94 235.00 129.93 284.02 129.94 C 362.54 130.05 441.07 129.76 519.60 130.08 L 519.05 130.86 C 513.72 131.72 508.30 131.27 502.94 131.34 C 378.61 131.36 254.29 131.35 129.97 131.34 C 126.09 131.35 122.07 131.76 118.39 130.26 Z" />
</g>
<g id="#c4c0a6ff">
<path fill="#c4c0a6" opacity="1.00" d=" M 537.12 144.06 C 537.41 139.49 536.09 134.52 537.69 130.20 C 538.19 134.89 538.05 139.62 537.66 144.32 C 551.45 144.34 565.24 144.21 579.03 144.26 C 582.47 144.34 585.91 144.51 589.36 144.34 C 591.59 144.19 593.83 144.04 596.08 143.99 C 596.02 145.28 595.96 146.57 595.90 147.86 C 574.24 147.57 552.57 147.58 530.90 147.84 C 530.93 146.45 531.09 145.08 531.46 143.74 C 533.34 143.85 535.23 143.96 537.12 144.06 Z" />
<path fill="#c4c0a6" opacity="1.00" d=" M 34.89 143.98 C 37.04 144.05 39.19 144.13 41.35 144.22 C 41.99 144.24 43.28 144.29 43.93 144.31 L 45.21 144.32 C 47.40 144.33 49.60 144.28 51.80 144.26 C 65.59 144.16 79.39 144.53 93.18 144.14 C 95.43 144.02 97.69 143.93 99.96 143.85 C 100.06 144.75 100.26 146.57 100.36 147.47 C 96.15 148.09 91.89 148.08 87.65 147.89 C 70.78 147.32 53.89 147.79 37.02 147.83 C 34.42 148.49 34.86 145.62 34.89 143.98 Z" />
</g>
<g id="#c3c0aaff">
<path fill="#c3c0aa" opacity="1.00" d=" M 519.05 130.86 C 519.70 131.84 520.00 132.92 519.95 134.11 C 519.62 137.35 519.50 140.61 519.83 143.85 C 521.20 143.95 522.57 144.06 523.94 144.17 C 524.03 145.00 524.21 146.66 524.29 147.50 C 510.55 148.28 496.77 147.76 483.02 147.90 C 391.39 147.42 299.77 147.76 208.15 147.63 C 208.01 147.04 207.75 145.86 207.62 145.27 C 200.97 144.95 194.26 145.78 187.68 144.48 C 217.11 144.16 246.55 144.37 275.98 144.30 C 356.97 144.22 437.96 144.34 518.95 144.55 C 519.44 140.00 519.26 135.42 519.05 130.86 Z" />
</g>
<g id="#d09400ff">
<path fill="#d09400" opacity="1.00" d=" M 163.51 166.16 C 166.80 170.68 168.54 176.13 169.25 181.63 C 172.52 177.22 176.34 172.80 181.79 171.15 C 177.85 173.74 174.66 177.26 172.45 181.43 C 178.71 179.43 185.47 178.47 191.85 180.48 C 186.00 179.61 179.78 180.55 174.68 183.64 C 217.90 183.67 261.11 183.70 304.33 183.62 C 301.65 180.66 297.96 178.86 294.04 178.30 C 298.42 177.92 302.40 179.88 306.05 182.07 C 305.98 178.60 305.01 175.27 304.17 171.93 C 305.94 174.81 307.17 177.98 307.94 181.27 C 310.64 178.13 313.78 175.29 317.86 174.12 C 315.02 175.93 312.25 178.01 310.71 181.10 C 315.07 180.13 319.56 179.71 324.00 180.46 C 319.86 181.11 315.38 181.18 311.79 183.59 C 367.59 183.73 423.40 183.66 479.20 183.62 C 476.98 180.44 473.19 178.75 469.47 178.06 C 469.49 177.93 469.51 177.66 469.52 177.53 C 473.57 178.04 477.34 179.65 480.86 181.67 C 480.87 177.94 479.71 174.39 478.27 171.00 C 480.11 173.47 481.43 176.26 482.53 179.13 C 483.34 176.64 484.30 174.19 485.66 171.94 C 485.08 174.94 484.10 177.90 484.31 181.01 C 485.70 176.42 488.25 172.20 491.97 169.13 C 488.74 173.38 486.71 178.38 486.05 183.68 C 497.14 183.66 508.23 183.62 519.33 183.70 C 519.34 184.43 519.36 185.91 519.37 186.65 C 385.48 186.58 251.58 186.52 117.69 186.67 C 117.66 185.94 117.60 184.49 117.58 183.76 C 133.73 183.50 149.89 183.76 166.04 183.64 C 163.20 181.05 159.90 178.86 156.02 178.30 C 160.18 177.86 163.81 180.08 167.40 181.82 C 167.10 176.41 165.94 171.04 163.51 166.16 Z" />
<path fill="#d09400" opacity="1.00" d=" M 52.29 172.01 C 54.18 174.98 54.97 178.43 55.70 181.82 C 58.10 179.19 60.56 176.51 63.83 174.94 C 61.70 177.03 59.68 179.24 58.05 181.75 C 62.54 180.95 67.25 179.92 71.70 181.52 C 67.65 181.10 63.33 181.31 59.84 183.63 C 70.92 183.76 82.00 183.55 93.07 183.75 C 93.10 184.49 93.15 185.97 93.18 186.71 C 76.93 187.51 60.62 187.26 44.34 187.27 C 44.48 193.93 44.43 200.59 44.40 207.25 C 43.64 207.21 42.10 207.12 41.34 207.07 C 41.36 199.38 41.48 191.68 41.34 183.98 C 45.26 183.46 49.20 183.69 53.14 183.66 C 51.52 182.29 49.73 181.14 47.95 180.00 C 50.14 180.49 52.24 181.29 54.29 182.19 C 54.05 178.72 53.32 175.32 52.29 172.01 Z" />
<path fill="#d09400" opacity="1.00" d=" M 537.87 183.75 C 555.02 183.61 572.18 183.63 589.33 183.72 C 589.44 191.51 589.39 199.31 589.33 207.10 C 588.60 207.13 587.13 207.20 586.39 207.23 C 586.40 201.15 586.59 195.06 586.41 188.99 C 586.80 186.81 584.24 187.41 582.98 187.26 C 567.82 187.00 552.61 187.98 537.49 186.72 C 537.58 185.97 537.77 184.49 537.87 183.75 Z" />
<path fill="#d09400" opacity="1.00" d=" M 63.46 362.28 C 64.97 361.08 66.55 363.78 64.97 364.69 C 63.46 365.79 62.01 363.22 63.46 362.28 Z" />
</g>
<g id="#c4c1a6ff">
<path fill="#c4c1a6" opacity="1.00" d=" M 116.98 206.81 C 117.06 199.13 117.14 191.43 117.58 183.76 C 117.60 184.49 117.66 185.94 117.69 186.67 L 117.74 188.05 C 117.78 189.72 117.81 191.39 117.88 193.07 L 117.92 194.10 C 118.06 198.47 117.99 202.84 117.96 207.22 C 213.33 207.23 308.70 207.08 404.07 207.16 C 410.58 207.20 417.11 207.03 423.62 207.30 C 426.15 207.62 428.69 207.94 431.20 208.43 C 431.60 208.79 432.38 209.50 432.78 209.85 C 429.91 210.40 426.98 210.49 424.07 210.40 C 357.73 210.24 291.38 210.21 225.03 210.37 C 187.76 210.96 150.48 210.49 113.21 210.78 C 113.12 209.52 113.04 208.26 112.96 207.01 C 114.30 206.94 115.64 206.87 116.98 206.81 Z" />
<path fill="#c4c1a6" opacity="1.00" d=" M 537.06 206.55 C 537.52 199.95 536.92 193.31 537.49 186.72 C 537.61 188.82 537.71 190.93 537.82 193.04 C 544.19 193.98 550.65 193.53 557.06 193.57 C 564.32 193.53 571.60 193.89 578.85 193.28 C 578.59 197.90 578.53 202.53 578.61 207.16 C 581.20 207.20 583.79 207.26 586.39 207.23 C 587.13 207.20 588.60 207.13 589.33 207.10 C 591.73 206.91 594.18 206.79 596.51 207.56 C 596.33 208.34 595.98 209.89 595.81 210.67 C 580.93 210.66 566.06 210.50 551.18 210.67 C 544.39 210.61 537.60 210.76 530.81 210.70 C 530.89 209.55 531.00 208.40 531.16 207.25 C 533.10 206.88 535.08 206.74 537.06 206.55 M 537.80 193.55 C 537.67 198.10 537.68 202.65 537.81 207.20 C 551.12 207.13 564.43 207.21 577.74 207.07 C 578.16 202.69 578.30 198.29 578.25 193.90 C 564.78 193.87 551.25 194.48 537.80 193.55 Z" />
</g>
<g id="#59443fff">
<path fill="#59443f" opacity="1.00" d=" M 44.34 187.27 C 60.62 187.26 76.93 187.51 93.18 186.71 C 93.19 188.90 93.16 191.09 93.15 193.28 C 79.51 193.22 65.87 193.15 52.24 193.32 C 52.06 197.84 52.41 202.39 51.88 206.89 C 49.41 207.30 46.90 207.31 44.40 207.25 C 44.43 200.59 44.48 193.93 44.34 187.27 Z" />
</g>
<g id="#833a07ff">
<path fill="#833a07" opacity="1.00" d=" M 117.69 186.67 C 251.58 186.52 385.48 186.58 519.37 186.65 L 519.27 188.04 C 385.43 188.00 251.58 188.00 117.74 188.05 L 117.69 186.67 Z" />
</g>
<g id="#57453fff">
<path fill="#57453f" opacity="1.00" d=" M 537.49 186.72 C 552.61 187.98 567.82 187.00 582.98 187.26 C 584.24 187.41 586.80 186.81 586.41 188.99 C 586.59 195.06 586.40 201.15 586.39 207.23 C 583.79 207.26 581.20 207.20 578.61 207.16 C 578.53 202.53 578.59 197.90 578.85 193.28 C 571.60 193.89 564.32 193.53 557.06 193.57 C 550.65 193.53 544.19 193.98 537.82 193.04 C 537.71 190.93 537.61 188.82 537.49 186.72 Z" />
<path fill="#57453f" opacity="1.00" d=" M 117.74 188.05 C 251.58 188.00 385.43 188.00 519.27 188.04 C 519.32 189.77 519.40 191.50 519.60 193.23 C 503.74 192.68 487.86 193.14 471.99 192.98 C 353.96 193.04 235.91 192.87 117.88 193.07 C 117.81 191.39 117.78 189.72 117.74 188.05 Z" />
</g>
<g id="#c4c1a7ff">
<path fill="#c4c1a7" opacity="1.00" d=" M 52.24 193.32 C 65.87 193.15 79.51 193.22 93.15 193.28 L 93.15 193.81 C 79.67 193.68 66.20 193.60 52.72 193.85 C 52.62 198.28 52.61 202.70 52.60 207.13 C 66.12 207.05 79.65 207.32 93.17 207.09 C 95.47 207.01 97.77 206.94 100.07 206.89 C 100.03 208.17 100.00 209.46 99.97 210.75 C 87.88 210.69 75.79 210.55 63.70 210.67 C 54.21 210.61 44.73 210.54 35.25 210.76 C 35.03 209.96 34.59 208.35 34.37 207.55 C 36.63 206.81 39.00 206.84 41.34 207.07 C 42.10 207.12 43.64 207.21 44.40 207.25 C 46.90 207.31 49.41 207.30 51.88 206.89 C 52.41 202.39 52.06 197.84 52.24 193.32 Z" />
</g>
<g id="#9c8478ff">
<path fill="#9c8478" opacity="1.00" d=" M 117.88 193.07 C 235.91 192.87 353.96 193.04 471.99 192.98 C 487.86 193.14 503.74 192.68 519.60 193.23 L 519.02 193.67 C 517.04 194.11 515.01 194.26 513.00 194.27 C 381.31 194.07 249.61 194.42 117.92 194.10 L 117.88 193.07 Z" />
</g>
<g id="#7a6256ff">
<path fill="#7a6256" opacity="1.00" d=" M 52.72 193.85 C 66.20 193.60 79.67 193.68 93.15 193.81 C 93.13 198.24 93.14 202.66 93.17 207.09 C 79.65 207.32 66.12 207.05 52.60 207.13 C 52.61 202.70 52.62 198.28 52.72 193.85 Z" />
<path fill="#7a6256" opacity="1.00" d=" M 117.92 194.10 C 249.61 194.42 381.31 194.07 513.00 194.27 C 515.01 194.26 517.04 194.11 519.02 193.67 C 518.95 198.17 518.98 202.68 519.31 207.18 C 487.42 207.30 455.51 206.93 423.62 207.30 C 417.11 207.03 410.58 207.20 404.07 207.16 C 308.70 207.08 213.33 207.23 117.96 207.22 C 117.99 202.84 118.06 198.47 117.92 194.10 Z" />
<path fill="#7a6256" opacity="1.00" d=" M 537.80 193.55 C 551.25 194.48 564.78 193.87 578.25 193.90 C 578.30 198.29 578.16 202.69 577.74 207.07 C 564.43 207.21 551.12 207.13 537.81 207.20 C 537.68 202.65 537.67 198.10 537.80 193.55 Z" />
<path fill="#7a6256" opacity="1.00" d=" M 51.72 325.71 C 65.47 325.58 79.23 325.46 92.97 325.81 C 93.18 330.42 93.14 335.03 93.17 339.65 C 90.81 339.74 88.45 339.87 86.10 339.90 C 74.66 339.79 63.22 339.92 51.79 339.80 C 51.54 335.11 51.53 330.40 51.72 325.71 Z" />
<path fill="#7a6256" opacity="1.00" d=" M 537.71 325.83 C 551.51 325.35 565.32 325.66 579.13 325.67 C 579.25 330.38 579.24 335.09 579.09 339.81 C 567.35 339.88 555.61 339.82 543.88 339.88 C 541.79 339.87 539.71 339.84 537.64 339.82 C 537.58 335.15 537.57 330.49 537.71 325.83 Z" />
<path fill="#7a6256" opacity="1.00" d=" M 117.93 326.97 C 195.28 327.10 272.64 326.96 350.00 327.04 C 406.34 326.96 462.67 327.13 519.00 326.92 C 518.97 331.23 519.01 335.55 519.13 339.87 C 498.22 340.00 477.30 339.57 456.40 340.10 C 434.25 339.62 412.09 339.98 389.94 339.85 C 321.33 339.85 252.71 339.82 184.10 339.89 C 162.08 339.80 140.05 339.92 118.03 339.85 C 118.02 335.55 117.91 331.26 117.93 326.97 Z" />
</g>
<g id="#c2bd97ff">
<path fill="#c2bd97" opacity="1.00" d=" M 519.02 193.67 C 521.10 197.67 519.58 202.50 519.78 206.84 C 521.11 206.99 522.44 207.14 523.78 207.29 C 523.80 208.00 523.85 209.42 523.88 210.13 C 494.95 210.77 465.98 210.16 437.04 210.39 C 435.66 210.21 433.95 210.72 432.78 209.85 C 432.38 209.50 431.60 208.79 431.20 208.43 C 428.69 207.94 426.15 207.62 423.62 207.30 C 455.51 206.93 487.42 207.30 519.31 207.18 C 518.98 202.68 518.95 198.17 519.02 193.67 Z" />
<path fill="#c2bd97" opacity="1.00" d=" M 93.16 403.49 C 95.43 403.52 97.68 403.77 99.94 403.97 C 99.96 404.72 99.99 406.20 100.01 406.95 C 94.66 407.30 89.30 407.07 83.95 406.94 C 83.79 406.60 83.46 405.90 83.30 405.56 C 85.01 405.06 86.72 404.55 88.44 404.11 C 90.01 403.88 91.58 403.64 93.16 403.49 Z" />
</g>
<g id="#385f05ff">
<path fill="#385f05" opacity="1.00" d=" M 142.95 219.94 C 146.39 213.45 155.98 211.58 161.43 216.61 C 164.33 218.48 164.53 222.39 167.15 224.45 C 166.25 224.53 165.35 224.61 164.45 224.70 C 162.94 219.59 158.96 214.23 152.99 214.88 C 143.97 215.09 139.87 227.72 146.16 233.74 C 148.83 236.88 153.15 236.93 156.93 236.93 C 158.76 238.25 160.49 239.89 162.72 240.49 C 166.62 241.30 170.91 238.32 171.44 234.35 C 171.72 232.00 171.42 229.63 171.23 227.29 C 175.41 232.67 172.47 241.87 165.44 242.82 C 164.75 242.86 163.36 242.96 162.66 243.00 C 160.64 242.20 158.80 241.05 156.92 240.00 C 156.57 240.00 155.86 239.99 155.51 239.99 C 154.57 240.02 152.70 240.06 151.76 240.09 C 142.84 238.76 138.13 227.41 142.95 219.94 Z" />
</g>
<g id="#396101ff">
<path fill="#396101" opacity="1.00" d=" M 388.94 223.94 C 390.12 217.24 397.34 212.19 404.04 214.07 C 408.78 215.08 411.99 219.25 413.41 223.67 C 416.98 225.01 420.24 227.90 420.58 231.90 C 421.49 236.77 418.03 242.03 413.05 242.71 C 412.38 242.85 411.03 243.14 410.35 243.28 C 407.99 241.99 405.73 240.32 403.03 239.85 C 401.75 239.88 400.46 239.91 399.19 239.93 C 391.92 239.01 387.17 230.85 388.94 223.94 M 393.11 232.96 C 395.81 236.54 400.53 237.37 404.72 236.52 C 406.81 238.96 409.87 241.42 413.29 240.37 C 418.22 239.24 420.58 233.18 418.32 228.82 C 417.14 225.54 412.68 225.78 411.31 222.91 C 409.81 217.78 404.41 213.80 399.00 215.14 C 391.33 216.57 388.01 227.20 393.11 232.96 Z" />
</g>
<g id="#6aa000ff">
<path fill="#6aa000" opacity="1.00" d=" M 146.16 233.74 C 139.87 227.72 143.97 215.09 152.99 214.88 C 158.96 214.23 162.94 219.59 164.45 224.70 C 165.35 224.61 166.25 224.53 167.15 224.45 L 167.87 224.37 C 169.04 225.28 170.28 226.14 171.23 227.29 C 171.42 229.63 171.72 232.00 171.44 234.35 C 170.91 238.32 166.62 241.30 162.72 240.49 C 160.49 239.89 158.76 238.25 156.93 236.93 C 153.15 236.93 148.83 236.88 146.16 233.74 M 153.11 221.75 C 154.39 221.72 155.68 221.69 156.96 221.66 C 157.06 219.82 156.18 217.89 154.05 218.02 C 152.15 218.36 153.12 220.50 153.11 221.75 M 151.96 223.71 C 151.95 224.52 151.95 226.16 151.95 226.98 C 152.69 226.93 154.16 226.83 154.90 226.78 C 155.03 224.82 154.06 223.49 151.96 223.71 M 157.28 227.00 C 155.48 227.51 156.28 230.35 158.08 229.89 C 160.18 229.59 159.23 226.16 157.28 227.00 M 166.43 227.23 C 166.32 227.87 166.09 229.16 165.98 229.80 C 164.33 231.09 162.69 232.55 162.93 234.86 C 165.32 234.89 168.05 235.19 169.63 233.00 C 169.20 231.08 168.82 229.14 168.46 227.21 C 167.96 227.21 166.94 227.22 166.43 227.23 Z" />
<path fill="#6aa000" opacity="1.00" d=" M 393.11 232.96 C 388.01 227.20 391.33 216.57 399.00 215.14 C 404.41 213.80 409.81 217.78 411.31 222.91 C 412.68 225.78 417.14 225.54 418.32 228.82 C 420.58 233.18 418.22 239.24 413.29 240.37 C 409.87 241.42 406.81 238.96 404.72 236.52 C 400.53 237.37 395.81 236.54 393.11 232.96 M 402.18 224.30 C 400.62 225.60 402.99 228.00 404.32 226.47 C 405.73 225.16 403.52 222.97 402.18 224.30 M 413.19 227.92 C 411.84 229.48 411.87 231.31 413.93 232.13 C 415.23 230.58 415.24 228.71 413.19 227.92 M 408.89 237.92 C 409.69 237.91 411.29 237.89 412.09 237.88 C 412.38 236.51 413.21 233.95 410.96 233.83 C 408.36 233.37 407.90 236.15 408.89 237.92 Z" />
</g>
<g id="#99c300ff">
<path fill="#99c300" opacity="1.00" d=" M 153.11 221.75 C 153.12 220.50 152.15 218.36 154.05 218.02 C 156.18 217.89 157.06 219.82 156.96 221.66 C 155.68 221.69 154.39 221.72 153.11 221.75 Z" />
</g>
<g id="#345d00ff">
<path fill="#345d00" opacity="1.00" d=" M 344.26 227.32 C 346.75 223.74 351.63 222.96 355.48 224.60 C 352.45 224.67 348.83 224.00 346.49 226.44 C 342.39 229.72 342.86 236.98 347.53 239.52 C 351.40 242.18 357.09 239.72 358.47 235.42 C 359.35 232.71 358.56 229.82 358.26 227.09 C 362.81 232.27 359.80 241.89 352.74 242.77 C 352.05 242.77 350.66 242.77 349.97 242.77 C 343.02 241.97 339.88 232.50 344.26 227.32 Z" />
<path fill="#345d00" opacity="1.00" d=" M 70.01 228.60 C 70.97 227.26 72.01 225.99 73.19 224.84 C 71.62 228.35 69.34 232.64 71.76 236.33 C 74.04 240.66 80.58 241.62 83.77 237.76 C 86.89 234.75 85.52 230.14 85.29 226.36 C 86.98 229.20 88.13 232.66 86.96 235.92 C 86.03 239.32 83.02 241.61 79.75 242.55 C 78.84 242.55 77.93 242.53 77.02 242.47 C 70.79 241.50 67.58 234.17 70.01 228.60 Z" />
<path fill="#345d00" opacity="1.00" d=" M 41.39 273.22 C 41.45 265.36 41.22 257.50 41.55 249.65 C 53.35 249.83 65.16 249.71 76.96 249.70 C 77.65 249.70 79.01 249.70 79.70 249.70 C 84.18 249.72 88.67 249.71 93.16 249.72 C 93.16 251.17 93.15 252.62 93.15 254.07 C 77.33 254.10 61.50 253.97 45.67 254.11 C 45.38 260.48 45.50 266.86 45.64 273.24 C 44.22 273.24 42.81 273.23 41.39 273.22 Z" />
</g>
<g id="#69a000ff">
<path fill="#69a000" opacity="1.00" d=" M 73.19 224.84 C 76.94 222.11 82.19 223.15 85.29 226.36 C 85.52 230.14 86.89 234.75 83.77 237.76 C 80.58 241.62 74.04 240.66 71.76 236.33 C 69.34 232.64 71.62 228.35 73.19 224.84 M 74.95 227.14 C 75.55 228.15 76.06 229.23 76.88 230.08 C 78.24 229.87 80.02 227.67 78.33 226.73 C 77.27 225.66 76.03 226.78 74.95 227.14 M 78.16 232.27 C 76.98 233.04 76.38 234.75 77.13 236.03 C 77.98 239.35 83.43 237.06 82.70 234.11 C 82.84 231.98 79.58 231.18 78.16 232.27 Z" />
<path fill="#69a000" opacity="1.00" d=" M 346.49 226.44 C 348.83 224.00 352.45 224.67 355.48 224.60 C 356.54 225.24 357.58 226.02 358.26 227.09 C 358.56 229.82 359.35 232.71 358.47 235.42 C 357.09 239.72 351.40 242.18 347.53 239.52 C 342.86 236.98 342.39 229.72 346.49 226.44 M 348.98 226.88 C 348.96 227.74 348.91 229.46 348.89 230.32 C 350.58 229.94 351.89 229.05 352.12 227.23 C 351.34 227.14 349.77 226.97 348.98 226.88 M 351.36 232.40 C 348.20 233.65 350.44 239.33 353.70 237.63 C 357.72 236.59 354.79 230.50 351.36 232.40 Z" />
</g>
<g id="#8cba02ff">
<path fill="#8cba02" opacity="1.00" d=" M 151.96 223.71 C 154.06 223.49 155.03 224.82 154.90 226.78 C 154.16 226.83 152.69 226.93 151.95 226.98 C 151.95 226.16 151.95 224.52 151.96 223.71 Z" />
</g>
<g id="#90ba05ff">
<path fill="#90ba05" opacity="1.00" d=" M 402.18 224.30 C 403.52 222.97 405.73 225.16 404.32 226.47 C 402.99 228.00 400.62 225.60 402.18 224.30 Z" />
</g>
<g id="#87b704ff">
<path fill="#87b704" opacity="1.00" d=" M 74.95 227.14 C 76.03 226.78 77.27 225.66 78.33 226.73 C 80.02 227.67 78.24 229.87 76.88 230.08 C 76.06 229.23 75.55 228.15 74.95 227.14 Z" />
</g>
<g id="#8dbc01ff">
<path fill="#8dbc01" opacity="1.00" d=" M 157.28 227.00 C 159.23 226.16 160.18 229.59 158.08 229.89 C 156.28 230.35 155.48 227.51 157.28 227.00 Z" />
</g>
<g id="#97c000ff">
<path fill="#97c000" opacity="1.00" d=" M 166.43 227.23 C 166.94 227.22 167.96 227.21 168.46 227.21 C 168.82 229.14 169.20 231.08 169.63 233.00 C 168.05 235.19 165.32 234.89 162.93 234.86 C 162.69 232.55 164.33 231.09 165.98 229.80 C 166.09 229.16 166.32 227.87 166.43 227.23 Z" />
</g>
<g id="#8cbc03ff">
<path fill="#8cbc03" opacity="1.00" d=" M 348.98 226.88 C 349.77 226.97 351.34 227.14 352.12 227.23 C 351.89 229.05 350.58 229.94 348.89 230.32 C 348.91 229.46 348.96 227.74 348.98 226.88 Z" />
</g>
<g id="#8eba04ff">
<path fill="#8eba04" opacity="1.00" d=" M 413.19 227.92 C 415.24 228.71 415.23 230.58 413.93 232.13 C 411.87 231.31 411.84 229.48 413.19 227.92 Z" />
</g>
<g id="#99c000ff">
<path fill="#99c000" opacity="1.00" d=" M 78.16 232.27 C 79.58 231.18 82.84 231.98 82.70 234.11 C 83.43 237.06 77.98 239.35 77.13 236.03 C 76.38 234.75 76.98 233.04 78.16 232.27 Z" />
</g>
<g id="#98c100ff">
<path fill="#98c100" opacity="1.00" d=" M 351.36 232.40 C 354.79 230.50 357.72 236.59 353.70 237.63 C 350.44 239.33 348.20 233.65 351.36 232.40 Z" />
</g>
<g id="#8ebb04ff">
<path fill="#8ebb04" opacity="1.00" d=" M 408.89 237.92 C 407.90 236.15 408.36 233.37 410.96 233.83 C 413.21 233.95 412.38 236.51 412.09 237.88 C 411.29 237.89 409.69 237.91 408.89 237.92 Z" />
</g>
<g id="#864b1dff">
<path fill="#864b1d" opacity="1.00" d=" M 151.76 240.09 C 152.70 240.06 154.57 240.02 155.51 239.99 C 155.51 243.22 155.50 246.44 155.43 249.67 C 154.52 249.67 152.70 249.67 151.79 249.67 C 151.65 246.48 151.65 243.28 151.76 240.09 Z" />
</g>
<g id="#824a1cff">
<path fill="#824a1c" opacity="1.00" d=" M 399.19 239.93 C 400.46 239.91 401.75 239.88 403.03 239.85 C 402.99 243.13 403.01 246.42 402.99 249.71 C 401.73 249.70 400.48 249.70 399.23 249.70 C 399.19 246.44 399.19 243.18 399.19 239.93 Z" />
</g>
<g id="#dedcc5ff">
<path fill="#dedcc5" opacity="1.00" d=" M 403.03 239.85 C 405.73 240.32 407.99 241.99 410.35 243.28 C 410.21 245.42 410.24 247.56 410.26 249.71 C 407.83 249.71 405.41 249.72 402.99 249.71 C 403.01 246.42 402.99 243.13 403.03 239.85 Z" />
</g>
<g id="#82491aff">
<path fill="#82491a" opacity="1.00" d=" M 77.02 242.47 C 77.93 242.53 78.84 242.55 79.75 242.55 C 79.71 244.93 79.70 247.32 79.70 249.70 C 79.01 249.70 77.65 249.70 76.96 249.70 C 76.94 247.29 76.95 244.88 77.02 242.47 Z" />
</g>
<g id="#814a1eff">
<path fill="#814a1e" opacity="1.00" d=" M 162.66 243.00 C 163.36 242.96 164.75 242.86 165.44 242.82 C 165.45 245.12 165.47 247.42 165.52 249.72 C 164.81 249.72 163.41 249.72 162.70 249.72 C 162.69 247.48 162.68 245.24 162.66 243.00 Z" />
</g>
<g id="#844b16ff">
<path fill="#844b16" opacity="1.00" d=" M 349.97 242.77 C 350.66 242.77 352.05 242.77 352.74 242.77 C 352.74 245.08 352.73 247.38 352.71 249.69 C 352.04 249.69 350.70 249.69 350.04 249.69 C 349.96 247.38 349.94 245.08 349.97 242.77 Z" />
</g>
<g id="#7e4f1eff">
<path fill="#7e4f1e" opacity="1.00" d=" M 410.35 243.28 C 411.03 243.14 412.38 242.85 413.05 242.71 C 412.99 245.03 412.95 247.37 412.91 249.70 C 412.25 249.70 410.92 249.70 410.26 249.71 C 410.24 247.56 410.21 245.42 410.35 243.28 Z" />
</g>
<g id="#305a00ff">
<path fill="#305a00" opacity="1.00" d=" M 117.69 249.72 C 129.05 249.71 140.42 249.78 151.79 249.67 C 152.70 249.67 154.52 249.67 155.43 249.67 C 157.85 249.68 160.28 249.71 162.70 249.72 C 163.41 249.72 164.81 249.72 165.52 249.72 C 227.02 249.71 288.53 249.77 350.04 249.69 C 350.70 249.69 352.04 249.69 352.71 249.69 C 368.21 249.75 383.72 249.74 399.23 249.70 C 400.48 249.70 401.73 249.70 402.99 249.71 C 405.41 249.72 407.83 249.71 410.26 249.71 C 410.92 249.70 412.25 249.70 412.91 249.70 C 448.38 249.75 483.86 249.74 519.33 249.70 C 519.33 251.14 519.34 252.59 519.35 254.05 C 385.46 254.09 251.56 253.97 117.66 254.12 C 117.67 252.65 117.68 251.18 117.69 249.72 Z" />
</g>
<g id="#346001ff">
<path fill="#346001" opacity="1.00" d=" M 537.54 249.54 C 554.81 249.95 572.09 249.63 589.37 249.71 C 589.37 257.59 589.36 265.47 589.36 273.36 C 588.42 273.36 586.55 273.36 585.61 273.37 C 585.44 267.00 585.51 260.63 585.59 254.26 C 569.60 253.83 553.60 254.16 537.60 254.10 C 537.58 252.58 537.56 251.06 537.54 249.54 Z" />
</g>
<g id="#6b8a01ff">
<path fill="#6b8a01" opacity="1.00" d=" M 45.67 254.11 C 61.50 253.97 77.33 254.10 93.15 254.07 C 93.15 255.65 93.16 257.22 93.18 258.80 C 79.38 258.59 65.58 258.64 51.79 258.78 C 51.60 263.58 51.59 268.40 51.76 273.21 C 49.72 273.22 47.68 273.24 45.64 273.24 C 45.50 266.86 45.38 260.48 45.67 254.11 Z" />
<path fill="#6b8a01" opacity="1.00" d=" M 537.60 254.10 C 553.60 254.16 569.60 253.83 585.59 254.26 C 585.51 260.63 585.44 267.00 585.61 273.37 C 583.45 273.37 581.30 273.36 579.16 273.35 C 579.38 268.51 579.41 263.66 579.21 258.82 C 565.35 258.58 551.48 258.70 537.62 258.78 C 537.61 257.22 537.60 255.66 537.60 254.10 Z" />
</g>
<g id="#6b8a00ff">
<path fill="#6b8a00" opacity="1.00" d=" M 117.66 254.12 C 251.56 253.97 385.46 254.09 519.35 254.05 C 519.34 255.68 519.34 257.32 519.35 258.96 C 388.90 258.78 258.46 258.95 128.01 258.86 C 124.80 258.83 121.59 259.03 118.39 259.26 L 117.65 259.10 C 117.66 257.43 117.66 255.77 117.66 254.12 Z" />
</g>
<g id="#7c9e01ff">
<path fill="#7c9e01" opacity="1.00" d=" M 51.79 258.78 C 65.58 258.64 79.38 258.59 93.18 258.80 C 93.18 259.28 93.20 260.24 93.20 260.72 C 93.08 264.91 92.96 269.10 92.93 273.29 C 79.21 273.18 65.49 273.09 51.76 273.21 C 51.59 268.40 51.60 263.58 51.79 258.78 Z" />
<path fill="#7c9e01" opacity="1.00" d=" M 117.65 259.10 L 118.39 259.26 C 120.23 259.73 122.07 260.28 123.98 260.32 C 255.76 260.17 387.55 260.43 519.33 260.17 C 519.32 264.52 519.33 268.87 519.36 273.23 C 493.04 273.39 466.72 273.08 440.40 273.38 C 359.79 273.15 279.17 273.15 198.56 273.38 C 171.60 273.06 144.64 273.41 117.68 273.21 C 117.64 268.50 117.68 263.80 117.65 259.10 Z" />
<path fill="#7c9e01" opacity="1.00" d=" M 537.62 258.78 C 551.48 258.70 565.35 258.58 579.21 258.82 C 579.41 263.66 579.38 268.51 579.16 273.35 C 565.31 273.28 551.45 273.36 537.60 273.36 C 537.61 268.50 537.62 263.64 537.62 258.78 Z" />
</g>
<g id="#93ba00ff">
<path fill="#93ba00" opacity="1.00" d=" M 118.39 259.26 C 121.59 259.03 124.80 258.83 128.01 258.86 C 258.46 258.95 388.90 258.78 519.35 258.96 L 519.33 260.17 C 387.55 260.43 255.76 260.17 123.98 260.32 C 122.07 260.28 120.23 259.73 118.39 259.26 Z" />
</g>
<g id="#c3c09cff">
<path fill="#c3c09c" opacity="1.00" d=" M 93.20 260.72 C 93.52 264.78 93.74 268.85 93.74 272.93 C 95.83 272.99 97.93 273.05 100.03 273.11 C 99.98 274.31 99.92 275.51 99.86 276.71 C 97.35 276.70 94.83 276.67 92.32 276.66 C 82.79 276.27 73.29 274.50 63.74 275.70 C 59.56 276.59 55.26 274.72 51.17 276.27 C 45.85 277.18 40.40 276.38 35.02 276.74 C 34.99 275.55 34.96 274.36 34.93 273.18 C 37.08 273.18 39.24 273.19 41.39 273.22 C 42.81 273.23 44.22 273.24 45.64 273.24 C 47.68 273.24 49.72 273.22 51.76 273.21 C 65.49 273.09 79.21 273.18 92.93 273.29 C 92.96 269.10 93.08 264.91 93.20 260.72 Z" />
</g>
<g id="#c3c198ff">
<path fill="#c3c198" opacity="1.00" d=" M 113.09 273.14 C 114.62 273.16 116.15 273.18 117.68 273.21 C 144.64 273.41 171.60 273.06 198.56 273.38 C 204.28 274.87 210.20 273.91 216.02 274.33 C 213.15 274.66 210.30 275.08 207.49 275.77 C 205.36 276.29 203.16 276.36 200.98 276.34 C 171.69 276.30 142.39 276.65 113.11 276.23 C 113.10 275.46 113.09 273.91 113.09 273.14 Z" />
</g>
<g id="#c4c1acff">
<path fill="#c4c1ac" opacity="1.00" d=" M 198.56 273.38 C 279.17 273.15 359.79 273.15 440.40 273.38 C 432.32 275.10 424.03 273.54 415.87 274.47 C 423.93 275.40 432.08 274.31 440.14 275.41 C 436.34 275.78 432.53 276.01 428.73 276.28 C 359.14 276.44 289.53 276.25 219.93 276.39 C 215.78 276.42 211.57 276.72 207.49 275.77 C 210.30 275.08 213.15 274.66 216.02 274.33 C 210.20 273.91 204.28 274.87 198.56 273.38 Z" />
</g>
<g id="#c2c099ff">
<path fill="#c2c099" opacity="1.00" d=" M 530.89 273.02 C 538.08 273.52 545.27 273.82 552.48 273.97 C 545.81 277.15 538.23 276.35 531.09 276.01 C 531.04 275.27 530.94 273.77 530.89 273.02 Z" />
</g>
<g id="#c4c198ff">
<path fill="#c4c198" opacity="1.00" d=" M 590.25 273.36 C 592.10 273.18 593.97 273.15 595.84 273.17 C 595.94 273.95 596.15 275.53 596.26 276.31 C 590.30 275.81 583.86 277.28 578.51 273.90 C 582.43 273.93 586.34 273.75 590.25 273.36 Z" />
</g>
<g id="#c8c2b2ff">
<path fill="#c8c2b2" opacity="1.00" d=" M 552.48 273.97 C 561.14 273.34 569.84 273.65 578.51 273.90 C 583.86 277.28 590.30 275.81 596.26 276.31 C 594.87 276.68 593.43 276.92 592.01 276.88 C 573.37 276.74 554.73 276.46 536.10 277.01 C 534.50 276.98 532.92 276.94 531.34 276.83 L 531.09 276.01 C 538.23 276.35 545.81 277.15 552.48 273.97 Z" />
</g>
<g id="#bc0501ff">
<path fill="#bc0501" opacity="1.00" d=" M 141.13 290.88 C 141.38 283.79 148.27 277.61 155.41 278.88 C 160.69 279.52 164.25 284.03 166.04 288.70 C 168.56 290.04 171.38 291.48 172.38 294.37 C 174.89 299.83 171.42 306.80 165.48 307.94 C 164.78 307.96 163.37 307.98 162.67 307.99 C 160.65 307.22 158.81 306.06 156.93 305.02 C 156.56 305.01 155.84 305.00 155.47 304.99 C 154.53 305.02 152.64 305.07 151.69 305.10 C 145.18 303.93 140.40 297.43 141.13 290.88 M 145.29 297.72 C 147.79 301.64 152.82 302.42 157.08 301.75 C 159.06 303.52 161.10 305.96 164.05 305.67 C 169.70 305.91 173.44 298.97 170.91 294.15 C 169.96 291.33 167.06 290.15 164.43 289.43 C 163.03 283.87 158.01 278.71 151.86 279.99 C 143.98 281.16 140.47 291.65 145.29 297.72 Z" />
</g>
<g id="#b80603ff">
<path fill="#b80603" opacity="1.00" d=" M 388.92 289.01 C 390.12 281.98 398.06 276.83 404.90 279.37 C 409.25 280.60 411.88 284.59 413.44 288.58 C 416.58 290.11 419.82 292.38 420.46 296.09 C 421.81 301.34 418.20 306.87 412.95 308.00 C 412.26 308.00 410.87 307.99 410.17 307.98 C 408.09 307.17 406.18 306.00 404.23 304.94 L 403.04 304.92 C 401.74 304.95 400.45 304.98 399.16 305.01 C 391.92 303.89 387.20 295.97 388.92 289.01 M 393.93 299.05 C 396.69 302.22 401.07 302.02 404.88 301.86 C 406.55 303.54 408.31 305.67 410.91 305.65 C 416.39 306.38 420.70 300.11 418.84 295.12 C 418.03 291.77 414.82 290.02 411.73 289.23 C 410.59 283.48 405.00 278.45 398.91 280.10 C 390.61 281.70 387.86 293.49 393.93 299.05 Z" />
</g>
<g id="#fb7801ff">
<path fill="#fb7801" opacity="1.00" d=" M 145.29 297.72 C 140.47 291.65 143.98 281.16 151.86 279.99 C 158.01 278.71 163.03 283.87 164.43 289.43 C 167.06 290.15 169.96 291.33 170.91 294.15 C 173.44 298.97 169.70 305.91 164.05 305.67 C 161.10 305.96 159.06 303.52 157.08 301.75 C 152.82 302.42 147.79 301.64 145.29 297.72 M 152.40 285.66 C 153.43 287.24 155.55 286.50 157.11 286.80 C 156.79 285.64 156.94 284.09 155.67 283.47 C 154.24 282.35 151.65 283.79 152.40 285.66 M 148.32 284.08 C 147.73 285.69 148.26 286.25 149.90 285.78 C 150.49 284.16 149.96 283.59 148.32 284.08 M 152.11 289.14 C 150.65 291.40 152.90 292.34 154.88 291.91 C 154.86 291.19 154.83 289.77 154.81 289.06 C 154.14 289.08 152.78 289.12 152.11 289.14 M 144.22 290.18 C 143.00 291.70 145.73 293.14 146.67 291.70 C 147.85 290.18 145.16 288.77 144.22 290.18 M 157.27 292.12 C 155.38 292.60 156.32 295.46 158.12 294.96 C 160.23 294.65 159.20 291.29 157.27 292.12 M 166.23 294.75 C 165.07 295.79 163.77 296.72 162.86 298.01 C 162.58 301.34 166.88 299.32 168.91 299.71 C 168.74 297.09 170.19 292.64 166.79 291.72 C 166.49 292.70 166.37 293.73 166.23 294.75 Z" />
<path fill="#fb7801" opacity="1.00" d=" M 393.93 299.05 C 387.86 293.49 390.61 281.70 398.91 280.10 C 405.00 278.45 410.59 283.48 411.73 289.23 C 414.82 290.02 418.03 291.77 418.84 295.12 C 420.70 300.11 416.39 306.38 410.91 305.65 C 408.31 305.67 406.55 303.54 404.88 301.86 C 401.07 302.02 396.69 302.22 393.93 299.05 M 398.29 284.07 C 397.72 285.69 398.25 286.26 399.89 285.77 C 400.46 284.14 399.92 283.58 398.29 284.07 M 405.26 284.27 C 403.83 285.23 405.31 287.88 406.82 286.74 C 408.24 285.78 406.76 283.13 405.26 284.27 M 402.24 289.42 C 400.63 290.74 403.08 293.10 404.39 291.55 C 405.78 290.23 403.56 288.07 402.24 289.42 M 394.20 290.18 C 393.04 291.68 395.69 293.19 396.67 291.77 C 397.78 290.28 395.17 288.77 394.20 290.18 M 413.25 292.87 C 412.74 293.85 412.25 294.84 411.76 295.83 C 412.30 296.10 413.38 296.65 413.92 296.92 C 415.79 295.45 415.05 293.90 413.25 292.87 M 409.21 299.19 C 406.66 300.52 409.70 304.61 411.77 302.70 C 414.31 301.39 411.42 297.00 409.21 299.19 Z" />
<path fill="#fb7801" opacity="1.00" d=" M 348.19 290.25 C 353.67 287.36 360.29 293.25 358.84 299.06 C 358.26 304.33 351.81 307.48 347.35 304.55 C 342.23 301.32 342.62 292.81 348.19 290.25 M 348.81 291.75 C 348.82 292.57 348.84 294.21 348.85 295.03 C 349.62 294.96 351.18 294.80 351.95 294.72 C 352.16 292.61 350.90 291.60 348.81 291.75 M 351.27 297.31 C 349.32 298.68 349.36 301.29 351.31 302.65 C 352.71 302.89 354.96 303.33 355.32 301.41 C 356.71 298.94 353.70 296.24 351.27 297.31 Z" />
</g>
<g id="#fdb900ff">
<path fill="#fdb900" opacity="1.00" d=" M 152.40 285.66 C 151.65 283.79 154.24 282.35 155.67 283.47 C 156.94 284.09 156.79 285.64 157.11 286.80 C 155.55 286.50 153.43 287.24 152.40 285.66 Z" />
</g>
<g id="#fdb201ff">
<path fill="#fdb201" opacity="1.00" d=" M 148.32 284.08 C 149.96 283.59 150.49 284.16 149.90 285.78 C 148.26 286.25 147.73 285.69 148.32 284.08 Z" />
</g>
<g id="#feb304ff">
<path fill="#feb304" opacity="1.00" d=" M 398.29 284.07 C 399.92 283.58 400.46 284.14 399.89 285.77 C 398.25 286.26 397.72 285.69 398.29 284.07 Z" />
</g>
<g id="#fca403ff">
<path fill="#fca403" opacity="1.00" d=" M 405.26 284.27 C 406.76 283.13 408.24 285.78 406.82 286.74 C 405.31 287.88 403.83 285.23 405.26 284.27 Z" />
</g>
<g id="#b40800ff">
<path fill="#b40800" opacity="1.00" d=" M 342.96 302.06 C 340.54 296.67 344.23 289.50 350.21 288.83 C 355.15 288.06 359.86 292.18 360.36 297.03 C 361.18 302.03 357.65 306.88 352.77 307.97 C 352.06 307.97 350.63 307.99 349.92 307.99 C 346.93 307.06 343.99 305.18 342.96 302.06 M 348.19 290.25 C 342.62 292.81 342.23 301.32 347.35 304.55 C 351.81 307.48 358.26 304.33 358.84 299.06 C 360.29 293.25 353.67 287.36 348.19 290.25 Z" />
</g>
<g id="#fca902ff">
<path fill="#fca902" opacity="1.00" d=" M 152.11 289.14 C 152.78 289.12 154.14 289.08 154.81 289.06 C 154.83 289.77 154.86 291.19 154.88 291.91 C 152.90 292.34 150.65 291.40 152.11 289.14 Z" />
</g>
<g id="#fdad02ff">
<path fill="#fdad02" opacity="1.00" d=" M 402.24 289.42 C 403.56 288.07 405.78 290.23 404.39 291.55 C 403.08 293.10 400.63 290.74 402.24 289.42 Z" />
</g>
<g id="#c42b18ff">
<path fill="#c42b18" opacity="1.00" d=" M 70.84 293.92 C 73.80 289.05 81.46 288.55 85.04 292.98 C 90.00 298.08 86.99 308.24 79.69 309.08 C 79.00 309.07 77.63 309.07 76.94 309.06 C 70.11 308.34 66.89 299.23 70.84 293.92 M 76.16 291.27 C 69.81 293.01 68.99 303.03 74.93 305.82 C 79.33 308.68 85.29 304.83 85.76 299.95 C 86.78 294.72 81.38 289.41 76.16 291.27 Z" />
</g>
<g id="#fba205ff">
<path fill="#fba205" opacity="1.00" d=" M 144.22 290.18 C 145.16 288.77 147.85 290.18 146.67 291.70 C 145.73 293.14 143.00 291.70 144.22 290.18 Z" />
</g>
<g id="#fca209ff">
<path fill="#fca209" opacity="1.00" d=" M 394.20 290.18 C 395.17 288.77 397.78 290.28 396.67 291.77 C 395.69 293.19 393.04 291.68 394.20 290.18 Z" />
</g>
<g id="#fc7800ff">
<path fill="#fc7800" opacity="1.00" d=" M 76.16 291.27 C 81.38 289.41 86.78 294.72 85.76 299.95 C 85.29 304.83 79.33 308.68 74.93 305.82 C 68.99 303.03 69.81 293.01 76.16 291.27 M 76.17 293.13 C 76.08 293.84 75.90 295.24 75.81 295.95 C 76.64 295.97 78.29 296.01 79.12 296.03 C 78.59 294.66 78.16 292.50 76.17 293.13 M 78.39 298.42 C 75.82 299.76 76.74 304.66 80.06 304.00 C 82.15 304.35 82.60 301.91 82.70 300.37 C 81.88 298.78 80.15 297.84 78.39 298.42 Z" />
</g>
<g id="#fcaf05ff">
<path fill="#fcaf05" opacity="1.00" d=" M 157.27 292.12 C 159.20 291.29 160.23 294.65 158.12 294.96 C 156.32 295.46 155.38 292.60 157.27 292.12 Z" />
</g>
<g id="#fcb900ff">
<path fill="#fcb900" opacity="1.00" d=" M 166.23 294.75 C 166.37 293.73 166.49 292.70 166.79 291.72 C 170.19 292.64 168.74 297.09 168.91 299.71 C 166.88 299.32 162.58 301.34 162.86 298.01 C 163.77 296.72 165.07 295.79 166.23 294.75 Z" />
</g>
<g id="#fbaa06ff">
<path fill="#fbaa06" opacity="1.00" d=" M 348.81 291.75 C 350.90 291.60 352.16 292.61 351.95 294.72 C 351.18 294.80 349.62 294.96 348.85 295.03 C 348.84 294.21 348.82 292.57 348.81 291.75 Z" />
</g>
<g id="#fbac06ff">
<path fill="#fbac06" opacity="1.00" d=" M 76.17 293.13 C 78.16 292.50 78.59 294.66 79.12 296.03 C 78.29 296.01 76.64 295.97 75.81 295.95 C 75.90 295.24 76.08 293.84 76.17 293.13 Z" />
</g>
<g id="#fdab03ff">
<path fill="#fdab03" opacity="1.00" d=" M 413.25 292.87 C 415.05 293.90 415.79 295.45 413.92 296.92 C 413.38 296.65 412.30 296.10 411.76 295.83 C 412.25 294.84 412.74 293.85 413.25 292.87 Z" />
</g>
<g id="#fab900ff">
<path fill="#fab900" opacity="1.00" d=" M 351.27 297.31 C 353.70 296.24 356.71 298.94 355.32 301.41 C 354.96 303.33 352.71 302.89 351.31 302.65 C 349.36 301.29 349.32 298.68 351.27 297.31 Z" />
</g>
<g id="#feba00ff">
<path fill="#feba00" opacity="1.00" d=" M 78.39 298.42 C 80.15 297.84 81.88 298.78 82.70 300.37 C 82.60 301.91 82.15 304.35 80.06 304.00 C 76.74 304.66 75.82 299.76 78.39 298.42 Z" />
</g>
<g id="#fcab04ff">
<path fill="#fcab04" opacity="1.00" d=" M 409.21 299.19 C 411.42 297.00 414.31 301.39 411.77 302.70 C 409.70 304.61 406.66 300.52 409.21 299.19 Z" />
</g>
<g id="#dfdcc3ff">
<path fill="#dfdcc3" opacity="1.00" d=" M 155.47 304.99 C 155.84 305.00 156.56 305.01 156.93 305.02 C 158.81 306.06 160.65 307.22 162.67 307.99 C 162.70 310.77 162.71 313.55 162.73 316.33 C 160.31 316.32 157.88 316.31 155.46 316.32 C 155.52 312.54 155.51 308.76 155.47 304.99 Z" />
</g>
<g id="#844c1eff">
<path fill="#844c1e" opacity="1.00" d=" M 399.16 305.01 C 400.45 304.98 401.74 304.95 403.04 304.92 C 403.01 308.72 403.02 312.52 403.06 316.32 C 401.78 316.31 400.50 316.31 399.22 316.32 C 399.19 312.55 399.18 308.78 399.16 305.01 Z" />
</g>
<g id="#dfddc5ff">
<path fill="#dfddc5" opacity="1.00" d=" M 403.04 304.92 L 404.23 304.94 C 406.18 306.00 408.09 307.17 410.17 307.98 C 410.22 310.76 410.24 313.54 410.24 316.32 C 407.84 316.31 405.45 316.32 403.06 316.32 C 403.02 312.52 403.01 308.72 403.04 304.92 Z" />
</g>
<g id="#844a1bff">
<path fill="#844a1b" opacity="1.00" d=" M 162.67 307.99 C 163.37 307.98 164.78 307.96 165.48 307.94 C 165.44 310.74 165.44 313.53 165.46 316.33 C 164.78 316.33 163.41 316.33 162.73 316.33 C 162.71 313.55 162.70 310.77 162.67 307.99 Z" />
</g>
<g id="#874d18ff">
<path fill="#874d18" opacity="1.00" d=" M 349.92 307.99 C 350.63 307.99 352.06 307.97 352.77 307.97 C 352.74 310.75 352.72 313.54 352.71 316.33 C 352.01 316.33 350.61 316.33 349.91 316.33 C 349.93 313.55 349.93 310.77 349.92 307.99 Z" />
</g>
<g id="#7d501aff">
<path fill="#7d501a" opacity="1.00" d=" M 410.17 307.98 C 410.87 307.99 412.26 308.00 412.95 308.00 C 412.95 310.77 412.97 313.55 413.02 316.32 C 412.32 316.32 410.94 316.32 410.24 316.32 C 410.24 313.54 410.22 310.76 410.17 307.98 Z" />
</g>
<g id="#884d1bff">
<path fill="#884d1b" opacity="1.00" d=" M 76.94 309.06 C 77.63 309.07 79.00 309.07 79.69 309.08 C 79.69 311.50 79.70 313.92 79.71 316.35 C 79.01 316.35 77.62 316.34 76.92 316.34 C 76.93 313.91 76.93 311.48 76.94 309.06 Z" />
</g>
<g id="#fa7900ff">
<path fill="#fa7900" opacity="1.00" d=" M 41.41 316.35 C 53.25 316.31 65.08 316.37 76.92 316.34 C 77.62 316.34 79.01 316.35 79.71 316.35 C 84.13 316.46 88.58 316.05 93.00 316.56 C 93.11 317.22 93.35 318.53 93.47 319.19 C 77.01 319.19 60.54 319.14 44.08 319.18 C 43.87 326.07 43.97 332.96 44.01 339.86 C 43.36 339.85 42.06 339.83 41.41 339.82 C 41.37 331.99 41.36 324.17 41.41 316.35 Z" />
</g>
<g id="#fa7a00ff">
<path fill="#fa7a00" opacity="1.00" d=" M 117.64 319.15 C 117.21 317.39 117.93 315.91 119.93 316.33 C 130.52 316.28 141.12 316.40 151.72 316.32 C 152.66 316.32 154.53 316.32 155.46 316.32 C 157.88 316.31 160.31 316.32 162.73 316.33 C 163.41 316.33 164.78 316.33 165.46 316.33 C 226.94 316.36 288.43 316.37 349.91 316.33 C 350.61 316.33 352.01 316.33 352.71 316.33 C 368.22 316.37 383.72 316.37 399.22 316.32 C 400.50 316.31 401.78 316.31 403.06 316.32 C 405.45 316.32 407.84 316.31 410.24 316.32 C 410.94 316.32 412.32 316.32 413.02 316.32 C 443.33 316.38 473.65 316.33 503.97 316.33 C 509.10 316.39 514.25 316.04 519.37 316.61 C 519.31 317.36 519.20 318.87 519.14 319.62 L 519.14 319.39 C 495.43 318.90 471.69 319.32 447.97 319.19 C 337.86 319.16 227.75 319.23 117.64 319.15 Z" />
</g>
<g id="#f97900ff">
<path fill="#f97900" opacity="1.00" d=" M 537.40 318.99 C 537.17 317.19 538.05 315.86 540.00 316.32 C 556.49 316.47 572.99 316.13 589.48 316.49 C 589.19 324.26 589.65 332.05 589.26 339.83 C 588.67 339.85 587.51 339.91 586.93 339.94 C 586.94 332.99 587.08 326.05 586.84 319.11 C 570.36 318.84 553.88 319.05 537.40 318.99 Z" />
</g>
<g id="#ab200fff">
<path fill="#ab200f" opacity="1.00" d=" M 44.08 319.18 C 60.54 319.14 77.01 319.19 93.47 319.19 C 93.36 319.52 93.15 320.18 93.04 320.51 C 77.11 320.89 61.15 320.35 45.22 320.79 C 45.33 327.15 45.34 333.51 45.17 339.87 L 44.01 339.86 C 43.97 332.96 43.87 326.07 44.08 319.18 Z" />
</g>
<g id="#a72411ff">
<path fill="#a72411" opacity="1.00" d=" M 117.64 319.15 C 227.75 319.23 337.86 319.16 447.97 319.19 C 471.69 319.32 495.43 318.90 519.14 319.39 L 519.14 319.62 C 519.13 319.94 519.10 320.59 519.09 320.91 C 494.06 320.33 469.02 320.81 443.99 320.65 C 340.65 320.66 237.30 320.65 133.96 320.66 C 128.59 320.71 123.19 320.34 117.84 321.04 C 117.79 320.57 117.69 319.62 117.64 319.15 Z" />
</g>
<g id="#c72200ff">
<path fill="#c72200" opacity="1.00" d=" M 537.40 318.99 C 553.88 319.05 570.36 318.84 586.84 319.11 C 587.08 326.05 586.94 332.99 586.93 339.94 L 585.67 339.95 C 585.54 333.42 585.63 326.88 585.61 320.35 C 569.59 320.52 553.57 320.55 537.56 320.31 L 537.40 318.99 Z" />
</g>
<g id="#57453eff">
<path fill="#57453e" opacity="1.00" d=" M 537.56 320.31 C 553.57 320.55 569.59 320.52 585.61 320.35 C 585.63 326.88 585.54 333.42 585.67 339.95 C 585.40 339.95 584.86 339.95 584.59 339.95 C 582.75 339.88 580.92 339.84 579.09 339.81 C 579.24 335.09 579.25 330.38 579.13 325.67 C 565.32 325.66 551.51 325.35 537.71 325.83 C 537.64 323.98 537.59 322.15 537.56 320.31 Z" />
</g>
<g id="#57443eff">
<path fill="#57443e" opacity="1.00" d=" M 45.22 320.79 C 61.15 320.35 77.11 320.89 93.04 320.51 C 93.12 322.27 93.09 324.04 92.97 325.81 C 79.23 325.46 65.47 325.58 51.72 325.71 C 51.53 330.40 51.54 335.11 51.79 339.80 C 50.22 339.81 48.65 339.84 47.08 339.86 C 46.60 339.86 45.65 339.86 45.17 339.87 C 45.34 333.51 45.33 327.15 45.22 320.79 Z" />
</g>
<g id="#c0be95ff">
<path fill="#c0be95" opacity="1.00" d=" M 116.94 320.71 L 117.84 321.04 C 117.93 322.63 117.97 324.23 117.95 325.83 L 117.93 326.97 C 117.91 331.26 118.02 335.55 118.03 339.85 C 140.05 339.92 162.08 339.80 184.10 339.89 C 184.10 340.68 184.10 342.26 184.10 343.05 C 163.06 343.25 142.01 343.06 120.97 343.22 C 118.38 343.26 115.79 343.14 113.21 342.96 C 113.21 342.27 113.20 340.91 113.20 340.22 C 114.46 340.03 115.72 339.84 116.98 339.66 C 116.81 333.34 117.59 327.02 116.94 320.71 Z" />
<path fill="#c0be95" opacity="1.00" d=" M 519.09 320.91 L 519.29 321.30 C 519.44 321.69 519.73 322.47 519.88 322.86 C 519.81 328.46 520.16 334.08 519.83 339.68 C 521.16 339.85 522.50 340.01 523.85 340.18 C 523.85 340.89 523.85 342.30 523.85 343.00 C 505.89 343.44 487.92 343.03 469.96 343.12 C 463.73 343.03 457.50 343.31 451.29 342.94 C 450.14 342.39 448.98 341.90 447.87 341.33 C 450.73 341.07 453.57 340.63 456.40 340.10 C 477.30 339.57 498.22 340.00 519.13 339.87 C 519.01 335.55 518.97 331.23 519.00 326.92 L 519.02 325.76 C 519.03 324.14 519.07 322.53 519.09 320.91 Z" />
</g>
<g id="#57433eff">
<path fill="#57433e" opacity="1.00" d=" M 117.84 321.04 C 123.19 320.34 128.59 320.71 133.96 320.66 C 237.30 320.65 340.65 320.66 443.99 320.65 C 469.02 320.81 494.06 320.33 519.09 320.91 C 519.07 322.53 519.03 324.14 519.02 325.76 C 467.68 325.61 416.34 325.76 365.00 325.69 C 282.65 325.80 200.30 325.51 117.95 325.83 C 117.97 324.23 117.93 322.63 117.84 321.04 Z" />
</g>
<g id="#a08570ff">
<path fill="#a08570" opacity="1.00" d=" M 117.95 325.83 C 200.30 325.51 282.65 325.80 365.00 325.69 C 416.34 325.76 467.68 325.61 519.02 325.76 L 519.00 326.92 C 462.67 327.13 406.34 326.96 350.00 327.04 C 272.64 326.96 195.28 327.10 117.93 326.97 L 117.95 325.83 Z" />
</g>
<g id="#c3bf97ff">
<path fill="#c3bf97" opacity="1.00" d=" M 93.17 339.65 C 95.45 339.58 97.72 339.76 99.99 339.91 C 99.99 340.71 99.98 342.32 99.97 343.13 C 94.60 343.41 89.23 343.17 83.87 343.08 C 84.61 342.01 85.35 340.95 86.10 339.90 C 88.45 339.87 90.81 339.74 93.17 339.65 Z" />
</g>
<g id="#c1bd9bff">
<path fill="#c1bd9b" opacity="1.00" d=" M 34.72 339.89 C 36.95 339.81 39.18 339.77 41.41 339.82 C 42.06 339.83 43.36 339.85 44.01 339.86 L 45.17 339.87 C 45.65 339.86 46.60 339.86 47.08 339.86 C 47.08 340.69 47.09 342.35 47.09 343.18 C 43.12 343.19 39.11 343.62 35.17 342.94 C 35.06 342.18 34.84 340.65 34.72 339.89 Z" />
</g>
<g id="#c4c2acff">
<path fill="#c4c2ac" opacity="1.00" d=" M 184.10 339.89 C 252.71 339.82 321.33 339.85 389.94 339.85 C 412.09 339.98 434.25 339.62 456.40 340.10 C 453.57 340.63 450.73 341.07 447.87 341.33 C 448.98 341.90 450.14 342.39 451.29 342.94 C 445.90 343.70 440.45 343.08 435.03 343.29 C 375.71 343.01 316.39 342.95 257.06 343.10 C 232.74 342.93 208.40 343.65 184.10 343.05 C 184.10 342.26 184.10 340.68 184.10 339.89 Z" />
<path fill="#c4c2ac" opacity="1.00" d=" M 183.56 404.16 C 195.69 403.29 207.87 404.06 220.02 403.82 C 292.00 403.80 363.97 403.75 435.94 403.85 C 441.44 403.73 446.96 403.61 452.44 404.22 C 445.57 405.74 438.44 405.01 431.59 406.74 C 430.38 406.94 429.16 407.06 427.94 407.12 C 353.30 406.96 278.66 407.01 204.02 407.13 C 202.54 407.02 201.07 406.83 199.62 406.58 C 202.43 406.15 205.26 405.78 208.09 405.49 C 199.94 404.50 191.59 406.18 183.56 404.16 Z" />
</g>
<g id="#c1bd95ff">
<path fill="#c1bd95" opacity="1.00" d=" M 530.94 339.92 C 533.17 339.85 535.40 339.79 537.64 339.82 C 539.71 339.84 541.79 339.87 543.88 339.88 C 544.47 340.52 545.07 341.17 545.67 341.83 C 545.16 342.09 544.14 342.60 543.62 342.86 C 539.46 343.53 535.22 343.14 531.04 343.02 C 531.02 342.25 530.97 340.70 530.94 339.92 Z" />
</g>
<g id="#c2c09cff">
<path fill="#c2c09c" opacity="1.00" d=" M 584.59 339.95 C 584.86 339.95 585.40 339.95 585.67 339.95 L 586.93 339.94 C 587.51 339.91 588.67 339.85 589.26 339.83 C 591.72 339.82 597.67 338.43 595.87 342.87 C 590.96 343.88 585.63 343.19 580.59 342.91 C 582.01 342.04 583.32 341.02 584.59 339.95 Z" />
</g>
<g id="#666665ff">
<path fill="#666665" opacity="1.00" d=" M 438.12 359.32 C 441.85 359.35 445.59 359.31 449.32 359.51 C 449.20 366.40 449.30 373.30 449.28 380.19 C 449.66 380.08 450.44 379.85 450.83 379.74 C 451.20 376.54 450.98 373.33 451.08 370.13 C 452.79 370.15 454.51 370.17 456.23 370.19 C 456.38 373.50 456.39 376.81 456.27 380.12 C 457.40 380.08 458.53 380.05 459.68 380.02 C 459.56 376.60 459.47 373.16 459.89 369.75 C 461.92 371.26 462.09 367.57 459.94 368.94 C 459.84 368.21 459.64 366.74 459.54 366.00 C 461.98 365.97 464.42 365.96 466.86 365.98 C 466.88 370.74 466.84 375.51 466.94 380.27 C 484.32 380.19 501.71 380.37 519.09 380.19 C 519.16 380.89 519.30 382.28 519.38 382.98 C 385.45 383.04 251.52 383.01 117.58 383.00 C 117.65 382.37 117.78 381.12 117.84 380.49 C 121.09 380.05 124.38 380.27 127.64 380.35 C 127.80 373.37 127.64 366.39 127.74 359.42 C 131.50 359.33 135.27 359.33 139.03 359.43 C 139.02 366.37 139.06 373.31 139.04 380.26 L 140.62 380.21 C 140.70 376.90 140.69 373.58 140.56 370.27 C 142.37 370.21 144.19 370.16 146.01 370.12 C 146.11 373.50 146.12 376.88 146.06 380.26 C 146.89 380.24 148.54 380.19 149.36 380.16 C 149.41 375.46 149.37 370.76 149.30 366.06 C 151.75 365.97 154.21 365.98 156.67 366.09 C 156.59 370.80 156.58 375.52 156.67 380.24 C 228.44 380.28 300.21 380.23 371.97 380.25 C 387.25 380.14 402.53 380.48 417.80 380.08 C 417.73 373.20 417.78 366.32 417.72 359.44 C 421.49 359.34 425.26 359.35 429.03 359.45 C 429.09 366.36 429.02 373.28 429.06 380.20 C 432.02 380.24 434.98 380.26 437.94 380.20 C 438.09 373.24 437.74 366.27 438.12 359.32 M 129.29 362.42 C 128.08 363.94 130.82 365.41 131.75 363.92 C 132.89 362.39 130.23 361.00 129.29 362.42 M 420.22 362.20 C 418.62 362.55 419.26 365.21 420.85 364.71 C 422.46 364.36 421.82 361.69 420.22 362.20 M 440.10 362.41 C 439.58 364.06 440.13 364.61 441.74 364.06 C 442.24 362.41 441.70 361.86 440.10 362.41 M 423.33 366.05 C 422.76 367.65 423.30 368.22 424.95 367.76 C 425.51 366.14 424.97 365.57 423.33 366.05 M 150.12 368.26 C 149.60 369.90 150.15 370.45 151.77 369.91 C 152.28 368.27 151.72 367.72 150.12 368.26 M 133.26 369.29 C 132.75 370.92 133.32 371.46 134.94 370.90 C 135.44 369.25 134.88 368.71 133.26 369.29 M 419.28 369.33 C 418.10 370.85 420.86 372.22 421.81 370.85 C 422.94 369.32 420.22 367.97 419.28 369.33 M 423.29 369.28 C 422.78 370.91 423.35 371.46 424.97 370.94 C 425.46 369.29 424.89 368.74 423.29 369.28 M 443.27 369.33 C 442.03 370.85 444.78 372.28 445.74 370.85 C 446.89 369.34 444.22 367.95 443.27 369.33 M 133.26 373.10 C 132.79 374.73 133.36 375.28 134.97 374.75 C 135.44 373.10 134.87 372.55 133.26 373.10 M 423.31 373.08 C 422.76 374.70 423.31 375.26 424.94 374.76 C 425.48 373.13 424.94 372.57 423.31 373.08 M 443.22 373.08 C 442.05 374.55 444.67 376.04 445.68 374.71 C 446.88 373.22 444.22 371.70 443.22 373.08 M 144.18 374.25 C 144.70 374.75 144.70 374.75 144.18 374.25 M 454.26 374.33 C 454.76 374.84 454.76 374.84 454.26 374.33 M 454.25 377.25 C 454.76 377.77 454.76 377.77 454.25 377.25 Z" />
</g>
<g id="#dcdab7ff">
</g>
<g id="#656565ff">
<path fill="#656565" opacity="1.00" d=" M 61.61 359.42 C 65.39 359.34 69.17 359.34 72.95 359.45 C 72.93 366.38 72.83 373.31 73.03 380.24 C 79.70 380.30 86.37 380.26 93.04 380.28 C 93.06 380.96 93.09 382.32 93.10 383.00 C 76.74 383.09 60.38 382.96 44.01 383.07 C 43.87 389.98 43.91 396.90 44.01 403.81 C 43.35 403.81 42.03 403.81 41.37 403.81 C 41.37 402.56 41.38 401.32 41.38 400.08 C 41.37 393.48 41.39 386.88 41.35 380.28 C 48.05 380.24 54.74 380.23 61.44 380.30 C 61.77 373.34 61.54 366.37 61.61 359.42 M 63.46 362.28 C 62.01 363.22 63.46 365.79 64.97 364.69 C 66.55 363.78 64.97 361.08 63.46 362.28 M 67.25 366.08 C 66.75 367.71 67.31 368.26 68.94 367.74 C 69.44 366.11 68.88 365.55 67.25 366.08 M 63.21 369.27 C 61.90 370.76 64.67 372.20 65.66 370.84 C 66.89 369.35 64.19 367.96 63.21 369.27 M 67.27 369.24 C 66.73 370.88 67.28 371.43 68.90 370.90 C 69.42 369.24 68.88 368.69 67.27 369.24 M 67.21 373.00 C 66.70 374.63 67.26 375.19 68.88 374.70 C 69.39 373.07 68.84 372.50 67.21 373.00 Z" />
</g>
<g id="#a8933aff">
<path fill="#a8933a" opacity="1.00" d=" M 129.29 362.42 C 130.23 361.00 132.89 362.39 131.75 363.92 C 130.82 365.41 128.08 363.94 129.29 362.42 Z" />
</g>
<g id="#b69830ff">
<path fill="#b69830" opacity="1.00" d=" M 420.22 362.20 C 421.82 361.69 422.46 364.36 420.85 364.71 C 419.26 365.21 418.62 362.55 420.22 362.20 Z" />
</g>
<g id="#c09e2dff">
<path fill="#c09e2d" opacity="1.00" d=" M 440.10 362.41 C 441.70 361.86 442.24 362.41 441.74 364.06 C 440.13 364.61 439.58 364.06 440.10 362.41 Z" />
</g>
<g id="#d7b21cff">
<path fill="#d7b21c" opacity="1.00" d=" M 67.25 366.08 C 68.88 365.55 69.44 366.11 68.94 367.74 C 67.31 368.26 66.75 367.71 67.25 366.08 Z" />
</g>
<g id="#c8b221ff">
<path fill="#c8b221" opacity="1.00" d=" M 423.33 366.05 C 424.97 365.57 425.51 366.14 424.95 367.76 C 423.30 368.22 422.76 367.65 423.33 366.05 Z" />
</g>
<g id="#a6933bff">
<path fill="#a6933b" opacity="1.00" d=" M 150.12 368.26 C 151.72 367.72 152.28 368.27 151.77 369.91 C 150.15 370.45 149.60 369.90 150.12 368.26 Z" />
</g>
<g id="#af992dff">
<path fill="#af992d" opacity="1.00" d=" M 63.21 369.27 C 64.19 367.96 66.89 369.35 65.66 370.84 C 64.67 372.20 61.90 370.76 63.21 369.27 Z" />
</g>
<g id="#d2ae1cff">
<path fill="#d2ae1c" opacity="1.00" d=" M 67.27 369.24 C 68.88 368.69 69.42 369.24 68.90 370.90 C 67.28 371.43 66.73 370.88 67.27 369.24 Z" />
</g>
<g id="#ccab21ff">
<path fill="#ccab21" opacity="1.00" d=" M 133.26 369.29 C 134.88 368.71 135.44 369.25 134.94 370.90 C 133.32 371.46 132.75 370.92 133.26 369.29 Z" />
</g>
<g id="#af9930ff">
<path fill="#af9930" opacity="1.00" d=" M 419.28 369.33 C 420.22 367.97 422.94 369.32 421.81 370.85 C 420.86 372.22 418.10 370.85 419.28 369.33 Z" />
</g>
<g id="#cba828ff">
<path fill="#cba828" opacity="1.00" d=" M 423.29 369.28 C 424.89 368.74 425.46 369.29 424.97 370.94 C 423.35 371.46 422.78 370.91 423.29 369.28 Z" />
</g>
<g id="#b19636ff">
<path fill="#b19636" opacity="1.00" d=" M 443.27 369.33 C 444.22 367.95 446.89 369.34 445.74 370.85 C 444.78 372.28 442.03 370.85 443.27 369.33 Z" />
</g>
<g id="#b1b317ff">
<path fill="#b1b317" opacity="1.00" d=" M 459.94 368.94 C 462.09 367.57 461.92 371.26 459.89 369.75 L 459.94 368.94 Z" />
</g>
<g id="#d5a720ff">
<path fill="#d5a720" opacity="1.00" d=" M 67.21 373.00 C 68.84 372.50 69.39 373.07 68.88 374.70 C 67.26 375.19 66.70 374.63 67.21 373.00 Z" />
</g>
<g id="#ccac21ff">
<path fill="#ccac21" opacity="1.00" d=" M 133.26 373.10 C 134.87 372.55 135.44 373.10 134.97 374.75 C 133.36 375.28 132.79 374.73 133.26 373.10 Z" />
</g>
<g id="#cda32aff">
<path fill="#cda32a" opacity="1.00" d=" M 423.31 373.08 C 424.94 372.57 425.48 373.13 424.94 374.76 C 423.31 375.26 422.76 374.70 423.31 373.08 Z" />
</g>
<g id="#b19635ff">
<path fill="#b19635" opacity="1.00" d=" M 443.22 373.08 C 444.22 371.70 446.88 373.22 445.68 374.71 C 444.67 376.04 442.05 374.55 443.22 373.08 Z" />
</g>
<g id="#ad9731ff">
<path fill="#ad9731" opacity="1.00" d=" M 144.18 374.25 C 144.70 374.75 144.70 374.75 144.18 374.25 Z" />
</g>
<g id="#9ead2cff">
<path fill="#9ead2c" opacity="1.00" d=" M 454.26 374.33 C 454.76 374.84 454.76 374.84 454.26 374.33 Z" />
</g>
<g id="#9fb31eff">
<path fill="#9fb31e" opacity="1.00" d=" M 454.25 377.25 C 454.76 377.77 454.76 377.77 454.25 377.25 Z" />
</g>
<g id="#656364ff">
<path fill="#656364" opacity="1.00" d=" M 537.74 380.25 C 554.48 380.37 571.23 380.13 587.97 380.33 C 588.29 380.46 588.93 380.72 589.25 380.84 C 589.62 388.42 589.28 396.03 589.34 403.62 C 588.76 403.65 587.59 403.71 587.00 403.74 C 586.98 396.83 587.04 389.93 586.95 383.02 C 570.51 382.96 554.08 383.05 537.65 382.97 C 537.67 382.29 537.71 380.93 537.74 380.25 Z" />
</g>
<g id="#1c1d1aff">
<path fill="#1c1d1a" opacity="1.00" d=" M 44.01 383.07 C 60.38 382.96 76.74 383.09 93.10 383.00 L 93.12 384.36 C 77.17 384.46 61.21 384.44 45.26 384.37 C 45.19 390.85 45.22 397.33 45.20 403.81 L 44.01 403.81 C 43.91 396.90 43.87 389.98 44.01 383.07 Z" />
</g>
<g id="#1d1e1eff">
<path fill="#1d1e1e" opacity="1.00" d=" M 117.58 383.00 C 251.52 383.01 385.45 383.04 519.38 382.98 L 519.33 384.40 C 385.43 384.43 251.52 384.45 117.61 384.39 L 117.58 383.00 Z" />
</g>
<g id="#2b2c2aff">
<path fill="#2b2c2a" opacity="1.00" d=" M 537.65 382.97 C 554.08 383.05 570.51 382.96 586.95 383.02 C 587.04 389.93 586.98 396.83 587.00 403.74 C 586.58 403.76 585.73 403.79 585.31 403.80 C 585.33 397.55 585.73 391.27 585.21 385.04 C 584.13 384.02 582.38 384.62 581.05 384.41 C 566.58 384.48 552.10 384.58 537.62 384.37 L 537.65 382.97 Z" />
</g>
<g id="#808080ff">
<path fill="#808080" opacity="1.00" d=" M 45.26 384.37 C 61.21 384.44 77.17 384.46 93.12 384.36 C 93.13 386.13 93.12 387.90 93.12 389.68 C 79.34 389.48 65.55 389.54 51.77 389.65 C 51.69 394.33 51.67 399.02 51.70 403.70 C 50.47 403.73 49.25 403.76 48.02 403.79 C 47.32 403.79 45.91 403.81 45.20 403.81 C 45.22 397.33 45.19 390.85 45.26 384.37 Z" />
<path fill="#808080" opacity="1.00" d=" M 117.61 384.39 C 251.52 384.45 385.43 384.43 519.33 384.40 C 519.34 386.09 519.35 387.77 519.37 389.47 C 502.93 389.95 486.47 389.52 470.02 389.67 C 352.64 389.70 235.25 389.59 117.86 389.72 C 117.77 387.94 117.68 386.16 117.61 384.39 Z" />
<path fill="#808080" opacity="1.00" d=" M 537.62 384.37 C 552.10 384.58 566.58 384.48 581.05 384.41 C 582.38 384.62 584.13 384.02 585.21 385.04 C 585.73 391.27 585.33 397.55 585.31 403.80 C 584.54 403.81 582.99 403.83 582.22 403.84 C 581.46 403.83 579.94 403.83 579.19 403.83 C 579.07 399.10 579.04 394.37 579.04 389.64 C 565.24 389.56 551.43 389.50 537.63 389.69 C 537.63 387.91 537.61 386.14 537.62 384.37 Z" />
</g>
<g id="#c4c2adff">
<path fill="#c4c2ad" opacity="1.00" d=" M 51.77 389.65 C 65.55 389.54 79.34 389.48 93.12 389.68 L 93.12 390.96 C 79.80 391.29 66.48 390.98 53.16 391.09 C 53.13 395.31 53.18 399.54 53.29 403.77 C 65.00 404.01 76.74 403.44 88.44 404.11 C 86.72 404.55 85.01 405.06 83.30 405.56 C 83.46 405.90 83.79 406.60 83.95 406.94 C 79.79 406.85 75.63 407.02 71.49 407.34 C 64.03 406.80 56.54 407.14 49.07 406.97 C 48.72 405.91 48.37 404.84 48.02 403.79 C 49.25 403.76 50.47 403.73 51.70 403.70 C 51.67 399.02 51.69 394.33 51.77 389.65 Z" />
<path fill="#c4c2ad" opacity="1.00" d=" M 537.63 389.69 C 551.43 389.50 565.24 389.56 579.04 389.64 C 579.04 394.37 579.07 399.10 579.19 403.83 C 579.94 403.83 581.46 403.83 582.22 403.84 C 581.82 404.91 581.43 405.98 581.05 407.06 C 570.81 406.85 560.55 407.44 550.32 406.77 C 548.01 405.91 545.78 404.87 543.48 404.01 C 554.86 403.47 566.27 404.05 577.66 403.70 C 577.68 399.54 577.69 395.38 577.67 391.22 C 564.32 390.81 550.96 391.44 537.61 390.91 L 537.63 389.69 Z" />
</g>
<g id="#9a9a9aff">
<path fill="#9a9a9a" opacity="1.00" d=" M 53.16 391.09 C 66.48 390.98 79.80 391.29 93.12 390.96 C 93.13 395.14 93.17 399.31 93.16 403.49 C 91.58 403.64 90.01 403.88 88.44 404.11 C 76.74 403.44 65.00 404.01 53.29 403.77 C 53.18 399.54 53.13 395.31 53.16 391.09 Z" />
<path fill="#9a9a9a" opacity="1.00" d=" M 117.79 390.78 C 244.88 390.57 371.97 390.75 499.06 390.69 C 505.78 390.77 512.50 390.53 519.21 390.80 C 519.40 395.12 519.41 399.45 519.23 403.77 C 503.15 403.88 487.08 403.72 471.00 403.82 C 464.81 403.92 458.60 403.47 452.44 404.22 C 446.96 403.61 441.44 403.73 435.94 403.85 C 363.97 403.75 292.00 403.80 220.02 403.82 C 207.87 404.06 195.69 403.29 183.56 404.16 C 178.07 403.56 172.54 403.86 167.03 403.81 C 150.63 403.76 134.22 403.82 117.82 403.78 C 117.59 399.45 117.61 395.11 117.79 390.78 Z" />
<path fill="#9a9a9a" opacity="1.00" d=" M 537.61 390.91 C 550.96 391.44 564.32 390.81 577.67 391.22 C 577.69 395.38 577.68 399.54 577.66 403.70 C 566.27 404.05 554.86 403.47 543.48 404.01 C 541.66 403.89 539.85 403.80 538.04 403.70 C 537.80 399.44 537.71 395.17 537.61 390.91 Z" />
</g>
<g id="#c1be96ff">
<path fill="#c1be96" opacity="1.00" d=" M 536.87 403.48 C 537.41 399.31 537.49 395.10 537.61 390.91 C 537.71 395.17 537.80 399.44 538.04 403.70 C 539.85 403.80 541.66 403.89 543.48 404.01 C 545.78 404.87 548.01 405.91 550.32 406.77 C 547.42 406.75 544.54 407.04 541.66 407.27 C 538.14 407.20 534.62 407.11 531.11 406.96 C 531.07 406.20 530.98 404.68 530.94 403.92 C 532.91 403.77 534.88 403.62 536.87 403.48 Z" />
</g>
<g id="#c1bd97ff">
<path fill="#c1bd97" opacity="1.00" d=" M 34.91 403.92 C 37.06 403.86 39.21 403.82 41.37 403.81 C 42.03 403.81 43.35 403.81 44.01 403.81 L 45.20 403.81 C 45.91 403.81 47.32 403.79 48.02 403.79 C 48.37 404.84 48.72 405.91 49.07 406.97 C 44.37 407.04 39.67 407.13 34.98 406.90 C 34.96 406.16 34.93 404.67 34.91 403.92 Z" />
</g>
<g id="#c3be94ff">
<path fill="#c3be94" opacity="1.00" d=" M 113.24 403.90 C 114.77 403.85 116.29 403.79 117.82 403.78 C 134.22 403.82 150.63 403.76 167.03 403.81 C 172.54 403.86 178.07 403.56 183.56 404.16 C 191.59 406.18 199.94 404.50 208.09 405.49 C 205.26 405.78 202.43 406.15 199.62 406.58 C 185.76 407.33 171.83 406.99 157.95 407.08 C 143.04 407.00 128.13 407.25 113.23 406.99 C 113.23 406.22 113.24 404.67 113.24 403.90 Z" />
<path fill="#c3be94" opacity="1.00" d=" M 452.44 404.22 C 458.60 403.47 464.81 403.92 471.00 403.82 C 487.08 403.72 503.15 403.88 519.23 403.77 C 520.75 403.79 522.28 403.83 523.81 403.91 C 523.83 404.68 523.87 406.21 523.89 406.98 C 497.27 407.27 470.63 407.05 444.00 406.91 C 439.86 407.01 435.71 407.33 431.59 406.74 C 438.44 405.01 445.57 405.74 452.44 404.22 Z" />
</g>
<g id="#c2be97ff">
<path fill="#c2be97" opacity="1.00" d=" M 582.22 403.84 C 582.99 403.83 584.54 403.81 585.31 403.80 C 585.73 403.79 586.58 403.76 587.00 403.74 C 587.59 403.71 588.76 403.65 589.34 403.62 L 589.66 403.60 C 591.76 403.64 593.87 403.78 595.98 403.90 C 595.96 404.68 595.92 406.24 595.90 407.01 C 590.95 407.20 586.00 407.12 581.05 407.06 C 581.43 405.98 581.82 404.91 582.22 403.84 Z" />
</g>
</svg>
