<svg id="Layer_1" data-name="Layer 1" xmlns="http://www.w3.org/2000/svg" viewBox="0 0 1092.1 469.46"><defs><style>.cls-1{fill:#654040;}.cls-2{fill:#e0605e;}.cls-3{fill:#c78637;}.cls-4{fill:#a75d2e;}.cls-5{fill:#50b692;}.cls-6{fill:#40a57e;}.cls-7{fill:#fff;}.cls-8{fill:#4a4d65;}.cls-9{fill:#f67b65;}.cls-10{fill:#50a077;}.cls-11{fill:#e89c3f;}.cls-12{fill:#e87c40;}</style></defs><title>bird_1</title><path class="cls-1" d="M667.3,912.8c8.2-14,19.9-19.9,31.6-21.1s24.6,3.5,35.1,14c4.7,4.7,8.2,11.7,10.5,18.7,1.2,7,2.3,14,0,21.1-3.5,12.9-12.9,22.2-29.3,25.8-7-5.9-10.5-9.4-15.2-12.9-4.7-2.3-7-4.7-10.5-5.9-5.9-2.3-7,1.2-7,0v-2.3c0-1.1-1.2-3.5-2.3-7C676.7,936.3,673.2,926.9,667.3,912.8Z" transform="translate(-54 -501.84)"/><polygon class="cls-2" points="980.9 131.25 1092.1 230.75 948.1 236.56 980.9 131.25"/><path class="cls-3" d="M232.83,650.88s453-124.47,504.76-104c51.46,21.58,97.2,202.8-72.08,248.84C497.13,843.16,232.83,650.88,232.83,650.88Z" transform="translate(-54 -501.84)"/><path class="cls-4" d="M636,601.39c-11.81,4.45-23.72,8.87-34.38,13.69a54,54,0,0,0-14,8.75c-4.2,2.62-6.16,5.76-6.7,8.1a1.17,1.17,0,0,0,.89,1.44l1.17.27h0c.27-1.17.27-1.17,2.51-.65,5.75,1.33,17.67,1.74,26.2,1.25l147.19-12.77-138.39,58A399.58,399.58,0,0,0,580,698.94a149,149,0,0,0-15.73,10.73c-4.45,3.69-6.43,6.92-7.87,7.82-.27,1.17-.9-1.44-2-1.69s-.27,1.17,1.72,2.76c4.06,3.3,10.88,4.89,18.6,7.91,14.8,3.43,32.22,6.24,49.27,10.19a126.71,126.71,0,0,1-50.6,15.88,72.7,72.7,0,0,1-29.88-.87c-5.74-1.33-12.29-4.08-19-11.59a35.13,35.13,0,0,1-8.35-26c1.47-16.5,8.59-26.86,16.46-34.68a217.7,217.7,0,0,1,22.7-20c15.73-10.72,31.77-17.89,49.84-23.24l8.71,45.24c-8.51.38-15.33-1.2-22.42-1.61-6.82-1.58-14.81-3.43-23.44-7.8-2-1.69-4.31-2.23-6.3-3.82s-4.06-3.3-6-5c-1.72-2.76-3.79-4.47-5.49-7.33s-3.51-5.64-3.89-9.32a33.21,33.21,0,0,1-.6-18.21,37.82,37.82,0,0,1,7.11-15.18,41.08,41.08,0,0,1,22.44-14c7.61-1.82,13.9-2.83,21-2.32C611.28,594.42,624.09,596.26,636,601.39Z" transform="translate(-54 -501.84)"/><path class="cls-4" d="M524.82,635.65c-10.9,10.72-19.82,18.19-27.69,26-3.3,4.06-7.6,6.65-9.19,8.64s-.79,3.41-.27,1.17l.27-1.17c.27-1.17-.9-1.44-.65-2.51s-.9-1.44-2-1.69l-1.17-.27c-1.44.9,1.45,3.93,5.76,6.16,8.36,5.54,19,11.59,29.86,21.3-12.07,10.44-25,14.62-39.48,14.86-7.09-.41-16.5-1.46-26.85-8.58a35.27,35.27,0,0,1-6.66-7.6c-1.7-2.86-3.24-6.81-5-9.57-1.82-7.61-2.58-15-1-21.89a39.65,39.65,0,0,1,20.51-26.45,60.93,60.93,0,0,1,23.2-6.63C498.49,624.82,512.13,628,524.82,635.65Z" transform="translate(-54 -501.84)"/><path class="cls-5" d="M714.1,555.8C797.2,509,887.4,479.7,967,523c65.6,35.1,99.5,131.1,59.7,200.2-53.8,97.2-172.1,159.2-277.4,182.6C672,923.4,585.4,914,511.7,894.1c-63.2-17.6-120.6-57.4-140.5-64.4S54,837.9,54,837.9l8.2-135.8,313.7,87.8c39.8,11.7,138.1-96,168.6-118.2C591.2,638.9,650.9,592.1,714.1,555.8Z" transform="translate(-54 -501.84)"/><path class="cls-6" d="M865.1,864.8c-37.5,18.7-77.3,31.6-115.9,41-77.3,17.6-163.9,8.2-237.6-11.7-59.7-16.4-115.9-53.8-138.1-63.2,46.8,4.7,105.4,46.8,291.5,60.9C748.1,898.8,813.6,885.9,865.1,864.8Z" transform="translate(-54 -501.84)"/><path class="cls-7" d="M887.4,624.9c-8.2,23.4,4.7,49.2,28.1,56.2,23.4,8.2,49.2-4.7,56.2-28.1,8.2-23.4-4.7-49.2-28.1-56.2C920.2,588.6,894.4,601.5,887.4,624.9Z" transform="translate(-54 -501.84)"/><path class="cls-8" d="M895.6,627.2c-5.9,18.7,3.5,38.6,22.2,44.5s38.6-3.5,44.5-22.2-3.5-38.6-22.2-44.5C922.5,599.1,901.4,608.5,895.6,627.2Z" transform="translate(-54 -501.84)"/><path class="cls-9" d="M835.9,682.2c16.4,0,46.8-10.5,46.8-28.1s-29.3-30.4-45.7-31.6c-16.4,0-30.4,12.9-30.4,29.3S819.5,682.2,835.9,682.2Z" transform="translate(-54 -501.84)"/><path class="cls-1" d="M612.3,907c8.2-14,19.9-19.9,31.6-21.1s24.6,3.5,35.1,14c4.7,4.7,8.2,11.7,10.5,18.7,1.2,7,2.3,14,0,21.1-3.5,12.9-12.9,22.2-29.3,25.8-7-5.9-10.5-9.4-15.2-12.9-4.7-2.3-7-4.7-10.5-5.9-5.9-2.3-7,1.2-7,0v-2.3c0-1.1-1.2-3.5-2.3-7C622.8,931.6,619.3,922.2,612.3,907Z" transform="translate(-54 -501.84)"/><path class="cls-10" d="M374.7,799.3c-28.1,4.7-53.8,4.7-80.8,3.5s-52.7-4.7-78.4-9.4a563.5,563.5,0,0,1-76.1-19.9c-24.6-8.2-50.4-18.7-73.8-32.7,28.1-4.7,53.8-4.7,80.8-3.5s52.7,4.7,78.4,9.4a559.65,559.65,0,0,1,76.1,19.9C325.5,774.7,350.1,784.1,374.7,799.3Z" transform="translate(-54 -501.84)"/><path class="cls-10" d="M375.8,815.7c-25.8,8.2-52.7,11.7-78.4,14s-51.5,2.3-77.3,1.2-51.5-4.7-76.1-9.4c-25.8-4.7-50.3-11.7-76.1-23.4,25.8-8.2,52.7-11.7,78.4-14a433.85,433.85,0,0,1,77.3,0,541.94,541.94,0,0,1,76.1,9.4A256.71,256.71,0,0,1,375.8,815.7Z" transform="translate(-54 -501.84)"/><path class="cls-11" d="M669.61,605.49c-81,1.52-568.39,148.85-568.39,148.85s317.67,259.59,568.06,100.71C895.85,710.68,750.64,604,669.61,605.49Z" transform="translate(-54 -501.84)"/><path class="cls-12" d="M617.26,641.11a214.06,214.06,0,0,0-27.14,25.11c-7.81,8.77-16.42,18.46-17.74,26.17-.71,1,.25,1.68-.4,2.56a1.18,1.18,0,0,0,.26,1.68c.26,1.68,1,.71-.26-1.68a19.59,19.59,0,0,1-1.14-2.32l1.68-.26,2.56.39c7.54-.29,19.57-3,29.18-6.1l176.2-57.91L619,728c-6,4.27-14.47,9.72-18.61,15.36-2.07,2.82-4.15,5.64-4.6,8.28a5.15,5.15,0,0,0-1.1,3.54,1.18,1.18,0,0,0-.26-1.68,4.2,4.2,0,0,0-1.14-2.33c-1.15-2.33-2.82-2.07-2.82-2.07-1-.71,2.56.39,5.15.93,6.82.67,17.32-1.79,25.49-3.11l167-41.49-147.49,82c-10,5.67-21.43,13.29-27.17,19.24L612,808.51l-.71,1h0l-.26-1.67c-.25-1.68-1.14-2.33-1.46-3.93l-1-.71h0l1,.71c1,.71,3.54,1.11,5.47,2.53,10.36,1.78,23.67,1.39,37,1,13.14-2,27.11-3.28,41.14-4.64-11.11,9.21-23.51,16.11-35.82,23.07-13.28,6.25-26.56,12.5-43.17,13.33-4.18-.22-9.13.61-14.54-2-1-.71-2.56-.39-4.5-1.82-1-.71-2.82-2.07-4.5-1.81l-4.75-3.5c-1.93-1.42-3.08-3.75-4-4.46A31.65,31.65,0,0,1,576.58,813c.22-4.19-.61-9.14.58-12.61-.26-1.68,1.1-3.53.93-5.15l1.81-4.5a22.65,22.65,0,0,1,3.89-7.32c11.07-15.07,22.24-24.36,35-33.82l19.58,40.57a161.65,161.65,0,0,1-39.68,8.57c-7.53.29-16-.07-26.75-5.14-2.82-2.07-5.46-2.53-8.28-4.6s-4.93-5.11-7.1-8.07-3.57-7-4.8-9.35c-.49-3.22-1.71-5.61-2.14-8.9-.79-10.76,2-20.4,4.88-28.43,3.71-8.94,8.74-13.93,14.56-19.83,5.12-4.93,10.15-9.92,15.57-13.25,6-4.28,10.72-6.64,17.69-10.21L617,732.27c-14.68,2.25-27.82,4.26-44.21.9l-8.29-4.6c-2.56-.4-4.5-1.82-7-2.29-2.82-2.07-5.46-2.53-8.29-4.6s-4.93-5.11-7.1-8.07c-4.53-7.68-3.86-14.5-3-19.57.4-2.57.93-5.15,2.29-7s1.82-4.49,3.18-6.35c9.46-14.89,22.76-21,34.36-27C591.29,646.72,604.18,643,617.26,641.11Z" transform="translate(-54 -501.84)"/><path class="cls-12" d="M524.16,694.68l-26.68,22.47c-4.46,4-8.07,7.1-11.82,10.17s-6.54,6.87-6.93,9.43c-.71,1,.26,1.68,1.68-.25s-.3-7.54-1.26-8.25c-1.15-2.33,1.67-.26,5.86,0,7.71,1.32,19.43,1.25,27.85,1.61l110.25-1.77L522.2,774.53c-11,5-24,12.89-30.47,19.68-3.75,3.07-4.14,5.64-5.11,4.93l-.71,1a292.05,292.05,0,0,1,.51,3.36c.26,1.68,5.65,4.14,11.76,5.78s13.57,1.29,21.11,1c15-.65,30.64-2.18,46.29-3.72a173.73,173.73,0,0,1-41.9,27.3c-7.93,2.85-15.86,5.71-25.71,7.29-9.13.61-20.53,2.28-32.61-5.1a37.06,37.06,0,0,1-15.81-16c-2.11-3-2.69-6.31-4.09-10.32-.49-3.21-2-7.28-1.75-11.46.06-16,7.47-27.9,13.74-36.44,7.19-7.75,14.61-14,22.11-20.12a154.49,154.49,0,0,1,24-12.89l9.58,46.25c-13.58-1.29-24.65-2.1-38.71-6.6a34,34,0,0,1-10.79-5.08c-3.79-2.78-8.29-4.6-13.22-9.71A78.75,78.75,0,0,1,443.77,743a23.61,23.61,0,0,1-.39-13.32c1.32-7.71,4.82-12.47,8.57-15.55,6.53-6.86,12.78-9.46,19.1-12.14a73.08,73.08,0,0,1,18.43-5.33C499.83,694.18,511.47,694.05,524.16,694.68Z" transform="translate(-54 -501.84)"/><path class="cls-12" d="M428.12,740.27c-10.68,12.5-21.79,21.71-30.57,29.78-4.46,4-8.78,8.07-10.85,10.89-1.36,1.85-2.07,2.82-1.11,3.53l.71-1,.71-1c.71-1,.71-1,.4-2.56s.39-2.56.22-4.18c-.49-3.22-1.72-5.61-2.68-6.32l-1-.71,3.79,2.79c3.78,2.78,9.82,4.36,14.57,7.85,11.76,5.79,24.46,12.14,37,22.82-14.47,9.72-28.89,13.65-44.53,15.18a92,92,0,0,1-24.65-2.1c-4.49-1.81-9.64-2.74-14.32-6.18a42.64,42.64,0,0,1-8.71-7.89,32.73,32.73,0,0,1-7.4-15.61c-.49-3.22-1-6.57.1-10.1-.25-1.68.4-2.57.22-4.18.71-1,.4-2.57,1.11-3.54,1.1-3.53,3.89-7.31,5.25-9.17,4.14-5.64,7.89-8.72,12.53-11.14a77.42,77.42,0,0,1,23.54-10.25C397.21,735.05,413.09,735.06,428.12,740.27Z" transform="translate(-54 -501.84)"/></svg>