<?xml version="1.0" encoding="UTF-8" standalone="no"?>
<!DOCTYPE svg PUBLIC "-//W3C//DTD SVG 1.1//EN" "http://www.w3.org/Graphics/SVG/1.1/DTD/svg11.dtd">
<!-- Created with Vectornator (http://vectornator.io/) -->
<svg height="100%" stroke-miterlimit="10" style="fill-rule:nonzero;clip-rule:evenodd;stroke-linecap:round;stroke-linejoin:round;" version="1.1" viewBox="0 0 1200 1080" width="100%" xml:space="preserve" xmlns="http://www.w3.org/2000/svg" xmlns:vectornator="http://vectornator.io" xmlns:xlink="http://www.w3.org/1999/xlink">
<defs/>
<g id="Untitled" vectornator:layerName="Untitled">
<g opacity="1">
<path d="M202.794 664.528C202.794 664.528 639.014 490.049 692.702 504.534C746.252 520.211 812.024 695.159 648.975 759.896C486.98 825.963 202.794 664.528 202.794 664.528Z" fill="#c78637" fill-rule="nonzero" opacity="1" stroke="none"/>
<path d="M597.908 570.144C586.671 575.887 575.334 581.619 565.278 587.599C560.206 590.534 556.326 593.608 552.307 597.873C548.427 600.946 546.832 604.284 546.555 606.668C546.417 607.86 547.609 607.999 547.609 607.999L548.801 608.137L548.801 608.137C548.939 606.945 548.939 606.945 551.224 607.21C557.084 607.89 568.972 606.954 577.394 605.515L722.225 576.316L591.215 649.502C578.648 656.299 564.624 665.242 553.11 673.369C547.9 677.496 542.689 681.622 538.682 685.788C534.675 689.954 533.068 693.392 531.738 694.446C531.6 695.638 530.684 693.115 529.592 692.988C528.4 692.85 529.453 694.18 531.611 695.538C536.015 698.365 542.968 699.172 550.975 701.309C566.074 703.061 583.695 703.898 601.078 705.915C586.916 716.05 570.733 723.635 552.582 727.368C544.033 729.899 534.419 731.2 522.797 729.851C516.937 729.171 510.122 727.172 502.645 720.465C495.168 713.759 491.583 703.88 491.436 695.608C491.041 679.052 496.959 667.96 503.904 659.303C510.848 650.645 517.554 643.169 524.222 636.895C538.65 624.476 553.778 615.56 571.141 608.213L584.863 652.188C576.453 653.527 569.5 652.72 562.408 653.105C555.455 652.298 547.309 651.353 538.237 647.985C536.091 646.528 533.707 646.251 531.549 644.893C529.402 643.436 527.145 642.067 524.999 640.61C522.979 638.06 520.734 636.591 518.726 633.942C516.718 631.293 514.599 628.732 513.81 625.117C511.014 618.853 510.49 612.953 511.17 607.092C511.85 601.232 513.711 595.609 516.537 591.205C522.29 582.41 529.912 577.455 537.268 574.785C544.625 572.116 550.762 570.412 557.843 570.126C572.517 565.99 585.458 566.384 597.908 570.144Z" fill="#a75d2e" fill-rule="nonzero" opacity="1" stroke="none"/>
<path d="M667.3 912.8C675.5 898.8 687.2 892.9 698.9 891.7C710.6 890.5 723.5 895.2 734 905.7C738.7 910.4 742.2 917.4 744.5 924.4C745.7 931.4 746.8 938.4 744.5 945.5C741 958.4 731.6 967.7 715.2 971.3C708.2 965.4 704.7 961.9 700 958.4C695.3 956.1 693 953.7 689.5 952.5C683.6 950.2 682.5 953.7 682.5 952.5C682.5 952.5 682.5 951.3 682.5 950.2C682.5 949.1 681.3 946.7 680.2 943.2C676.7 936.3 673.2 926.9 667.3 912.8Z" fill="#654040" fill-rule="nonzero" opacity="1" stroke="none"/>
<path d="M1034.9 633.1L1146.1 732.6L1002.1 738.4L1034.9 633.1Z" fill="#e0605e" fill-rule="nonzero" opacity="1" stroke="none"/>
<path d="M714.1 555.8C797.2 509 887.4 479.7 967 523C1032.6 558.1 1066.5 654.1 1026.7 723.2C972.9 820.4 854.6 882.4 749.3 905.8C672 923.4 585.4 914 511.7 894.1C448.5 876.5 391.1 836.7 371.2 829.7C351.3 822.7 54 837.9 54 837.9L62.2 702.1L375.9 789.9C415.7 801.6 514 693.9 544.5 671.7C591.2 638.9 650.9 592.1 714.1 555.8Z" fill="#50b692" fill-rule="nonzero" opacity="1" stroke="none"/>
<path d="M865.1 864.8C827.6 883.5 787.8 896.4 749.2 905.8C671.9 923.4 585.3 914 511.6 894.1C451.9 877.7 395.7 840.3 373.5 830.9C420.3 835.6 478.9 877.7 665 891.8C748.1 898.8 813.6 885.9 865.1 864.8Z" fill="#40a57e" fill-rule="nonzero" opacity="1" stroke="none"/>
<g opacity="1">
<path d="M887.4 624.9C879.2 648.3 892.1 674.1 915.5 681.1C938.9 689.3 964.7 676.4 971.7 653C979.9 629.6 967 603.8 943.6 596.8C920.2 588.6 894.4 601.5 887.4 624.9Z" fill="#ffffff" fill-rule="nonzero" opacity="1" stroke="none"/>
<path d="M895.6 627.2C889.7 645.9 899.1 665.8 917.8 671.7C936.5 677.6 956.4 668.2 962.3 649.5C968.2 630.8 958.8 610.9 940.1 605C922.5 599.1 901.4 608.5 895.6 627.2Z" fill="#4a4d65" fill-rule="nonzero" opacity="1" stroke="none"/>
</g>
<path d="M835.9 682.2C852.3 682.2 882.7 671.7 882.7 654.1C882.7 636.5 853.4 623.7 837 622.5C820.6 622.5 806.6 635.4 806.6 651.8C806.6 668.2 819.5 682.2 835.9 682.2Z" fill="#f67b65" fill-rule="nonzero" opacity="1" stroke="none"/>
<path d="M612.3 907C620.5 893 632.2 887.1 643.9 885.9C655.6 884.7 668.5 889.4 679 899.9C683.7 904.6 687.2 911.6 689.5 918.6C690.7 925.6 691.8 932.6 689.5 939.7C686 952.6 676.6 961.9 660.2 965.5C653.2 959.6 649.7 956.1 645 952.6C640.3 950.3 638 947.9 634.5 946.7C628.6 944.4 627.5 947.9 627.5 946.7C627.5 946.7 627.5 945.5 627.5 944.4C627.5 943.3 626.3 940.9 625.2 937.4C622.8 931.6 619.3 922.2 612.3 907Z" fill="#654040" fill-rule="nonzero" opacity="1" stroke="none"/>
<path d="M374.7 799.3C346.6 804 320.9 804 293.9 802.8C266.9 801.6 241.2 798.1 215.5 793.4C189.8 788.7 164 781.7 139.4 773.5C114.8 765.3 89 754.8 65.6 740.8C93.7 736.1 119.4 736.1 146.4 737.3C173.4 738.5 199.1 742 224.8 746.7C250.6 751.4 276.3 758.4 300.9 766.6C325.5 774.7 350.1 784.1 374.7 799.3Z" fill="#50a077" fill-rule="nonzero" opacity="1" stroke="none"/>
<path d="M375.8 815.7C350 823.9 323.1 827.4 297.4 829.7C271.7 832 245.9 832 220.1 830.9C194.3 829.8 168.6 826.2 144 821.5C118.2 816.8 93.7 809.8 67.9 798.1C93.7 789.9 120.6 786.4 146.3 784.1C172 781.8 197.8 781.8 223.6 784.1C249.4 785.3 275.1 788.8 299.7 793.5C325.5 797 351.2 804 375.8 815.7Z" fill="#50a077" fill-rule="nonzero" opacity="1" stroke="none"/>
<g opacity="1">
<path d="M860.5 819.2C864 828.6 865.2 835.6 864 840.3C864 845 861.7 848.5 859.3 850.8C857 853.1 852.3 854.3 847.6 853.1C842.9 851.9 837.1 850.8 827.7 844.9C824.2 834.4 823 828.5 824.2 823.8C824.2 819.1 826.5 815.6 828.9 813.3C831.2 811 835.9 809.8 840.6 811C845.2 812.2 851.1 813.3 860.5 819.2Z" fill="#9cd5ac" fill-rule="nonzero" opacity="1" stroke="none"/>
<path d="M825.3 806.3C828.8 815.7 830 822.7 828.8 827.4C828.8 832.1 826.5 835.6 824.1 837.9C821.8 840.2 817.1 841.4 812.4 840.2C807.7 839 801.9 837.9 792.5 832C789 821.5 787.8 815.6 789 810.9C789 806.2 791.3 802.7 793.7 800.4C796 798.1 800.7 796.9 805.4 798.1C810.1 799.3 816 800.5 825.3 806.3Z" fill="#9cd5ac" fill-rule="nonzero" opacity="1" stroke="none"/>
<path d="M806.6 856.7C807.8 867.2 806.6 873.1 805.4 877.8C804.2 882.5 800.7 886 798.4 887.2C794.9 888.4 791.4 888.4 786.7 887.2C782 884.9 776.2 882.5 769.1 874.3C767.9 863.8 769.1 857.9 770.3 853.2C771.5 848.5 775 845 777.3 843.8C780.8 842.6 784.3 842.6 789 843.8C793.7 846.1 798.4 849.6 806.6 856.7Z" fill="#9cd5ac" fill-rule="nonzero" opacity="1" stroke="none"/>
<path d="M768 837.9C769.2 848.4 768 854.3 766.8 859C765.6 863.7 762.1 867.2 759.8 868.4C756.3 869.6 752.8 869.6 748.1 868.4C743.4 866.1 737.6 863.7 730.5 855.5C729.3 845 730.5 839.1 731.7 834.4C732.9 829.7 736.4 826.2 738.7 825C742.2 823.8 745.7 823.8 750.4 825C755.1 827.4 761 830.9 768 837.9Z" fill="#9cd5ac" fill-rule="nonzero" opacity="1" stroke="none"/>
<path d="M681.4 868.4C677.9 878.9 674.4 883.6 670.9 887.1C667.4 890.6 663.9 893 660.4 893C656.9 893 653.4 891.8 649.9 888.3C646.4 884.8 642.9 880.1 639.4 869.6C642.9 859.1 646.4 854.4 649.9 850.9C653.4 847.4 656.9 845 660.4 845C663.9 845 667.4 846.2 670.9 849.7C673.2 854.3 676.7 859 681.4 868.4Z" fill="#9cd5ac" fill-rule="nonzero" opacity="1" stroke="none"/>
<path d="M783.2 805.1C784.4 815.6 783.2 821.5 782 826.2C780.8 830.9 777.3 834.4 775 835.6C771.5 836.8 768 836.8 763.3 835.6C758.6 833.3 752.8 830.9 745.7 822.7C744.5 812.2 745.7 806.3 746.9 801.6C748.1 796.9 751.6 793.4 753.9 792.2C757.4 791 760.9 791 765.6 792.2C770.3 794.6 775 798.1 783.2 805.1Z" fill="#9cd5ac" fill-rule="nonzero" opacity="1" stroke="none"/>
<path d="M721.2 830.9C722.4 841.4 721.2 847.3 720 852C718.8 856.7 715.3 860.2 713 861.4C709.5 862.6 706 862.6 701.3 861.4C696.6 859.1 690.8 856.7 683.7 848.5C682.5 838 683.7 832.1 684.9 827.4C686.1 822.7 689.6 819.2 691.9 818C695.4 816.8 698.9 816.8 703.6 818C708.3 820.4 713 823.9 721.2 830.9Z" fill="#9cd5ac" fill-rule="nonzero" opacity="1" stroke="none"/>
<path d="M735.2 870.7C734 881.2 732.9 887.1 730.5 891.8C728.2 896.5 724.6 898.8 721.1 900C717.6 901.2 714.1 900 709.4 897.7C704.7 895.4 700 890.7 694.2 882.5C695.4 872 696.5 866.1 698.9 861.4C701.2 856.7 704.8 854.4 708.3 853.2C711.8 852 715.3 853.2 720 855.5C724.7 859 729.4 862.5 735.2 870.7Z" fill="#9cd5ac" fill-rule="nonzero" opacity="1" stroke="none"/>
</g>
<g opacity="1">
<g opacity="1">
<path d="M671.287 600.982C590.444 606.669 111.321 778.904 111.321 778.904C111.321 778.904 441.933 1021.79 683.81 850.223C902.648 694.375 752.131 595.296 671.287 600.982Z" fill="#e89c3f" fill-rule="nonzero" opacity="1" stroke="none"/>
<path d="M620.838 639.247C610.822 648.098 602.384 656.551 595.032 665.719C587.681 674.887 579.585 685.002 578.66 692.773C578 693.776 579.003 694.435 578.398 695.354C577.738 696.357 578.74 697.016 578.74 697.016C579.083 698.678 579.743 697.676 578.398 695.354C577.053 693.032 577.136 693.087 577.136 693.087L578.799 692.745L581.379 693.007C588.892 692.325 600.771 689.011 610.208 685.405L783.191 618.495L627.002 725.912C621.232 730.494 613.057 736.367 609.208 742.214C607.284 745.137 605.359 748.061 605.042 750.725C603.778 752.646 604.12 754.308 604.12 754.308C604.12 754.308 604.78 753.306 603.778 752.646C603.778 752.646 603.435 750.984 602.516 750.379C601.255 748.112 599.593 748.455 599.593 748.455C598.59 747.795 602.174 748.717 604.783 749.118C611.636 749.438 621.991 746.438 630.08 744.699L794.703 694.673L651.639 784.151C641.94 790.338 630.921 798.528 625.494 804.773C624.834 805.775 624.229 806.694 624.229 806.694L623.57 807.696L623.57 807.696L623.227 806.034C622.884 804.372 621.966 803.767 621.568 802.189L620.566 801.529L620.566 801.529L620.566 801.529C620.566 801.529 620.566 801.529 621.568 802.189C622.57 802.848 625.151 803.111 627.156 804.43C637.592 805.673 650.871 804.597 664.15 803.521C677.17 800.838 691.054 798.843 704.993 796.764C694.371 806.534 682.351 814.065 670.413 821.651C657.473 828.577 644.534 835.503 627.985 837.181C623.797 837.178 618.894 838.26 613.361 835.935C612.359 835.275 610.781 835.673 608.776 834.353C607.774 833.694 605.852 832.429 604.19 832.771C602.269 831.507 601.267 830.847 599.262 829.527C597.257 828.208 595.996 825.941 594.994 825.281C592.73 822.354 590.069 817.849 589.07 813.001C589.073 808.813 587.991 803.91 588.996 800.382C588.654 798.72 589.918 796.799 589.659 795.192L591.241 790.606C592.163 787.023 593.483 785.018 594.747 783.097C605.029 767.477 615.705 757.624 627.988 747.512L649.631 787.02C636.349 792.284 625.993 795.284 610.447 797.622C602.935 798.304 594.504 798.381 583.466 793.869C580.543 791.944 577.879 791.627 574.955 789.703C572.032 787.778 569.768 784.852 567.449 782.008C565.186 779.082 563.527 775.236 562.182 772.914C561.525 769.728 560.18 767.406 559.579 764.137C558.241 753.439 560.486 743.663 562.989 735.494C566.237 726.378 571.004 721.136 576.515 714.946C581.366 709.759 586.134 704.517 591.383 700.909C597.153 696.326 601.741 693.72 608.514 689.798L625.308 730.304C610.765 733.301 597.745 735.985 581.2 733.474L572.688 729.308C570.108 729.046 568.103 727.726 565.577 727.38C562.653 725.456 559.989 725.139 557.066 723.214C554.142 721.29 551.878 718.363 549.56 715.52C544.635 708.088 544.955 701.235 545.563 696.128C545.826 693.548 546.227 690.938 547.491 689.017C548.756 687.096 549.073 684.431 550.338 682.51C559.012 667.15 571.981 660.362 583.258 653.778C595.196 646.192 607.873 641.847 620.838 639.247Z" fill="#e87c40" fill-rule="nonzero" opacity="1" stroke="none"/>
<path d="M530.622 697.547L505.134 721.354C500.887 725.623 497.439 728.86 493.853 732.126C490.266 735.392 487.682 739.318 487.42 741.899C486.76 742.901 487.762 743.561 489.082 741.556C490.347 739.635 488.4 734.044 487.398 733.384C486.137 731.117 489.06 733.042 493.248 733.045C501.019 733.97 512.72 733.292 521.151 733.215L631.162 725.777L532.781 777.385C522.079 782.911 509.482 791.5 503.366 798.608C499.78 801.874 499.518 804.455 498.515 803.795C498.515 803.795 498.515 803.795 497.855 804.797C497.855 804.797 497.196 805.8 498.198 806.46C498.198 806.46 497.538 807.462 498.54 808.122C498.883 809.784 504.387 811.971 510.58 813.293C516.773 814.616 524.202 813.879 531.714 813.198C546.655 811.779 562.201 809.442 577.747 807.104C565.806 818.878 552.521 828.331 537.314 836.518C529.54 839.781 521.765 843.044 512.014 845.125C502.923 846.205 491.62 848.462 479.183 841.712C472.676 838.865 466.487 833.354 462.564 826.582C460.301 823.655 459.561 820.414 457.957 816.485C457.3 813.3 455.613 809.316 455.616 805.127C454.857 789.184 461.636 776.885 467.464 768.031C474.24 759.921 481.329 753.334 488.503 746.802C496.594 740.875 503.367 736.952 511.801 732.687L523.745 778.381C510.123 777.795 499.028 777.554 484.749 773.783C481.166 772.861 477.638 771.855 473.712 769.271C469.786 766.687 465.201 765.105 460.014 760.254C457.75 757.327 455.431 754.484 452.825 749.895C451.166 746.049 450.827 740.199 451.749 736.616C452.674 728.844 455.918 723.916 459.505 720.65C465.676 713.458 471.788 710.538 477.955 707.534C484.123 704.531 489.576 702.613 496.086 701.271C506.303 698.299 517.92 697.566 530.622 697.547Z" fill="#e87c40" fill-rule="nonzero" opacity="1" stroke="none"/>
<path d="M437.06 748.018C427.041 761.056 416.42 770.826 408.066 779.334C403.819 783.602 399.711 787.842 397.787 790.766C396.522 792.687 395.863 793.689 396.865 794.349C396.865 794.349 396.865 794.349 397.525 793.346L398.185 792.344C398.844 791.342 398.844 791.342 398.447 789.763C398.104 788.101 398.709 787.182 398.45 785.575C397.794 782.389 396.449 780.067 395.446 779.408C394.444 778.748 394.444 778.748 394.444 778.748C394.444 778.748 396.365 780.012 398.37 781.332C402.296 783.916 408.405 785.184 413.333 788.428C425.373 793.6 438.386 799.293 451.425 809.312C437.48 819.767 423.278 824.426 407.733 826.764C400.22 827.445 391.789 827.522 383.015 825.937C378.43 824.355 373.239 823.692 368.395 820.503C365.471 818.579 362.548 816.654 359.282 813.068C356.016 809.481 352.436 804.371 351.094 797.861C350.438 794.676 349.753 791.351 350.675 787.768C350.332 786.106 350.937 785.187 350.678 783.58C351.338 782.578 350.94 780.999 351.6 779.997C352.522 776.413 355.106 772.488 356.371 770.566C360.22 764.72 363.806 761.454 368.312 758.792C376.403 752.865 384.178 749.602 391.293 747.342C405.92 744.4 421.78 743.586 437.06 748.018Z" fill="#e87c40" fill-rule="nonzero" opacity="1" stroke="none"/>
</g>
</g>
<path d="M491.235 616.658C481.602 628.527 473.577 636.958 466.633 645.615C463.806 650.019 459.827 653.08 458.469 655.238C457.012 657.385 458.066 658.715 458.331 656.43L458.469 655.238C458.607 654.046 457.415 653.908 457.542 652.815C457.681 651.623 456.489 651.485 455.396 651.358L454.204 651.22C452.874 652.274 456.085 654.962 460.615 656.695C469.549 661.256 480.768 666.081 492.676 674.51C481.851 686.24 469.422 691.845 455.112 693.708C448.021 694.093 438.557 694.102 427.465 688.184C425.318 686.727 422.008 684.027 420 681.378C417.992 678.729 416.011 674.976 413.991 672.426C411.322 665.069 409.745 657.839 410.563 650.786C412.177 636.88 420.352 627.157 427.974 622.203C435.607 617.149 442.964 614.479 450.282 613.013C463.852 608.85 477.759 610.463 491.235 616.658Z" fill="#a75d2e" fill-rule="nonzero" opacity="1" stroke="none"/>
</g>
</g>
</svg>
