<svg id="Layer_1" data-name="Layer 1" xmlns="http://www.w3.org/2000/svg" viewBox="0 0 1092.1 819.46"><defs><style>.cls-1{fill:#654040;}.cls-2{fill:#e0605e;}.cls-3{fill:#c78637;}.cls-4{fill:#a75d2e;}.cls-5{fill:#50b692;}.cls-6{fill:#40a57e;}.cls-7{fill:#fff;}.cls-8{fill:#4a4d65;}.cls-9{fill:#f67b65;}.cls-10{fill:#50a077;}.cls-11{fill:#9cd5ac;}.cls-12{fill:#e89c3f;}.cls-13{fill:#e87c40;}</style></defs><title>bird_2</title><path class="cls-1" d="M655,632.46c8.2-14,19.9-19.9,31.6-21.1s24.6,3.5,35.1,14c4.7,4.7,8.2,11.7,10.5,18.7,1.2,7,2.3,14,0,21.1-3.5,12.9-12.9,22.2-29.3,25.8-7-5.9-10.5-9.4-15.2-12.9-4.7-2.3-7-4.7-10.5-5.9-5.9-2.3-7,1.2-7,0v-2.3c0-1.1-1.2-3.5-2.3-7C664.44,656,660.94,646.56,655,632.46Z" transform="translate(-41.74 -221.5)"/><polygon class="cls-2" points="980.9 131.25 1092.1 230.75 948.1 236.56 980.9 131.25"/><path class="cls-3" d="M416.75,764S608.66,335.11,657.3,308.16c49.37-26,218.34,53.89,146.27,213.83C733.19,682.16,416.75,764,416.75,764Z" transform="translate(-41.74 -221.5)"/><path class="cls-4" d="M634.87,421.24c-4.08,11.94-8.23,23.95-11.29,35.24a53.85,53.85,0,0,0-2.17,16.4c-.65,4.91.53,8.42,2,10.32a1.17,1.17,0,0,0,1.68.22l.95-.73h0c-.73-.95-.73-.95,1.1-2.35,4.68-3.59,12.57-12.53,17.61-19.42l83.71-121.75L685.28,482.89a400.64,400.64,0,0,0-10.77,43.66,148.54,148.54,0,0,0-1.72,19c0,5.78,1.26,9.36,1,11,.73,1-1.68-.23-2.56.44s.73,1,3.23.43c5.13-1,10.68-5.29,17.92-9.33,12.06-9.25,25.3-20.91,39.19-31.55a126.87,126.87,0,0,1-19.9,49.15A72.65,72.65,0,0,1,692,588.21c-4.68,3.59-11,6.89-21,7.28a35.17,35.17,0,0,1-25.35-10.06c-11.8-11.61-15.27-23.7-16.31-34.75a218,218,0,0,1-1-30.23c1.72-19,6.38-35.89,13.74-53.25l40.45,22c-5.11,6.81-10.66,11.07-15.49,16.28-5.55,4.26-12.06,9.25-20.92,13.14-2.56.45-4.46,1.91-7,2.44s-5.12,1-7.68,1.48c-3.22-.43-5.86.08-9.15-.43s-6.58-.87-9.67-2.91a33.4,33.4,0,0,1-14.43-11.11,37.93,37.93,0,0,1-7.2-15.15,41.14,41.14,0,0,1,3.46-26.22c3.43-7,6.65-12.53,11.54-17.66C613.74,435.92,623.31,427.2,634.87,421.24Z" transform="translate(-41.74 -221.5)"/><path class="cls-4" d="M590.61,528.87c1.34,15.23,1.45,26.86,2.48,37.91,1,5.13.31,10.1.83,12.6s2.13,2.77.73,1l-.73-1c-.73-1-1.68-.23-2.35-1.1s-1.68-.22-2.55.45l-1,.73c-.22,1.68,4,1.38,8.42-.53,9.59-2.94,21-7.28,35.42-9.51.39,16-4.64,28.63-13.62,39.92-4.83,5.21-11.62,11.81-23.7,15.27a35.11,35.11,0,0,1-10.1.31c-3.28-.51-7.32-1.83-10.54-2.25-7-3.43-13.2-7.52-17.52-13.16A39.64,39.64,0,0,1,549,576.87a61.26,61.26,0,0,1,9.63-22.12C565.51,542.31,576.62,533.8,590.61,528.87Z" transform="translate(-41.74 -221.5)"/><path class="cls-5" d="M701.84,275.46c83.1-46.8,173.3-76.1,252.9-32.8,65.6,35.1,99.5,131.1,59.7,200.2-53.8,97.2-172.1,159.2-277.4,182.6-77.3,17.6-163.9,8.2-237.6-11.7-63.2-17.6-120.6-57.4-140.5-64.4s-317.2,8.2-317.2,8.2l8.2-135.8,313.7,87.8c39.8,11.7,138.1-96,168.6-118.2C578.94,358.56,638.64,311.76,701.84,275.46Z" transform="translate(-41.74 -221.5)"/><path class="cls-6" d="M852.84,584.46c-37.5,18.7-77.3,31.6-115.9,41-77.3,17.6-163.9,8.2-237.6-11.7-59.7-16.4-115.9-53.8-138.1-63.2,46.8,4.7,105.4,46.8,291.5,60.9C735.84,618.46,801.34,605.56,852.84,584.46Z" transform="translate(-41.74 -221.5)"/><path class="cls-7" d="M875.14,344.56c-8.2,23.4,4.7,49.2,28.1,56.2,23.4,8.2,49.2-4.7,56.2-28.1,8.2-23.4-4.7-49.2-28.1-56.2C907.94,308.26,882.14,321.16,875.14,344.56Z" transform="translate(-41.74 -221.5)"/><path class="cls-8" d="M883.34,346.86c-5.9,18.7,3.5,38.6,22.2,44.5s38.6-3.5,44.5-22.2-3.5-38.6-22.2-44.5C910.24,318.76,889.14,328.16,883.34,346.86Z" transform="translate(-41.74 -221.5)"/><path class="cls-9" d="M823.64,401.86c16.4,0,46.8-10.5,46.8-28.1s-29.3-30.4-45.7-31.6c-16.4,0-30.4,12.9-30.4,29.3S807.24,401.86,823.64,401.86Z" transform="translate(-41.74 -221.5)"/><path class="cls-1" d="M600,626.66c8.2-14,19.9-19.9,31.6-21.1s24.6,3.5,35.1,14c4.7,4.7,8.2,11.7,10.5,18.7,1.2,7,2.3,14,0,21.1-3.5,12.9-12.9,22.2-29.3,25.8-7-5.9-10.5-9.4-15.2-12.9-4.7-2.3-7-4.7-10.5-5.9-5.9-2.3-7,1.2-7,0v-2.3c0-1.1-1.2-3.5-2.3-7C610.54,651.26,607,641.86,600,626.66Z" transform="translate(-41.74 -221.5)"/><path class="cls-10" d="M362.44,519c-28.1,4.7-53.8,4.7-80.8,3.5s-52.7-4.7-78.4-9.4a563.5,563.5,0,0,1-76.1-19.9c-24.6-8.2-50.4-18.7-73.8-32.7,28.1-4.7,53.8-4.7,80.8-3.5s52.7,4.7,78.4,9.4a559.65,559.65,0,0,1,76.1,19.9C313.24,494.36,337.84,503.76,362.44,519Z" transform="translate(-41.74 -221.5)"/><path class="cls-10" d="M363.54,535.36c-25.8,8.2-52.7,11.7-78.4,14s-51.5,2.3-77.3,1.2-51.5-4.7-76.1-9.4c-25.8-4.7-50.3-11.7-76.1-23.4,25.8-8.2,52.7-11.7,78.4-14a433.85,433.85,0,0,1,77.3,0,541.94,541.94,0,0,1,76.1,9.4A256.71,256.71,0,0,1,363.54,535.36Z" transform="translate(-41.74 -221.5)"/><path class="cls-11" d="M848.24,538.86c3.5,9.4,4.7,16.4,3.5,21.1a14.43,14.43,0,0,1-4.7,10.5c-2.3,2.3-7,3.5-11.7,2.3a58.2,58.2,0,0,1-19.9-8.2c-3.5-10.5-4.7-16.4-3.5-21.1a14.43,14.43,0,0,1,4.7-10.5c2.3-2.3,7-3.5,11.7-2.3A59,59,0,0,1,848.24,538.86Z" transform="translate(-41.74 -221.5)"/><path class="cls-11" d="M813,526c3.5,9.4,4.7,16.4,3.5,21.1a14.43,14.43,0,0,1-4.7,10.5c-2.3,2.3-7,3.5-11.7,2.3a58.2,58.2,0,0,1-19.9-8.2c-3.5-10.5-4.7-16.4-3.5-21.1a14.43,14.43,0,0,1,4.7-10.5c2.3-2.3,7-3.5,11.7-2.3A59.56,59.56,0,0,1,813,526Z" transform="translate(-41.74 -221.5)"/><path class="cls-11" d="M794.34,576.36c1.2,10.5,0,16.4-1.2,21.1a15.69,15.69,0,0,1-7,9.4c-3.5,1.2-7,1.2-11.7,0-4.7-2.3-10.5-4.7-17.6-12.9-1.2-10.5,0-16.4,1.2-21.1a15.69,15.69,0,0,1,7-9.4c3.5-1.2,7-1.2,11.7,0C781.44,565.76,786.14,569.26,794.34,576.36Z" transform="translate(-41.74 -221.5)"/><path class="cls-11" d="M755.74,557.56c1.2,10.5,0,16.4-1.2,21.1a15.69,15.69,0,0,1-7,9.4c-3.5,1.2-7,1.2-11.7,0-4.7-2.3-10.5-4.7-17.6-12.9-1.2-10.5,0-16.4,1.2-21.1a15.69,15.69,0,0,1,7-9.4c3.5-1.2,7-1.2,11.7,0A66.32,66.32,0,0,1,755.74,557.56Z" transform="translate(-41.74 -221.5)"/><path class="cls-11" d="M669.14,588.06c-3.5,10.5-7,15.2-10.5,18.7s-7,5.9-10.5,5.9-7-1.2-10.5-4.7-7-8.2-10.5-18.7c3.5-10.5,7-15.2,10.5-18.7s7-5.9,10.5-5.9,7,1.2,10.5,4.7C660.94,574,664.44,578.66,669.14,588.06Z" transform="translate(-41.74 -221.5)"/><path class="cls-11" d="M770.94,524.76c1.2,10.5,0,16.4-1.2,21.1a15.69,15.69,0,0,1-7,9.4c-3.5,1.2-7,1.2-11.7,0-4.7-2.3-10.5-4.7-17.6-12.9-1.2-10.5,0-16.4,1.2-21.1a15.69,15.69,0,0,1,7-9.4c3.5-1.2,7-1.2,11.7,0C758,514.26,762.74,517.76,770.94,524.76Z" transform="translate(-41.74 -221.5)"/><path class="cls-11" d="M708.94,550.56c1.2,10.5,0,16.4-1.2,21.1a15.69,15.69,0,0,1-7,9.4c-3.5,1.2-7,1.2-11.7,0-4.7-2.3-10.5-4.7-17.6-12.9-1.2-10.5,0-16.4,1.2-21.1a15.69,15.69,0,0,1,7-9.4c3.5-1.2,7-1.2,11.7,0C696,540.06,700.74,543.56,708.94,550.56Z" transform="translate(-41.74 -221.5)"/><path class="cls-11" d="M722.94,590.36c-1.2,10.5-2.3,16.4-4.7,21.1a15.68,15.68,0,0,1-9.4,8.2c-3.5,1.2-7,0-11.7-2.3s-9.4-7-15.2-15.2c1.2-10.5,2.3-16.4,4.7-21.1a15.68,15.68,0,0,1,9.4-8.2c3.5-1.2,7,0,11.7,2.3A59.77,59.77,0,0,1,722.94,590.36Z" transform="translate(-41.74 -221.5)"/><path class="cls-12" d="M632.89,453.46C612.83,532,625.43,1041,625.43,1041s334.64-237.3,248-520.9C794.39,263.28,653,374.94,632.89,453.46Z" transform="translate(-41.74 -221.5)"/><path class="cls-13" d="M653.32,513.39a215.45,215.45,0,0,0,17,32.83c6.39,9.86,13.44,20.73,20.53,24.06.74.94,1.68.2,2.36,1.06a1.18,1.18,0,0,0,1.69.2c1.68.2.94-.75-1.69-.2a16.18,16.18,0,0,1-2.55.48l.2-1.68,1.06-2.37c1.72-7.34,2.32-19.66,1.87-29.75l-9-185.26,52.77,182.07c2.53,6.92,5.53,16.53,9.87,22,2.17,2.75,4.34,5.5,6.77,6.64a5.13,5.13,0,0,0,3.11,2,1.18,1.18,0,0,0-1.69-.2,4.14,4.14,0,0,0-2.55.49c-2.54.48-2.74,2.16-2.74,2.16-.95.75,1.06-2.36,2.26-4.71,2.46-6.41,2.88-17.18,3.77-25.4l4.36-172,39.88,164c2.81,11.15,7.12,24.19,11.34,31.3l1.42,1.81.74.94h0l-1.68-.2c-1.69-.19-2.55.49-4.17.37l-.94.74h0l.94-.74c.94-.75,2-3.11,3.88-4.6,4.47-9.51,7.63-22.46,10.79-35.4,1.55-13.2,4-27,6.45-40.89,5.93,13.16,9.29,26.94,12.73,40.66,2.5,14.46,5,28.92,1.38,45.16-1.32,4-1.84,9-5.79,13.48-.94.75-1.06,2.37-2.94,3.86-.94.74-2.75,2.17-3,3.85l-4.63,3.66c-1.88,1.48-4.43,2-5.37,2.71a31.57,31.57,0,0,1-13.52,1.76c-4-1.32-9-1.84-12-3.91-1.69-.2-3.12-2-4.72-2.26l-3.86-3a22.37,22.37,0,0,1-6-5.69c-11.59-14.68-17.58-27.91-23.31-42.75l44.32-8.1a161.28,161.28,0,0,1-2.28,40.52c-1.72,7.35-4.3,15.38-12.06,24.43-2.74,2.17-3.88,4.6-6.63,6.77s-6.24,3.39-9.67,4.7-7.66,1.59-10.29,2.13c-3.23-.38-5.86.17-9.15-.29-10.57-2.1-19.15-7.31-26.11-12.26-7.63-6-11.1-12.12-15.24-19.3-3.4-6.24-6.87-12.42-8.65-18.54C700,553.85,699,548.67,697.42,541l43.74-3.19c-1.74,14.75-3.29,27.95-10.88,42.86l-6.64,6.77c-1.06,2.37-2.94,3.85-4.07,6.14-2.74,2.17-3.88,4.6-6.63,6.77s-6.24,3.4-9.67,4.7c-8.6,2.34-15-.13-19.66-2.31-2.37-1.06-4.72-2.27-6.14-4.07s-3.86-2.95-5.28-4.75c-11.85-13.07-14.21-27.52-16.91-40.3C651.84,539.92,651.71,526.52,653.32,513.39Z" transform="translate(-41.74 -221.5)"/><path class="cls-13" d="M680.25,617.38l14.57,31.68c2.71,5.38,4.7,9.67,6.67,14.1s4.89,8.12,7.25,9.19c.75.94,1.69.19.2-1.69s-7.34-1.72-8.29-1c-2.55.48.2-1.69,1.52-5.66,3.33-7.09,6.37-18.41,9-26.43L738.7,530.84l18,109.63c1.87,11.89,6.06,26.56,10.88,34.6,2,4.43,4.34,5.49,3.39,6.24l.75.94a259.6,259.6,0,0,0,3.37.39c1.68.2,5.49-4.33,8.7-9.79s4.84-12.75,6.56-20.09c3.36-14.63,6-30.12,8.71-45.61a173.43,173.43,0,0,1,15.19,47.63c.65,8.41,1.3,16.82.2,26.73-1.84,9-3.25,20.41-13.58,30.08a37.11,37.11,0,0,1-19.59,11c-3.49,1.23-6.8.91-11,1.2-3.23-.38-7.55,0-11.52-1.36-15.37-4.3-24.91-14.6-31.48-22.92-5.56-9-9.58-17.79-13.52-26.66a154.36,154.36,0,0,1-6.06-26.56l47.13,3.06c-4.85,12.74-8.57,23.2-16.65,35.56A33.85,33.85,0,0,1,730.4,694c-3.68,2.91-6.63,6.76-12.87,10.16a80,80,0,0,1-12.09,3.56,23.71,23.71,0,0,1-12.94-3.16c-7.09-3.33-10.75-8-12.72-12.39-4.88-8.12-5.73-14.84-6.63-21.64a73,73,0,0,1-.24-19.18C673.31,640.69,676.27,629.44,680.25,617.38Z" transform="translate(-41.74 -221.5)"/><path class="cls-13" d="M698.69,722.07c9.22,13.62,15.15,26.77,20.59,37.38,2.72,5.38,5.45,10.61,7.62,13.36,1.42,1.8,2.17,2.74,3.11,2l-.74-.94-.75-.94c-.74-.95-.74-.95-2.37-1.07s-2.36-1.06-4-1.32c-3.23-.38-5.86.17-6.8.91l-.94.75,3.69-2.92c3.69-2.91,6.81-8.31,11.44-12,8.7-9.8,18.21-20.36,31.82-29.58,5.53,16.53,5.48,31.47,2.81,47a91.88,91.88,0,0,1-8.57,23.2c-3,3.86-5.21,8.57-9.76,12.17a43,43,0,0,1-9.93,6.31,32.66,32.66,0,0,1-17,3c-3.23-.38-6.6-.78-9.71-2.78-1.69-.2-2.37-1.06-4-1.32-.74-1-2.36-1.07-3.11-2-3.11-2-6-5.69-7.45-7.49-4.33-5.5-6.3-9.93-7.41-15a77.08,77.08,0,0,1-3.63-25.41C685.45,750.49,689.67,735.18,698.69,722.07Z" transform="translate(-41.74 -221.5)"/></svg>