<?xml version="1.0" encoding="utf-8"?>
<!-- Generator: Adobe Illustrator 23.0.3, SVG Export Plug-In . SVG Version: 6.00 Build 0)  -->
<svg version="1.1" id="Layer_1" xmlns="http://www.w3.org/2000/svg" xmlns:xlink="http://www.w3.org/1999/xlink" x="0px" y="0px"
	 viewBox="0 0 1200 1080" style="enable-background:new 0 0 1200 1080;" xml:space="preserve">
<style type="text/css">
	.st0{fill:#C78637;}
	.st1{fill:#A75D2E;}
	.st2{fill:#654040;}
	.st3{fill:#E0605E;}
	.st4{fill:#50B692;}
	.st5{fill:#40A57E;}
	.st6{fill:#FFFFFF;}
	.st7{fill:#4A4D65;}
	.st8{fill:#F67B65;}
	.st9{fill:#50A077;}
	.st10{fill:#9CD5AC;}
	.st11{fill:#E89C3F;}
	.st12{fill:#E87C40;}
</style>
<g>
	<path class="st0" d="M600.6,108.6c0,0,223.6,413.2,215.4,468.2c-9.4,55-175.6,140.5-258.7-14C473,409.5,600.6,108.6,600.6,108.6z"
		/>
	<g>
		<path class="st1" d="M739.9,490.2c-7-10.5-14-21.1-21.1-30.4c-3.5-4.7-7-8.2-11.7-11.7c-3.5-3.5-7-4.7-9.4-4.7
			c-1.2,0-1.2,1.2-1.2,1.2v1.2l0,0c1.2,0,1.2,0,1.2,2.3c0,5.9,2.3,17.6,4.7,25.8l45.7,140.5l-87.8-121.7
			c-8.2-11.7-18.7-24.6-28.1-35.1c-4.7-4.7-9.4-9.4-14-12.9s-8.2-4.7-9.4-5.9c-1.2,0,1.2-1.2,1.2-2.3c0-1.2-1.2,0-2.3,2.3
			c-2.3,4.7-2.3,11.7-3.5,19.9c0,15.2,1.2,32.8,1.2,50.3c-11.7-12.9-21.1-28.1-26.9-45.7c-3.5-8.2-5.9-17.6-5.9-29.3
			c0-5.9,1.2-12.9,7-21.1s15.2-12.9,23.4-14c16.4-2.3,28.1,2.3,37.5,8.2c9.4,5.9,17.6,11.7,24.6,17.6c14,12.9,24.6,26.9,33.9,43.3
			l-42.1,18.7c-2.3-8.2-2.3-15.2-3.5-22.2c0-7,0-15.2,2.3-24.6c1.2-2.3,1.2-4.7,2.3-7c1.2-2.3,2.3-4.7,3.5-7c2.3-2.3,3.5-4.7,5.9-7
			s4.7-4.7,8.2-5.9c5.9-3.5,11.7-4.7,17.6-4.7s11.7,1.2,16.4,3.5c9.4,4.7,15.2,11.7,18.7,18.7s5.9,12.9,7,19.9
			C741.1,464.5,742.2,477.4,739.9,490.2z"/>
	</g>
	<g>
		<path class="st2" d="M667.3,912.8c8.2-14,19.9-19.9,31.6-21.1c11.7-1.2,24.6,3.5,35.1,14c4.7,4.7,8.2,11.7,10.5,18.7
			c1.2,7,2.3,14,0,21.1c-3.5,12.9-12.9,22.2-29.3,25.8c-7-5.9-10.5-9.4-15.2-12.9c-4.7-2.3-7-4.7-10.5-5.9c-5.9-2.3-7,1.2-7,0
			c0,0,0-1.2,0-2.3s-1.2-3.5-2.3-7C676.7,936.3,673.2,926.9,667.3,912.8z"/>
	</g>
	<polygon class="st3" points="1034.9,633.1 1146.1,732.6 1002.1,738.4 	"/>
	<path class="st4" d="M714.1,555.8C797.2,509,887.4,479.7,967,523c65.6,35.1,99.5,131.1,59.7,200.2
		c-53.8,97.2-172.1,159.2-277.4,182.6c-77.3,17.6-163.9,8.2-237.6-11.7c-63.2-17.6-120.6-57.4-140.5-64.4S54,837.9,54,837.9
		l8.2-135.8l313.7,87.8c39.8,11.7,138.1-96,168.6-118.2C591.2,638.9,650.9,592.1,714.1,555.8z"/>
	<path class="st5" d="M865.1,864.8c-37.5,18.7-77.3,31.6-115.9,41c-77.3,17.6-163.9,8.2-237.6-11.7
		c-59.7-16.4-115.9-53.8-138.1-63.2c46.8,4.7,105.4,46.8,291.5,60.9C748.1,898.8,813.6,885.9,865.1,864.8z"/>
	<g>
		<path class="st6" d="M887.4,624.9c-8.2,23.4,4.7,49.2,28.1,56.2c23.4,8.2,49.2-4.7,56.2-28.1c8.2-23.4-4.7-49.2-28.1-56.2
			C920.2,588.6,894.4,601.5,887.4,624.9z"/>
		<path class="st7" d="M895.6,627.2c-5.9,18.7,3.5,38.6,22.2,44.5s38.6-3.5,44.5-22.2s-3.5-38.6-22.2-44.5
			C922.5,599.1,901.4,608.5,895.6,627.2z"/>
	</g>
	<path class="st8" d="M835.9,682.2c16.4,0,46.8-10.5,46.8-28.1s-29.3-30.4-45.7-31.6c-16.4,0-30.4,12.9-30.4,29.3
		S819.5,682.2,835.9,682.2z"/>
	<g>
		<path class="st2" d="M612.3,907c8.2-14,19.9-19.9,31.6-21.1c11.7-1.2,24.6,3.5,35.1,14c4.7,4.7,8.2,11.7,10.5,18.7
			c1.2,7,2.3,14,0,21.1c-3.5,12.9-12.9,22.2-29.3,25.8c-7-5.9-10.5-9.4-15.2-12.9c-4.7-2.3-7-4.7-10.5-5.9c-5.9-2.3-7,1.2-7,0
			c0,0,0-1.2,0-2.3s-1.2-3.5-2.3-7C622.8,931.6,619.3,922.2,612.3,907z"/>
	</g>
	<g>
		<path class="st9" d="M374.7,799.3c-28.1,4.7-53.8,4.7-80.8,3.5s-52.7-4.7-78.4-9.4s-51.5-11.7-76.1-19.9S89,754.8,65.6,740.8
			c28.1-4.7,53.8-4.7,80.8-3.5s52.7,4.7,78.4,9.4c25.8,4.7,51.5,11.7,76.1,19.9C325.5,774.7,350.1,784.1,374.7,799.3z"/>
	</g>
	<g>
		<path class="st9" d="M375.8,815.7c-25.8,8.2-52.7,11.7-78.4,14s-51.5,2.3-77.3,1.2s-51.5-4.7-76.1-9.4
			c-25.8-4.7-50.3-11.7-76.1-23.4c25.8-8.2,52.7-11.7,78.4-14s51.5-2.3,77.3,0c25.8,1.2,51.5,4.7,76.1,9.4
			C325.5,797,351.2,804,375.8,815.7z"/>
	</g>
	<g>
		<g>
			<path class="st10" d="M860.5,819.2c3.5,9.4,4.7,16.4,3.5,21.1c0,4.7-2.3,8.2-4.7,10.5c-2.3,2.3-7,3.5-11.7,2.3
				s-10.5-2.3-19.9-8.2c-3.5-10.5-4.7-16.4-3.5-21.1c0-4.7,2.3-8.2,4.7-10.5c2.3-2.3,7-3.5,11.7-2.3
				C845.2,812.2,851.1,813.3,860.5,819.2z"/>
		</g>
		<g>
			<path class="st10" d="M825.3,806.3c3.5,9.4,4.7,16.4,3.5,21.1c0,4.7-2.3,8.2-4.7,10.5c-2.3,2.3-7,3.5-11.7,2.3
				s-10.5-2.3-19.9-8.2c-3.5-10.5-4.7-16.4-3.5-21.1c0-4.7,2.3-8.2,4.7-10.5c2.3-2.3,7-3.5,11.7-2.3S816,800.5,825.3,806.3z"/>
		</g>
		<g>
			<path class="st10" d="M806.6,856.7c1.2,10.5,0,16.4-1.2,21.1s-4.7,8.2-7,9.4c-3.5,1.2-7,1.2-11.7,0c-4.7-2.3-10.5-4.7-17.6-12.9
				c-1.2-10.5,0-16.4,1.2-21.1s4.7-8.2,7-9.4c3.5-1.2,7-1.2,11.7,0C793.7,846.1,798.4,849.6,806.6,856.7z"/>
		</g>
		<g>
			<path class="st10" d="M768,837.9c1.2,10.5,0,16.4-1.2,21.1c-1.2,4.7-4.7,8.2-7,9.4c-3.5,1.2-7,1.2-11.7,0
				c-4.7-2.3-10.5-4.7-17.6-12.9c-1.2-10.5,0-16.4,1.2-21.1c1.2-4.7,4.7-8.2,7-9.4c3.5-1.2,7-1.2,11.7,0
				C755.1,827.4,761,830.9,768,837.9z"/>
		</g>
		<g>
			<path class="st10" d="M681.4,868.4c-3.5,10.5-7,15.2-10.5,18.7s-7,5.9-10.5,5.9s-7-1.2-10.5-4.7s-7-8.2-10.5-18.7
				c3.5-10.5,7-15.2,10.5-18.7s7-5.9,10.5-5.9s7,1.2,10.5,4.7C673.2,854.3,676.7,859,681.4,868.4z"/>
		</g>
		<g>
			<path class="st10" d="M783.2,805.1c1.2,10.5,0,16.4-1.2,21.1c-1.2,4.7-4.7,8.2-7,9.4c-3.5,1.2-7,1.2-11.7,0
				c-4.7-2.3-10.5-4.7-17.6-12.9c-1.2-10.5,0-16.4,1.2-21.1s4.7-8.2,7-9.4c3.5-1.2,7-1.2,11.7,0C770.3,794.6,775,798.1,783.2,805.1z
				"/>
		</g>
		<g>
			<path class="st10" d="M721.2,830.9c1.2,10.5,0,16.4-1.2,21.1s-4.7,8.2-7,9.4c-3.5,1.2-7,1.2-11.7,0c-4.7-2.3-10.5-4.7-17.6-12.9
				c-1.2-10.5,0-16.4,1.2-21.1c1.2-4.7,4.7-8.2,7-9.4c3.5-1.2,7-1.2,11.7,0C708.3,820.4,713,823.9,721.2,830.9z"/>
		</g>
		<g>
			<path class="st10" d="M735.2,870.7c-1.2,10.5-2.3,16.4-4.7,21.1c-2.3,4.7-5.9,7-9.4,8.2s-7,0-11.7-2.3s-9.4-7-15.2-15.2
				c1.2-10.5,2.3-16.4,4.7-21.1c2.3-4.7,5.9-7,9.4-8.2s7,0,11.7,2.3C724.7,859,729.4,862.5,735.2,870.7z"/>
		</g>
	</g>
	<g>
		<path class="st11" d="M773.8,605c-49.2-64.4-456.5-369.9-456.5-369.9s-21.1,409.7,255.2,517.4C823,849.6,823,669.4,773.8,605z"/>
		<g>
			<path class="st12" d="M714.1,583.9c-12.9-3.5-24.6-5.9-36.3-7s-24.6-2.3-31.6,1.2c-1.2,0-1.2,1.2-2.3,1.2c-1.2,0-1.2,1.2-1.2,1.2
				c-1.2,1.2,0,1.2,1.2-1.2s1.2-2.3,1.2-2.3l1.2,1.2l1.2,2.3c4.7,5.9,14,14,22.2,19.9l151,107.7l-175.6-71.4
				c-7-2.3-16.4-5.9-23.4-5.9c-3.5,0-7,0-9.4,1.2c-2.3,0-3.5,1.2-3.5,1.2s1.2,0,1.2-1.2c0,0,1.2-1.2,1.2-2.3c1.2-2.3,0-3.5,0-3.5
				c0-1.2,1.2,2.3,2.3,4.7c3.5,5.9,11.7,12.9,17.6,18.7l132.3,110L610,689.3c-10.5-4.7-23.4-9.4-31.6-10.5c-1.2,0-2.3,0-2.3,0h-1.2
				l0,0l1.2-1.2c1.2-1.2,1.2-2.3,2.3-3.5v-1.2l0,0l0,0c0,0,0,0,0,1.2s1.2,3.5,1.2,5.9c4.7,9.4,12.9,19.9,21.1,30.4
				c9.4,9.4,18.7,19.9,28.1,30.4c-14-3.5-26.9-9.4-39.8-15.2c-12.9-7-25.8-14-36.3-26.9c-2.3-3.5-5.9-7-7-12.9
				c0-1.2-1.2-2.3-1.2-4.7c0-1.2,0-3.5-1.2-4.7c0-2.3,0-3.5,0-5.9s1.2-4.7,1.2-5.9c1.2-3.5,3.5-8.2,7-11.7c3.5-2.3,7-5.9,10.5-7
				c1.2-1.2,3.5-1.2,4.7-2.3l4.7-1.2c3.5-1.2,5.9-1.2,8.2-1.2c18.7,0,32.8,3.5,48,8.2l-21.1,39.8c-11.7-8.2-19.9-15.2-30.4-26.9
				c-4.7-5.9-9.4-12.9-11.7-24.6c0-3.5-1.2-5.9-1.2-9.4s1.2-7,2.3-10.5c1.2-3.5,3.5-7,4.7-9.4c2.3-2.3,3.5-4.7,5.9-7
				c8.2-7,17.6-10.5,25.8-12.9c9.4-2.3,16.4-1.2,24.6,0c7,1.2,14,2.3,19.9,4.7c7,2.3,11.7,4.7,18.7,8.2l-24.6,36.3
				c-10.5-10.5-19.9-19.9-26.9-35.1l-1.2-9.4c-1.2-2.3-1.2-4.7-2.3-7c0-3.5-1.2-5.9-1.2-9.4s1.2-7,2.3-10.5c3.5-8.2,9.4-11.7,14-14
				c2.3-1.2,4.7-2.3,7-2.3s4.7-1.2,7-1.2c17.6-1.2,30.4,5.9,42.1,11.7C694.2,566.3,704.8,574.5,714.1,583.9z"/>
		</g>
		<g>
			<path class="st12" d="M615.8,540.6l-33.9-8.2c-5.9-1.2-10.5-2.3-15.2-3.5s-9.4-1.2-11.7,0c-1.2,0-1.2,1.2,1.2,1.2
				c2.3,0,5.9-4.7,5.9-5.9c1.2-2.3,1.2,1.2,3.5,4.7c3.5,7,10.5,16.4,15.2,23.4l66.7,87.8l-97.2-53.8c-10.5-5.9-24.6-11.7-33.9-12.9
				c-4.7-1.2-7,0-7-1.2c0,0,0,0-1.2,0c0,0-1.2,0-1.2,1.2c0,0-1.2,0-1.2,1.2c-1.2,1.2,0,7,2.3,12.9s7,11.7,11.7,17.6
				c9.4,11.7,19.9,23.4,30.4,35.1c-16.4-3.5-31.6-9.4-46.8-17.6c-7-4.7-14-9.4-21.1-16.4c-5.9-7-14-15.2-15.2-29.3
				c-1.2-7,0-15.2,3.5-22.2c1.2-3.5,3.5-5.9,5.9-9.4c2.3-2.3,4.7-5.9,8.2-8.2c12.9-9.4,26.9-10.5,37.5-10.5
				c10.5,1.2,19.9,3.5,29.3,5.9c9.4,3.5,16.4,7,24.6,11.7l-31.6,35.1c-7-11.7-12.9-21.1-17.6-35.1c-1.2-3.5-2.3-7-2.3-11.7
				s-1.2-9.4,0-16.4c1.2-3.5,2.3-7,4.7-11.7c2.3-3.5,7-7,10.5-8.2c7-3.5,12.9-3.5,17.6-2.3c9.4,1.2,15.2,4.7,21.1,8.2
				s10.5,7,15.2,11.7C601.8,520.7,608.8,530,615.8,540.6z"/>
		</g>
		<g>
			<path class="st12" d="M522.2,490.2c-16.4-1.2-30.4-4.7-42.1-7c-5.9-1.2-11.7-2.3-15.2-2.3c-2.3,0-3.5,0-3.5,1.2c0,0,0,0,1.2,0
				h1.2c1.2,0,1.2,0,2.3-1.2c1.2-1.2,2.3-1.2,3.5-2.3c2.3-2.3,3.5-4.7,3.5-5.9s0-1.2,0-1.2s0,2.3,0,4.7c0,4.7,2.3,10.5,2.3,16.4
				c2.3,12.9,4.7,26.9,3.5,43.3c-16.4-5.9-28.1-15.2-38.6-26.9c-4.7-5.9-9.4-12.9-12.9-21.1c-1.2-4.7-3.5-9.4-3.5-15.2
				c0-3.5,0-7,1.2-11.7s3.5-10.5,8.2-15.2c2.3-2.3,4.7-4.7,8.2-5.9c1.2-1.2,2.3-1.2,3.5-2.3c1.2,0,2.3-1.2,3.5-1.2
				c3.5-1.2,8.2-1.2,10.5-1.2c7,0,11.7,1.2,16.4,3.5c9.4,3.5,16.4,8.2,22.2,12.9C508.1,462.2,517.5,475,522.2,490.2z"/>
		</g>
	</g>
	<g>
		<path class="st1" d="M681.4,389.6c-12.9-8.2-22.2-15.2-31.6-21.1c-4.7-2.3-8.2-5.9-10.5-7c-2.3-1.2-3.5,0-1.2,0h1.2
			c1.2,0,1.2-1.2,2.3-1.2c1.2,0,1.2-1.2,1.2-2.3v-1.2c-1.2-1.2-3.5,2.3-4.7,7c-3.5,9.4-7,21.1-14,33.9
			c-12.9-9.4-19.9-21.1-23.4-35.1c-1.2-7-2.3-16.4,2.3-28.1c1.2-2.3,3.5-5.9,5.9-8.2s5.9-4.7,8.2-7c7-3.5,14-5.9,21.1-5.9
			c14,0,24.6,7,30.4,14c5.9,7,9.4,14,11.7,21.1C686,361.5,686,375.5,681.4,389.6z"/>
	</g>
</g>
</svg>
