<svg id="OBJECTS" xmlns="http://www.w3.org/2000/svg" viewBox="0 0 648.49 417.59"><defs><style>.cls-1{fill:#fff;}.cls-2{fill:#e1f4ff;}</style></defs><title>clouds</title><path class="cls-1" d="M334.69,247.57c-.71,5.12-47.58,10.94-72.53,6.77-10.41,11.75-33.38,2.78-33.38,2.78L198,256.73c-16.19,12.62-52,5.11-59,.53-19.39,11.94-71.26,7.43-81.36-5.52-5.17-1.18-6.41-8.52-3.7-13.48,2-3.62,6.07-6,12.26-3.73,3-30.09,31-15.63,31-15.63s-4-40.44,33.94-47,49.53,37.82,49.53,37.82,13.62-12.65,28.26-4.13,11.88,23.87,11.88,23.87,16.84-13.25,33.41-5.34S271.94,241,271.94,241s28.29-6.05,35.26.45c8.26-3.48,21.37-.75,25.9,3.11C334.23,245.52,334.83,246.55,334.69,247.57Z" transform="translate(-52.56 -10.28)"/><path class="cls-2" d="M334.69,247.57c-.71,5.12-47.58,10.94-72.53,6.77-10.41,11.75-33.38,2.78-33.38,2.78L198,256.73c-16.19,12.62-52,5.11-59,.53-19.39,11.94-71.26,7.43-81.36-5.52-5.17-1.18-6.41-8.52-3.7-13.48a32.89,32.89,0,0,0,30,9.8c3.32-.68,6.63-1.9,10-1.53,6.23.69,11.78,6.7,17.79,4.91-3.22-5.27-1.24-12.65,3.46-16.66s11.4-5,17.49-3.94,11.68,3.91,17.08,6.92c-1.32-6.6,2.95-13.74,9.26-16.09s13.94.05,18.13,5.32a18.78,18.78,0,0,1,2.09,19.08c6.05-7.5,19.54-6.78,24.76,1.32a15.73,15.73,0,0,1,18.8,2.17,47.37,47.37,0,0,1,35.14,0c-.23-1.76,1.72-3.16,3.49-3.16s3.41.91,5.05,1.6c4.18,1.75,8.81,2.09,13.34,2.25a207.77,207.77,0,0,0,41.46-2.64,57.76,57.76,0,0,0,11.8-3.07C334.23,245.52,334.83,246.55,334.69,247.57Z" transform="translate(-52.56 -10.28)"/><path class="cls-1" d="M701,141c-.83,20-27.23,18.27-27.23,18.27a82.34,82.34,0,0,1-32.26,11.93c-18.66,2.56-54.19-5.67-54.19-5.67s-10.54,5.72-19.46,5.22-17.74-5.3-17.74-5.3-43.3,7.22-80.37,1.18c-23.93,5.42-58.66-5-58.66-5s-15.62-5.59-11.92-22.52a31.84,31.84,0,0,1,1.36-4.5c8.69-22.87,42-13.95,42-13.95s-16.7-18.23-3.8-29.84,32.64,4.44,32.64,4.44c-4.06-17.94,10.86-19.84,10.86-19.84s-16.72-51,20-62.8,67.15,24.56,66.58,49.84c36.94-21.5,74.9,11.34,59.1,52.66,11.47-13.89,38.14-8.83,35.33,17,5.49-12.67,36.8-15.4,37.79,6.8C701.06,139.61,701.05,140.31,701,141Z" transform="translate(-52.56 -10.28)"/><path class="cls-2" d="M701,141c-.83,20-27.23,18.27-27.23,18.27a82.34,82.34,0,0,1-32.26,11.93c-18.66,2.56-54.19-5.67-54.19-5.67s-10.54,5.72-19.46,5.22-17.74-5.3-17.74-5.3-43.3,7.22-80.37,1.18c-23.93,5.42-58.66-5-58.66-5s-15.62-5.59-11.92-22.52c6,7.6,16.8,11.27,26.11,8.43,7.22-2.21,13.37-7.81,20.91-8.42A16.81,16.81,0,0,1,461,146c1.86-6.33,11.29-8.71,15.93-4a30.2,30.2,0,0,1,6.43-33.71c2.67-2.53,6-4.62,9.65-4.87,3.9-.27,7.68,1.56,10.84,3.89,6.62,4.89,11.6,13.47,8.94,21.26,7.64-1.38,15.75,5,16.26,12.72a29.24,29.24,0,0,1,30.33,2.48c-1.3-5.32.82-11,4-15.4,8.34-11.55,24.23-16.61,38.06-13.17s25.14,14.69,29.88,28.13c.59,1.68.85,4-.44,5,6.55-4.18,16.55-.71,20.78,5.87A79.38,79.38,0,0,1,701,141Z" transform="translate(-52.56 -10.28)"/><path class="cls-1" d="M638.7,423.89c-3.94,4.51-80.81,2-80.81,2s-31.92,2-76.81,2-63.85-5-63.85-5-92.78,3-97.77,1c-2.41-1,3.8-3.81,12.79-5.79,9.58-2.13,22.32-3.3,31.11-.2,11-17.95,61.85-36.91,90.78-16,19.95-11,24.68,8.37,24.68,8.37S506,382,558.89,401.71c21.93-15,60.49.93,74.82,13C638.28,418.51,640.39,422,638.7,423.89Z" transform="translate(-52.56 -10.28)"/><path class="cls-2" d="M638.7,423.89c-3.94,4.51-80.81,2-80.81,2s-31.92,2-76.81,2-63.85-5-63.85-5-92.78,3-97.77,1c-2.41-1,3.8-3.81,12.79-5.79,22.27,2.53,45,3.7,66.91-1,9.94-2.15,21.2-5.28,29.59.47A8.88,8.88,0,0,1,439.48,419c3.62-3.07,8.71-3.87,13.43-3.38s9.23,2.09,13.8,3.36a95.28,95.28,0,0,0,39.11,2.43c13.2-1.94,26.07-6.66,39.41-6.45,3.55.06,7.18.05,10.31,1.72,1.74.93,3.34,2.2,5.24,2.72,2.67.74,5.47-.08,8.19-.58,9.85-1.8,19.92.7,29.91,1.35a81.25,81.25,0,0,0,34.83-5.5C638.28,418.51,640.39,422,638.7,423.89Z" transform="translate(-52.56 -10.28)"/></svg>