<svg id="Layer_1" data-name="Layer 1" xmlns="http://www.w3.org/2000/svg" viewBox="0 0 41.72 106.63"><defs><style>.cls-1{fill:#b2b290;}.cls-2{fill:#443f2e;}.cls-3{fill:#ebf0f2;}.cls-4{fill:#eaf0f1;}.cls-5{fill:#453e2d;}.cls-6{fill:#b2b391;}.cls-7{fill:#b3b191;}</style></defs><title>column_r</title><g id="Layer_1-2" data-name="Layer 1-2"><path class="cls-1" d="M35.72,90.2c-2,0-2.7-2.2-2.56-3.88V51.16c-.23-1.81,1.12-3,2.41-4C35.84,61.5,35.61,75.85,35.72,90.2Z" transform="translate(0 -0.77)"/><path class="cls-2" d="M4.09,107.38l-3.91-.29a86,86,0,0,1-.11-8.94c-.35-2.15,2.57-1.3,3.65-1.78.18-13,0-25.9.07-38.85V.77H6c.1,1.24.2,42.72.29,44,2.48,1.21,4.93,3.27,4.64,6.38.08,12,.11,24.11,0,36.16.16,3-2.39,4.82-4.75,6,0,.81-.08,2.42-.1,3.23,9.88.08,19.76,0,29.64.06V93.24c-1.67-1.06-3.79-2-4.38-4.06-.62-2.27-.37-4.65-.42-7,.14-10.66-.14-21.32.12-32-.07-2.89,2.58-4.42,4.74-5.67,0-1.11,0-42.53,0-43.74h2.33V96.46l3.67.28V107.1c-7,.51-14,.07-21,.3H17.91M39.46,105V98.91c-12.32-.14-24.65.09-37-.12-.12,2.07-.17,4.14-.19,6.21H39.46M35.72,90.2c-.15-14.35.08-28.7-.11-43.05-1.29,1-2.64,2.2-2.41,4-.07,11.72,0,23.44,0,35.16-.14,1.69.52,3.87,2.52,3.89M8.5,87.14c.09-12,.07-23.94,0-35.91.25-1.8-1.09-3-2.21-4.15-.64,14.51-.24,29.07-.2,43.6,1.18-.89,2.63-1.89,2.45-3.54Z" transform="translate(0 -0.77)"/><path class="cls-3" d="M39.46,105H2.32c0-2.07.07-4.14.19-6.21,12.32.21,24.65,0,37,.12Q39.48,102,39.46,105Z" transform="translate(0 -0.77)"/><path class="cls-4" d="M6,.77c9.92,0,22.92.15,29.77.15V44.58c-2.16,1.25-4.81,2.78-4.74,5.67.29,12-.12,19.39-.12,32a24.49,24.49,0,0,0,.42,7,9.24,9.24,0,0,0,4.39,4v3.32c-9.88-.08-19.76,0-29.64-.06,0-.81.08-2.42.1-3.23,2.36-1.2,4.91-3.05,4.75-6,.13-12.05.1-24.11,0-36.16.29-3.13-2.16-5.19-4.64-6.4M22.81,92.86a5.86,5.86,0,0,0,4-5.54c.08-12,0-24,0-36a6,6,0,0,0-5.6-6.38,6.86,6.86,0,0,0-1.11,0,5.94,5.94,0,0,0-5.22,6.31V87.34c-.06,3.81,4.34,6.78,7.94,5.47Z" transform="translate(0 -0.77)"/><path class="cls-5" d="M22.82,92.81c-3.6,1.31-8-1.66-7.86-5.56-.07-12,0-24,0-36.06a5.94,5.94,0,0,1,5.22-6.31,6,6,0,0,1,6.68,5.24,6.86,6.86,0,0,1,0,1.11c0,12,.06,24,0,36a5.86,5.86,0,0,1-4,5.54m.1-2.63c2.08-1.28,1.58-3.94,1.67-6-.15-11.32.16-22.65-.15-34-.16-4-6.88-4-7.1,0-.33,12-.08,24.06-.14,36.08-.69,3.21,3,5.87,5.65,4Z" transform="translate(0 -0.77)"/><path class="cls-6" d="M22.92,90.18c-2.61,1.91-6.34-.75-5.72-3.85.06-12-.19-24.07.14-36.08.22-4,6.94-4.07,7.1,0,.31,11.31,0,22.64.15,34C24.5,86.24,25,88.9,22.92,90.18Z" transform="translate(0 -0.77)"/><path class="cls-7" d="M8.72,86.8c.23,1.65-1.52,3-2.63,3.88,0-14.53-.5-29.23.14-43.74,1.12,1.16,2.77,2.15,2.52,4C8.78,62.86,8.8,74.83,8.72,86.8Z" transform="translate(0 -0.77)"/></g></svg>