<?xml version="1.0" encoding="utf-8"?>
<!-- Generator: Adobe Illustrator 23.0.3, SVG Export Plug-In . SVG Version: 6.00 Build 0)  -->
<svg version="1.1" id="Layer_1" xmlns="http://www.w3.org/2000/svg" xmlns:xlink="http://www.w3.org/1999/xlink" x="0px" y="0px"
	 viewBox="0 0 41.7 108.6" style="enable-background:new 0 0 41.7 108.6;" xml:space="preserve">
<style type="text/css">
	.st0{fill:#B2B290;}
	.st1{fill:#443F2E;}
	.st2{fill:#EBF0F2;}
	.st3{fill:#EAF0F1;}
	.st4{fill:#453E2D;}
	.st5{fill:#B2B391;}
	.st6{fill:#B3B191;}
</style>
<title>column</title>
<g>
	<g id="Layer_1-2">
		<path class="st0" d="M6,18c2,0,2.7,2.2,2.6,3.9c0,11.7,0,23.4,0,35.2c0.2,1.8-1.1,3-2.4,4C5.9,46.7,6.1,32.3,6,18z"/>
		<path class="st1" d="M37.6,0.8l3.9,0.3c0.2,3,0.2,6,0.1,8.9c0.3,2.2-2.6,1.3-3.7,1.8c-0.2,13,0,25.9-0.1,38.8c0,5.5,0,51.2,0,56.8
			h-2.2c-0.1-1.2-0.2-42.7-0.3-44c-2.5-1.2-4.9-3.3-4.6-6.4c-0.1-12-0.1-24.1,0-36.2c-0.2-3,2.4-4.8,4.8-6c0-0.8,0.1-2.4,0.1-3.2
			c-9.9-0.1-19.8,0-29.6-0.1c0,1.1,0,2.2,0,3.3c1.7,1.1,3.8,2,4.4,4.1c0.6,2.3,0.4,4.6,0.4,7c-0.1,10.7,0.1,21.3-0.1,32
			c0.1,2.9-2.6,4.4-4.7,5.7c0,1.1,0,42.5,0,43.7H3.7c0-5.5,0-51.2,0-56.8c0-13,0-25.9,0-38.9L0,11.4C0,8,0,4.5,0,1.1
			C7,0.6,14,1,21,0.8h2.8 M2.3,3.2c0,2,0,4,0,6.1c12.3,0.1,24.6-0.1,37,0.1c0.1-2.1,0.2-4.1,0.2-6.2C27,3.2,14.6,3.2,2.3,3.2 M6,18
			c0.2,14.4-0.1,28.7,0.1,43c1.3-1,2.6-2.2,2.4-4c0.1-11.7,0-23.4,0-35.2C8.7,20.2,8,18,6,18 M33.2,21c-0.1,12-0.1,23.9,0,35.9
			c-0.3,1.8,1.1,3,2.2,4.2c0.6-14.5,0.2-29.1,0.2-43.6C34.5,18.4,33,19.4,33.2,21L33.2,21z"/>
		<path class="st2" d="M2.3,3.2c12.4,0,24.8,0,37.1,0c0,2.1-0.1,4.1-0.2,6.2c-12.3-0.2-24.6,0-37-0.1C2.2,7.2,2.2,5.2,2.3,3.2z"/>
		<path class="st3" d="M35.8,107.4c-9.9,0-22.9-0.1-29.8-0.1c0-1.2,0-42.5,0-43.7c2.2-1.3,4.8-2.8,4.7-5.7c-0.3-12,0.1-19.4,0.1-32
			c0-1.2,0.3-4.2-0.4-7c-1.1-2.1-3-3.3-4.4-4c0-1.1,0-2.2,0-3.3c9.9,0.1,19.8,0,29.6,0.1c0,0.8-0.1,2.4-0.1,3.2
			c-2.4,1.2-4.9,3.1-4.8,6c-0.1,12.1-0.1,24.1,0,36.2c-0.3,3.1,2.2,5.2,4.6,6.4 M18.9,15.3c-2.4,0.8-4,3-4,5.5c-0.1,12,0,24,0,36
			c-0.2,3.3,2.3,6.2,5.6,6.4c0.4,0,0.7,0,1.1,0c3.1-0.4,5.4-3.2,5.2-6.3c0-12,0-24,0-36.1C26.9,17,22.5,14.1,18.9,15.3L18.9,15.3z"
			/>
		<path class="st4" d="M18.9,15.4c3.6-1.3,8,1.7,7.9,5.6c0.1,12,0,24,0,36.1c0.2,3.2-2.1,5.9-5.2,6.3c-3.3,0.4-6.3-1.9-6.7-5.2
			c0-0.4-0.1-0.7,0-1.1c0-12-0.1-24,0-36C14.8,18.4,16.4,16.2,18.9,15.4 M18.7,18c-2.1,1.3-1.6,3.9-1.7,6c0.1,11.3-0.2,22.6,0.1,34
			c0.2,4,6.9,4,7.1,0C24.6,46,24.4,34,24.5,22C25.1,18.7,21.4,16.1,18.7,18L18.7,18z"/>
		<path class="st5" d="M18.8,18c2.6-1.9,6.3,0.8,5.7,3.9c-0.1,12,0.2,24.1-0.1,36.1c-0.2,4-6.9,4.1-7.1,0c-0.3-11.3,0-22.6-0.1-34
			C17.2,21.9,16.7,19.3,18.8,18z"/>
		<path class="st6" d="M33,21.4c-0.2-1.6,1.5-3,2.6-3.9c0,14.5,0.5,29.2-0.1,43.7c-1.1-1.2-2.8-2.2-2.5-4
			C32.9,45.3,32.9,33.3,33,21.4z"/>
	</g>
</g>
</svg>
