<svg xmlns="http://www.w3.org/2000/svg" viewBox="0 0 41.74 66.99"><defs><style>.cls-1{fill:#b2b290;}.cls-2{fill:#443f2e;}.cls-3{fill:#ebf0f2;}.cls-4{fill:#eaf0f1;}.cls-5{fill:#453e2d;}.cls-6{fill:#b2b391;}.cls-7{fill:#b3b191;}</style></defs><title>column</title><g id="Layer_2" data-name="Layer 2"><g id="Layer_1-2" data-name="Layer 1"><path class="cls-1" d="M6,17.8c2,0,2.7,2.2,2.56,3.88,0,11.72,0,23.44,0,35.16.23,1.81-1.12,3-2.41,4C5.88,46.5,6.11,32.15,6,17.8Z"/><path class="cls-2" d="M23.83.61A68.72,68.72,0,0,0,35.48.29C36.17.21,36.86.11,37.55,0l.08.62,3.91.29a86.05,86.05,0,0,1,.11,8.94C42,12,39.08,11.15,38,11.63c-.18,12.95,0,25.9-.07,38.85,0,5.5,0,11,0,16.51H35.77c-.1-1.24-.2-2.48-.29-3.72C33,62.06,30.55,60,30.84,56.89c-.08-12-.11-24.11,0-36.16-.16-3,2.39-4.82,4.75-6,0-.81.08-2.42.1-3.23-9.88-.08-19.76,0-29.64-.06,0,1.11,0,2.21,0,3.32,1.67,1.06,3.79,2,4.38,4.06.62,2.27.37,4.65.42,7-.14,10.66.14,21.32-.12,32,.07,2.89-2.58,4.42-4.74,5.67C6,64.6,6,65.79,6,67H3.67c0-5.52,0-11,0-16.54,0-13,0-25.95,0-38.92L0,11.26C0,7.81,0,4.36,0,.9,7,.39,14,.83,21,.6h2.81M2.26,3q0,3,0,6.09c12.32.14,24.65-.09,37,.12.12-2.07.17-4.14.19-6.21Q20.83,3,2.26,3M6,17.8c.15,14.35-.08,28.7.11,43.05,1.29-1,2.64-2.2,2.41-4,.07-11.72,0-23.44,0-35.16C8.66,20,8,17.82,6,17.8m27.22,3.06c-.09,12-.07,23.94,0,35.91-.25,1.8,1.09,3,2.21,4.15.64-14.51.24-29.07.2-43.6C34.45,18.21,33,19.21,33.18,20.86Z"/><path class="cls-3" d="M2.26,3Q20.83,3,39.4,3c0,2.07-.07,4.14-.19,6.21-12.32-.21-24.65,0-37-.12Q2.24,6,2.26,3Z"/><path class="cls-4" d="M6.05,14.74c0-1.11,0-2.21,0-3.32,9.88.08,19.76,0,29.64.06,0,.81-.08,2.42-.1,3.23-2.36,1.2-4.91,3.05-4.75,6-.13,12.05-.1,24.11,0,36.16C30.55,60,33,62.06,35.48,63.27c.09,1.24.19,2.48.29,3.72Q20.89,67,6,67c0-1.2,0-2.39,0-3.58,2.16-1.25,4.81-2.78,4.74-5.67.26-10.65,0-21.31.12-32,0-2.32.2-4.7-.42-7-.59-2.09-2.71-3-4.38-4.06m12.85.45a5.87,5.87,0,0,0-4,5.54c-.08,12,0,24,0,36a6,6,0,0,0,6.71,6.35,5.94,5.94,0,0,0,5.22-6.31c0-12,0-24,0-36.06C26.9,16.85,22.5,13.88,18.9,15.19Z"/><path class="cls-5" d="M18.9,15.19c3.6-1.31,8,1.66,7.86,5.56.07,12,0,24,0,36.06a5.94,5.94,0,0,1-5.22,6.31,6,6,0,0,1-6.71-6.35c0-12-.06-24,0-36a5.87,5.87,0,0,1,4-5.54m-.1,2.63c-2.08,1.28-1.58,3.94-1.67,6,.15,11.32-.16,22.65.15,34,.16,4,6.88,4,7.1,0,.33-12,.08-24.06.14-36.08C25.14,18.57,21.41,15.91,18.8,17.82Z"/><path class="cls-6" d="M18.8,17.82c2.61-1.91,6.34.75,5.72,3.85-.06,12,.19,24.07-.14,36.08-.22,4-6.94,4.07-7.1,0-.31-11.31,0-22.64-.15-34C17.22,21.76,16.72,19.1,18.8,17.82Z"/><path class="cls-7" d="M33,21.2c-.23-1.65,1.27-2.65,2.38-3.54,0,14.53.44,29.09-.2,43.6-1.12-1.16-2.46-2.35-2.21-4.15C32.94,45.14,32.92,33.17,33,21.2Z"/></g></g></svg>