<svg id="Layer_1" data-name="Layer 1" xmlns="http://www.w3.org/2000/svg" viewBox="0 0 802.17 21.81"><defs><style>.cls-1{fill:#356006;}.cls-2{fill:#233b01;}.cls-3{fill:#6c8900;}</style></defs><title>ground-grass</title><g id="Layer_1-2" data-name="Layer 1-2"><path class="cls-1" d="M291.36,11.59c3.32-5.22,8.78-9.45,15.19-9.55-4.72,2.72-9.73,6.8-9.42,12.84,27.88-.06,55.76.17,83.63-.11-1-1-2.1-2-3.13-3,1.53.33,3.05.73,4.54,1.21.61-1.36,1.25-2.71,1.9-4,.08,1.46.17,2.91.27,4.36l2.77-3.45c-.25,1.67-.48,3.34-.71,5q11.21.07,22.41,0v2.95q-195.67-.24-391.32-.1a60.2,60.2,0,0,1-10.22-.42L7,14.88c5.93,0,11.87.08,17.8-.1l-2.69-3c1.37.35,2.75.74,4.12,1.11a20.37,20.37,0,0,1,2.59-4.16c-.18,1.51-.36,3-.52,4.52a52.29,52.29,0,0,1,3.88-4.41,22.38,22.38,0,0,0-1.91,5.9c26.48.19,53,.11,79.45,0-2-2.69-5.43-2.84-8.41-3.41a15.87,15.87,0,0,1,10.58.15,17.61,17.61,0,0,1,9.33-7.61A25.69,25.69,0,0,0,115.82,11c3.51-.29,7.27-.18,10.17,2-3,0-6.09-.08-8.66,1.68,38.91.46,77.83.14,116.75.16-.86-1-1.75-2-2.62-3l4,1.07c.76-1.32,1.52-2.63,2.33-3.92-.06,1.08-.2,3.25-.27,4.33,1.29-1.49,2.5-3,3.81-4.52-.66,1.89-1.32,3.78-1.94,5.69a38.86,38.86,0,0,0,6,.4c14.74-.16,29.49.16,44.23-.18-2.31-2.19-5.41-2.87-8.45-3.32A14.32,14.32,0,0,1,291.36,11.59Z" transform="translate(-6.99 -2.02)"/><path class="cls-2" d="M7.27,17.32a60.2,60.2,0,0,0,10.22.42q195.65.15,391.31.08v1.23Q208,19.2,7.17,19.12C7.19,18.67,7.24,17.77,7.27,17.32Z" transform="translate(-6.99 -2.02)"/><path class="cls-3" d="M7.17,19.12Q208,19,408.82,19v4.79c-32.44-.36-64.89,0-97.33-.12-101.44.08-202.88-.17-304.31.11C7.16,22.26,7.17,20.69,7.17,19.12Z" transform="translate(-6.99 -2.02)"/></g><g id="Layer_1-2-2" data-name="Layer 1-2"><path class="cls-1" d="M691.7,11.57C695,6.35,700.48,2.12,706.89,2c-4.72,2.72-9.73,6.8-9.42,12.84,27.88-.06,55.76.17,83.63-.11-1-1-2.1-2-3.13-3,1.53.33,3,.73,4.54,1.21.61-1.36,1.25-2.71,1.9-4,.08,1.46.17,2.91.27,4.36l2.77-3.45c-.25,1.67-.48,3.34-.71,5q11.21.08,22.41,0v3q-195.67-.24-391.32-.1a60.2,60.2,0,0,1-10.22-.42l-.28-2.44c5.93,0,11.87.08,17.8-.1l-2.69-3c1.37.35,2.75.74,4.12,1.11a20.11,20.11,0,0,1,2.59-4.16c-.18,1.51-.36,3-.52,4.52a52.29,52.29,0,0,1,3.88-4.41,22.26,22.26,0,0,0-1.91,5.9c26.48.19,53,.11,79.45,0-2-2.69-5.43-2.84-8.41-3.41a15.81,15.81,0,0,1,10.58.15,17.61,17.61,0,0,1,9.33-7.61A25.69,25.69,0,0,0,516.16,11c3.51-.29,7.27-.18,10.17,2-3,0-6.09-.08-8.66,1.68,38.91.46,77.83.14,116.75.16-.86-1-1.75-2-2.62-3l4,1.07c.76-1.32,1.52-2.63,2.33-3.92-.06,1.08-.2,3.25-.27,4.33,1.29-1.49,2.5-3,3.81-4.52-.66,1.89-1.32,3.78-1.94,5.69a38.86,38.86,0,0,0,6,.4c14.74-.16,29.49.16,44.23-.18-2.31-2.19-5.41-2.87-8.45-3.32A14.26,14.26,0,0,1,691.7,11.57Z" transform="translate(-6.99 -2.02)"/><path class="cls-2" d="M407.61,17.3a60.2,60.2,0,0,0,10.22.42q195.65.15,391.31.08V19q-200.8.15-401.63.07C407.53,18.65,407.58,17.75,407.61,17.3Z" transform="translate(-6.99 -2.02)"/><path class="cls-3" d="M407.51,19.1Q608.33,19,809.16,19v4.79c-32.44-.36-64.89,0-97.33-.12-101.44.08-202.88-.17-304.31.11C407.5,22.24,407.51,20.67,407.51,19.1Z" transform="translate(-6.99 -2.02)"/></g></svg>